<?xml version="1.0" encoding="utf-8"?>
<!-- Generator: Adobe Illustrator 19.2.0, SVG Export Plug-In . SVG Version: 6.00 Build 0)  -->
<svg version="1.1" id="playing_cards_aces" xmlns="http://www.w3.org/2000/svg" xmlns:xlink="http://www.w3.org/1999/xlink" x="0px"
	 y="0px" width="139.3px" height="211.7px" viewBox="0 0 139.3 211.7" style="enable-background:new 0 0 139.3 211.7;"
	 xml:space="preserve">
<style type="text/css">
	.st0{fill:#828282;}
	.st1{fill:url(#SVGID_1_);}
	.st2{fill-rule:evenodd;clip-rule:evenodd;fill:#EB3000;}
	.st3{fill:#B50F00;}
	.st4{fill:#EB3000;}
</style>
<g>
	<path class="st0" d="M138,200.9c0,5.8-4.7,10.5-10.5,10.4l-117.2-0.2c-5.8,0-10.4-4.7-10.4-10.5L0.1,12.5C0.1,6.7,4.8,2,10.6,2
		l117.2,0.2c5.8,0,10.4,4.7,10.4,10.5L138,200.9z"/>
	
		<linearGradient id="SVGID_1_" gradientUnits="userSpaceOnUse" x1="2.1136" y1="189.3663" x2="109.3185" y2="-63.1925" gradientTransform="matrix(1 1.700000e-03 -1.700000e-03 1 21.2377 26.6401)">
		<stop  offset="0" style="stop-color:#E1E1E1"/>
		<stop  offset="0.1158" style="stop-color:#ECECEC"/>
		<stop  offset="0.3159" style="stop-color:#FAFAFA"/>
		<stop  offset="0.4909" style="stop-color:#FFFFFF"/>
		<stop  offset="0.6975" style="stop-color:#FCFCFC"/>
		<stop  offset="0.8527" style="stop-color:#F2F2F2"/>
		<stop  offset="0.991" style="stop-color:#E2E2E2"/>
		<stop  offset="1" style="stop-color:#E1E1E1"/>
	</linearGradient>
	<path class="st1" d="M139,199.9c0,5.8-4.7,10.5-10.5,10.4l-117.2-0.2c-5.8,0-10.4-4.7-10.4-10.5L1.2,11.4C1.2,5.7,5.9,1,11.7,1
		l117.2,0.2c5.8,0,10.4,4.7,10.4,10.5L139,199.9z"/>
	<path class="st2" d="M19.3,35.4c-1.1,0-6.2,5.2-6.2,6.4c0-1.1-5.2-6.2-6.4-6.2c1.1,0,6.2-5.2,6.2-6.4C13,30.4,18.2,35.5,19.3,35.4z
		"/>
	<path class="st2" d="M134.4,170.5c-1.1,0-6.3,5.2-6.3,6.3c0-1.1-5.2-6.3-6.3-6.3c1.1,0,6.3-5.2,6.3-6.3
		C128.1,165.4,133.3,170.5,134.4,170.5z"/>
	<path class="st3" d="M13.8,19.8c0-0.1-0.1-0.2-0.2-0.2h-1.8c-0.1,0-0.1,0.1-0.1,0.1l-0.4,2.2c0,0.1,0,0.3,0.1,0.4l0.5,0.5
		c0.1,0.1,0.2,0.2,0.2,0.2c0,0.1,0,0.1-0.2,0.1H9.2c-0.1,0-0.1-0.1-0.1-0.1c0-0.1,0.1-0.1,0.2-0.2l0.7-0.5c0.1-0.1,0.2-0.3,0.2-0.5
		l2.2-13.2c0-0.1,0.1-0.2,0.2-0.2h0.9c0.1,0,0.2,0.1,0.2,0.2L16,21.7c0,0.2,0.1,0.4,0.3,0.5l0.7,0.5c0.1,0.1,0.1,0.1,0.1,0.2
		c0,0.1,0,0.1-0.2,0.1h-3.5c-0.1,0-0.2-0.1-0.2-0.1c0-0.1,0.1-0.1,0.2-0.2l0.7-0.5c0.1-0.1,0.1-0.2,0.1-0.4L13.8,19.8z M13.5,18.6
		c0.1,0,0.1-0.1,0.1-0.1l-0.9-4.8h0l-0.8,4.8c0,0.1,0,0.1,0.1,0.1H13.5z"/>
	<path class="st4" d="M13.8,19.8c0-0.1-0.1-0.2-0.2-0.2h-1.8c-0.1,0-0.1,0.1-0.1,0.1l-0.4,2.2c0,0.1,0,0.3,0.1,0.4l0.5,0.5
		c0.1,0.1,0.2,0.2,0.2,0.2c0,0.1,0,0.1-0.2,0.1H9.2c-0.1,0-0.1-0.1-0.1-0.1c0-0.1,0.1-0.1,0.2-0.2l0.7-0.5c0.1-0.1,0.2-0.3,0.2-0.5
		l2.2-13.2c0-0.1,0.1-0.2,0.2-0.2h0.9c0.1,0,0.2,0.1,0.2,0.2L16,21.7c0,0.2,0.1,0.4,0.3,0.5l0.7,0.5c0.1,0.1,0.1,0.1,0.1,0.2
		c0,0.1,0,0.1-0.2,0.1h-3.5c-0.1,0-0.2-0.1-0.2-0.1c0-0.1,0.1-0.1,0.2-0.2l0.7-0.5c0.1-0.1,0.1-0.2,0.1-0.4L13.8,19.8z M13.5,18.6
		c0.1,0,0.1-0.1,0.1-0.1l-0.9-4.8h0l-0.8,4.8c0,0.1,0,0.1,0.1,0.1H13.5z"/>
	<path class="st4" d="M127.5,189.5c0,0.1,0.1,0.2,0.2,0.2h1.8c0.1,0,0.1-0.1,0.1-0.1l0.4-2.2c0-0.1,0-0.3-0.1-0.4l-0.5-0.4
		c-0.1-0.1-0.2-0.2-0.2-0.2c0-0.1,0-0.1,0.2-0.1h2.8c0.1,0,0.1,0.1,0.1,0.1c0,0.1-0.1,0.1-0.2,0.2l-0.7,0.5
		c-0.1,0.1-0.2,0.3-0.2,0.5l-2.2,13.2c0,0.1-0.1,0.2-0.2,0.2h-0.9c-0.1,0-0.2-0.1-0.2-0.2l-2.3-13.2c0-0.2-0.1-0.4-0.3-0.5l-0.7-0.5
		c-0.1-0.1-0.1-0.1-0.1-0.2c0-0.1,0-0.1,0.2-0.1h3.5c0.1,0,0.2,0.1,0.2,0.1c0,0.1-0.1,0.1-0.2,0.2l-0.7,0.5
		c-0.1,0.1-0.1,0.2-0.1,0.4L127.5,189.5z M127.8,190.8c-0.1,0-0.1,0.1-0.1,0.1l0.9,4.8h0l0.8-4.8c0-0.1,0-0.1-0.1-0.1H127.8z"/>
</g>
</svg>
