<?xml version="1.0" encoding="utf-8"?>
<!-- Generator: Adobe Illustrator 19.2.0, SVG Export Plug-In . SVG Version: 6.00 Build 0)  -->
<svg version="1.1" id="playing_cards_aces" xmlns="http://www.w3.org/2000/svg" xmlns:xlink="http://www.w3.org/1999/xlink" x="0px"
	 y="0px" width="139.3px" height="211.7px" viewBox="0 0 139.3 211.7" style="enable-background:new 0 0 139.3 211.7;"
	 xml:space="preserve">
<style type="text/css">
	.st0{fill:#828282;}
	.st1{fill:url(#SVGID_1_);}
	.st2{fill:#EB3000;}
	.st3{fill:#B50F00;}
</style>
<g>
	<path class="st0" d="M138.1,200.9c0,5.8-4.7,10.5-10.5,10.4l-117.2-0.2c-5.8,0-10.4-4.7-10.4-10.5L0.3,12.5C0.3,6.7,5,2,10.8,2
		L128,2.2c5.8,0,10.4,4.7,10.4,10.5L138.1,200.9z"/>
	
		<linearGradient id="SVGID_1_" gradientUnits="userSpaceOnUse" x1="2.3028" y1="189.3663" x2="116.7382" y2="-80.2268" gradientTransform="matrix(1 1.700000e-03 -1.700000e-03 1 21.2377 26.6401)">
		<stop  offset="0" style="stop-color:#E1E1E1"/>
		<stop  offset="0.1158" style="stop-color:#ECECEC"/>
		<stop  offset="0.3159" style="stop-color:#FAFAFA"/>
		<stop  offset="0.4909" style="stop-color:#FFFFFF"/>
		<stop  offset="0.6975" style="stop-color:#FCFCFC"/>
		<stop  offset="0.8527" style="stop-color:#F2F2F2"/>
		<stop  offset="0.991" style="stop-color:#E2E2E2"/>
		<stop  offset="1" style="stop-color:#E1E1E1"/>
	</linearGradient>
	<path class="st1" d="M139.2,199.9c0,5.8-4.7,10.5-10.5,10.4l-117.2-0.2c-5.8,0-10.4-4.7-10.4-10.5L1.4,11.4C1.4,5.7,6.1,1,11.9,1
		l117.2,0.2c5.8,0,10.4,4.7,10.4,10.5L139.2,199.9z"/>
	<path class="st2" d="M12.7,31.5c-1.7-3.2-6.1-2-6.1,1.1c0,3.5,4.5,5.3,6,8.6l0,0l0,0c1.6-3.2,6.1-5,6.1-8.5
		C18.8,29.7,14.4,28.4,12.7,31.5z"/>
	<path class="st2" d="M127.8,177.5c-1.7,3.2-6.1,2-6.1-1.2c0-3.5,4.5-5.3,6-8.6l0,0l0,0c1.5,3.3,6.1,5,6.1,8.5
		C133.9,179.4,129.5,180.7,127.8,177.5z"/>
	<path class="st3" d="M13.7,19.8c0-0.1-0.1-0.2-0.2-0.2h-1.8c-0.1,0-0.1,0.1-0.1,0.1l-0.4,2.2c0,0.1,0,0.3,0.1,0.4l0.5,0.4
		c0.1,0.1,0.2,0.2,0.2,0.2c0,0.1,0,0.1-0.2,0.1H9.1C9,23.1,8.9,23,8.9,23c0-0.1,0.1-0.1,0.2-0.2l0.7-0.5c0.1-0.1,0.2-0.3,0.2-0.5
		l2.2-13.2c0-0.1,0.1-0.2,0.2-0.2h0.9c0.1,0,0.2,0.1,0.2,0.2l2.3,13.2c0,0.2,0.1,0.4,0.3,0.5l0.7,0.5c0.1,0.1,0.1,0.1,0.1,0.2
		c0,0.1,0,0.1-0.2,0.1h-3.5c-0.1,0-0.2-0.1-0.2-0.1c0-0.1,0.1-0.1,0.2-0.2l0.7-0.5c0.1-0.1,0.1-0.2,0.1-0.4L13.7,19.8z M13.4,18.6
		c0.1,0,0.1-0.1,0.1-0.1l-0.9-4.8h0l-0.8,4.8c0,0.1,0,0.1,0.1,0.1H13.4z"/>
	<path class="st2" d="M13.7,19.8c0-0.1-0.1-0.2-0.2-0.2h-1.8c-0.1,0-0.1,0.1-0.1,0.1l-0.4,2.2c0,0.1,0,0.3,0.1,0.4l0.5,0.4
		c0.1,0.1,0.2,0.2,0.2,0.2c0,0.1,0,0.1-0.2,0.1H9.1C9,23.1,8.9,23,8.9,23c0-0.1,0.1-0.1,0.2-0.2l0.7-0.5c0.1-0.1,0.2-0.3,0.2-0.5
		l2.2-13.2c0-0.1,0.1-0.2,0.2-0.2h0.9c0.1,0,0.2,0.1,0.2,0.2l2.3,13.2c0,0.2,0.1,0.4,0.3,0.5l0.7,0.5c0.1,0.1,0.1,0.1,0.1,0.2
		c0,0.1,0,0.1-0.2,0.1h-3.5c-0.1,0-0.2-0.1-0.2-0.1c0-0.1,0.1-0.1,0.2-0.2l0.7-0.5c0.1-0.1,0.1-0.2,0.1-0.4L13.7,19.8z M13.4,18.6
		c0.1,0,0.1-0.1,0.1-0.1l-0.9-4.8h0l-0.8,4.8c0,0.1,0,0.1,0.1,0.1H13.4z"/>
	<path class="st2" d="M127.3,189.5c0,0.1,0.1,0.2,0.2,0.2h1.8c0.1,0,0.1-0.1,0.1-0.1l0.4-2.2c0-0.1,0-0.3-0.1-0.4l-0.5-0.5
		c-0.1-0.1-0.2-0.2-0.2-0.2c0-0.1,0-0.1,0.2-0.1h2.8c0.1,0,0.1,0.1,0.1,0.1c0,0.1-0.1,0.1-0.2,0.2l-0.7,0.5
		c-0.1,0.1-0.2,0.3-0.2,0.5l-2.2,13.2c0,0.1-0.1,0.2-0.2,0.2h-0.9c-0.1,0-0.2-0.1-0.2-0.2l-2.3-13.2c0-0.2-0.1-0.4-0.3-0.5l-0.7-0.5
		c-0.1-0.1-0.1-0.1-0.1-0.2c0-0.1,0-0.1,0.2-0.1h3.5c0.1,0,0.2,0.1,0.2,0.1c0,0.1-0.1,0.1-0.2,0.2l-0.7,0.5
		c-0.1,0.1-0.1,0.2-0.1,0.4L127.3,189.5z M127.7,190.8c-0.1,0-0.1,0.1-0.1,0.1l0.9,4.8h0l0.8-4.8c0-0.1,0-0.1-0.1-0.1H127.7z"/>
</g>
</svg>
