<?xml version="1.0" encoding="utf-8"?>
<!-- Generator: Adobe Illustrator 19.2.0, SVG Export Plug-In . SVG Version: 6.00 Build 0)  -->
<svg version="1.1" id="playing_cards_aces" xmlns="http://www.w3.org/2000/svg" xmlns:xlink="http://www.w3.org/1999/xlink" x="0px"
	 y="0px" width="139.3px" height="211.7px" viewBox="0 0 139.3 211.7" style="enable-background:new 0 0 139.3 211.7;"
	 xml:space="preserve">
<style type="text/css">
	.st0{fill:#828282;}
	.st1{fill:url(#SVGID_1_);}
</style>
<g>
	<path class="st0" d="M138,200.9c0,5.8-4.7,10.5-10.5,10.4l-117.2-0.2c-5.8,0-10.4-4.7-10.4-10.5L0.1,12.5C0.1,6.7,4.8,2,10.6,2
		l117.2,0.2c5.8,0,10.4,4.7,10.4,10.5L138,200.9z"/>
	
		<linearGradient id="SVGID_1_" gradientUnits="userSpaceOnUse" x1="2.1135" y1="189.3666" x2="111.3456" y2="-67.9679" gradientTransform="matrix(1 1.700000e-03 -1.700000e-03 1 21.2377 26.6401)">
		<stop  offset="0" style="stop-color:#E1E1E1"/>
		<stop  offset="0.1158" style="stop-color:#ECECEC"/>
		<stop  offset="0.3159" style="stop-color:#FAFAFA"/>
		<stop  offset="0.4909" style="stop-color:#FFFFFF"/>
		<stop  offset="0.6975" style="stop-color:#FCFCFC"/>
		<stop  offset="0.8527" style="stop-color:#F2F2F2"/>
		<stop  offset="0.991" style="stop-color:#E2E2E2"/>
		<stop  offset="1" style="stop-color:#E1E1E1"/>
	</linearGradient>
	<path class="st1" d="M139,199.9c0,5.8-4.7,10.5-10.5,10.4l-117.2-0.2c-5.8,0-10.4-4.7-10.4-10.5L1.2,11.4C1.2,5.7,5.9,1,11.7,1
		l117.2,0.2c5.8,0,10.4,4.7,10.4,10.5L139,199.9z"/>
	<path d="M18.8,37.4c0-3.6-4.7-5.5-6.3-8.9l0,0l0,0c-1.6,3.4-6.3,5.2-6.3,8.9c0,3,4,4.2,6,1.7c0-0.1,0,0.8-0.1,1.3
		c-0.5,1.6-2.2,3.8-3,4.5c1.1-1,5.7-1,6.9,0c-0.8-0.7-2.4-2.9-3-4.5c-0.1-0.5-0.2-0.9-0.2-1.4C14.7,41.8,18.8,40.5,18.8,37.4z"/>
	<path d="M128.9,170.5c0-0.5,0.1-0.9,0.2-1.4c0.5-1.6,2.2-3.8,3-4.5c-1.1,1-5.7,1-6.9,0c0.8,0.7,2.5,3,3,4.5
		c0.1,0.5,0.2,1.5,0.1,1.3c-2-2.5-6-1.4-6,1.7c0,3.6,4.7,5.5,6.3,8.9l0,0l0,0c1.6-3.4,6.3-5.2,6.3-8.9
		C135,169,130.8,167.7,128.9,170.5z"/>
	<path d="M13.8,19.8c0-0.1-0.1-0.2-0.2-0.2h-1.8c-0.1,0-0.1,0.1-0.1,0.1l-0.4,2.2c0,0.1,0,0.3,0.1,0.4l0.5,0.4
		c0.1,0.1,0.2,0.2,0.2,0.2c0,0.1,0,0.1-0.2,0.1H9.2c-0.1,0-0.1-0.1-0.1-0.1c0-0.1,0.1-0.1,0.2-0.2l0.7-0.5c0.1-0.1,0.2-0.3,0.2-0.5
		l2.2-13.2c0-0.1,0.1-0.2,0.2-0.2h0.9c0.1,0,0.2,0.1,0.2,0.2L16,21.7c0,0.2,0.1,0.4,0.3,0.5l0.7,0.5c0.1,0.1,0.1,0.1,0.1,0.2
		c0,0.1,0,0.1-0.2,0.1h-3.5c-0.1,0-0.2-0.1-0.2-0.1c0-0.1,0.1-0.1,0.2-0.2l0.7-0.5c0.1-0.1,0.1-0.2,0.1-0.4L13.8,19.8z M13.5,18.6
		c0.1,0,0.1-0.1,0.1-0.1l-0.9-4.8h0l-0.8,4.8c0,0.1,0,0.1,0.1,0.1H13.5z"/>
	<path d="M13.8,19.8c0-0.1-0.1-0.2-0.2-0.2h-1.8c-0.1,0-0.1,0.1-0.1,0.1l-0.4,2.2c0,0.1,0,0.3,0.1,0.4l0.5,0.4
		c0.1,0.1,0.2,0.2,0.2,0.2c0,0.1,0,0.1-0.2,0.1H9.2c-0.1,0-0.1-0.1-0.1-0.1c0-0.1,0.1-0.1,0.2-0.2l0.7-0.5c0.1-0.1,0.2-0.3,0.2-0.5
		l2.2-13.2c0-0.1,0.1-0.2,0.2-0.2h0.9c0.1,0,0.2,0.1,0.2,0.2L16,21.7c0,0.2,0.1,0.4,0.3,0.5l0.7,0.5c0.1,0.1,0.1,0.1,0.1,0.2
		c0,0.1,0,0.1-0.2,0.1h-3.5c-0.1,0-0.2-0.1-0.2-0.1c0-0.1,0.1-0.1,0.2-0.2l0.7-0.5c0.1-0.1,0.1-0.2,0.1-0.4L13.8,19.8z M13.5,18.6
		c0.1,0,0.1-0.1,0.1-0.1l-0.9-4.8h0l-0.8,4.8c0,0.1,0,0.1,0.1,0.1H13.5z"/>
	<path d="M127.5,189.5c0,0.1,0.1,0.2,0.2,0.2h1.8c0.1,0,0.1-0.1,0.1-0.1l0.4-2.2c0-0.1,0-0.3-0.1-0.4l-0.5-0.5
		c-0.1-0.1-0.2-0.2-0.2-0.2c0-0.1,0-0.1,0.2-0.1h2.8c0.1,0,0.1,0.1,0.1,0.1c0,0.1-0.1,0.1-0.2,0.2l-0.7,0.5
		c-0.1,0.1-0.2,0.3-0.2,0.5l-2.2,13.2c0,0.1-0.1,0.2-0.2,0.2h-0.9c-0.1,0-0.2-0.1-0.2-0.2l-2.3-13.2c0-0.2-0.1-0.4-0.3-0.5l-0.7-0.5
		c-0.1-0.1-0.1-0.1-0.1-0.2c0-0.1,0-0.1,0.2-0.1h3.5c0.1,0,0.2,0.1,0.2,0.1c0,0.1-0.1,0.1-0.2,0.2l-0.7,0.5
		c-0.1,0.1-0.1,0.2-0.1,0.4L127.5,189.5z M127.8,190.8c-0.1,0-0.1,0.1-0.1,0.1l0.9,4.8h0l0.8-4.8c0-0.1,0-0.1-0.1-0.1H127.8z"/>
</g>
</svg>
