<?xml version="1.0" encoding="utf-8"?>
<!-- Generator: Adobe Illustrator 19.2.0, SVG Export Plug-In . SVG Version: 6.00 Build 0)  -->
<svg version="1.1" id="playing_cards_aces" xmlns="http://www.w3.org/2000/svg" xmlns:xlink="http://www.w3.org/1999/xlink" x="0px"
	 y="0px" width="2337.2px" height="3520px" viewBox="0 0 2337.2 3520" style="enable-background:new 0 0 2337.2 3520;"
	 xml:space="preserve">
<style type="text/css">
	.st0{clip-path:url(#SVGID_2_);}
	.st1{fill:#FFFFFF;stroke:#000000;stroke-width:5;stroke-miterlimit:10;}
	.st2{fill:none;stroke:#D82E37;stroke-width:30;stroke-miterlimit:10;}
	.st3{fill:none;stroke:#D82E37;stroke-width:10;stroke-miterlimit:10;}
	.st4{fill:#D82E37;stroke:#D82E37;stroke-width:30;stroke-miterlimit:10;}
	.st5{fill:#D82E37;}
	.st6{fill:#FFFFFF;}
</style>
<g>
	<defs>
		<path id="SVGID_1_" d="M2328.4,3352.1c-0.2,97.2-79.1,175.8-176.2,175.6l-1972.4-3.4C82.6,3524.2,4,3445.3,4.1,3348.1L9.6,181.9
			C9.8,84.7,88.7,6.1,185.9,6.3l1972.4,3.4c97.1,0.2,175.8,79.1,175.6,176.2L2328.4,3352.1z"/>
	</defs>
	<clipPath id="SVGID_2_">
		<use xlink:href="#SVGID_1_"  style="overflow:visible;"/>
	</clipPath>
	<g class="st0">
		<path class="st1" d="M2341.4,3343.7c0,107.7-87.3,195.1-195.1,195.1H188.1c-107.7,0-195.1-87.3-195.1-195.1V179.2
			c0-107.7,87.3-195.1,195.1-195.1h1958.2c107.7,0,195.1,87.3,195.1,195.1V3343.7z"/>
		<g>
			<path class="st2" d="M2113.7,3216.2c0,58.1-46.9,105.2-104.7,105.2H325.5c-57.8,0-104.7-47.1-104.7-105.2V306.7
				c0-58.1,46.9-105.1,104.7-105.1H2009c57.8,0,104.7,47.1,104.7,105.1V3216.2z"/>
			<rect x="383.8" y="357.6" class="st3" width="1566.8" height="2800.9"/>
			<rect x="434.6" y="400.4" class="st4" width="1473.6" height="2717.9"/>
			<polygon class="st5" points="398.5,242 533,242 558.9,276.2 586.1,312.4 602.2,333.8 568.8,333.8 532.4,333.8 502.5,333.8 
				487.2,333.8 494,324.2 532.8,324.2 582.1,324.2 574.8,315.2 517.8,315.2 502.5,315.2 509.3,305.6 570.1,305.6 562.2,295.3 
				530.4,295.3 515.1,295.3 522,285.7 555.6,285.7 547.5,274.9 543.7,274.9 528.4,274.9 535.3,265.3 539.6,265.3 531.1,254 
				466.1,333.8 			"/>
			<polygon class="st5" points="556.7,242 691.3,242 717.1,276.2 744.4,312.4 760.5,333.8 727,333.8 690.7,333.8 660.7,333.8 
				645.4,333.8 652.3,324.2 691,324.2 740.4,324.2 733.1,315.2 676,315.2 660.7,315.2 667.6,305.6 728.3,305.6 720.4,295.3 
				688.6,295.3 673.3,295.3 680.2,285.7 713.9,285.7 705.7,274.9 702,274.9 686.7,274.9 693.6,265.3 697.9,265.3 689.4,254 
				624.4,333.8 			"/>
			<polygon class="st5" points="713.8,242 848.4,242 874.2,276.2 901.5,312.4 917.6,333.8 884.2,333.8 847.8,333.8 817.8,333.8 
				802.5,333.8 809.4,324.2 848.2,324.2 897.5,324.2 890.2,315.2 833.1,315.2 817.8,315.2 824.7,305.6 885.4,305.6 877.6,295.3 
				845.7,295.3 830.4,295.3 837.3,285.7 871,285.7 862.8,274.9 859.1,274.9 843.8,274.9 850.7,265.3 855,265.3 846.5,254 
				781.5,333.8 			"/>
			<polygon class="st5" points="872.1,242 1006.7,242 1032.5,276.2 1059.8,312.4 1075.9,333.8 1042.4,333.8 1006,333.8 976.1,333.8 
				960.8,333.8 967.7,324.2 1006.4,324.2 1055.7,324.2 1048.5,315.2 991.4,315.2 976.1,315.2 983,305.6 1043.7,305.6 1035.8,295.3 
				1004,295.3 988.7,295.3 995.6,285.7 1029.2,285.7 1021.1,274.9 1017.3,274.9 1002,274.9 1008.9,265.3 1013.3,265.3 1004.8,254 
				939.8,333.8 			"/>
			<polygon class="st5" points="1020.1,242 1154.7,242 1180.5,276.2 1207.8,312.4 1223.9,333.8 1190.4,333.8 1154.1,333.8 
				1124.1,333.8 1108.8,333.8 1115.7,324.2 1154.4,324.2 1203.8,324.2 1196.5,315.2 1139.4,315.2 1124.1,315.2 1131,305.6 
				1191.7,305.6 1183.8,295.3 1152,295.3 1136.7,295.3 1143.6,285.7 1177.2,285.7 1169.1,274.9 1165.4,274.9 1150.1,274.9 
				1156.9,265.3 1161.3,265.3 1152.8,254 1087.8,333.8 			"/>
			<polygon class="st5" points="1178.4,242 1313,242 1338.8,276.2 1366.1,312.4 1382.1,333.8 1348.7,333.8 1312.3,333.8 
				1282.4,333.8 1267.1,333.8 1274,324.2 1312.7,324.2 1362,324.2 1354.7,315.2 1297.7,315.2 1282.4,315.2 1289.3,305.6 1350,305.6 
				1342.1,295.3 1310.3,295.3 1295,295.3 1301.9,285.7 1335.5,285.7 1327.4,274.9 1323.6,274.9 1308.3,274.9 1315.2,265.3 
				1319.5,265.3 1311,254 1246,333.8 			"/>
			<polygon class="st5" points="1335.5,242 1470.1,242 1495.9,276.2 1523.2,312.4 1539.3,333.8 1505.8,333.8 1469.4,333.8 
				1439.5,333.8 1424.2,333.8 1431.1,324.2 1469.8,324.2 1519.1,324.2 1511.9,315.2 1454.8,315.2 1439.5,315.2 1446.4,305.6 
				1507.1,305.6 1499.2,295.3 1467.4,295.3 1452.1,295.3 1459,285.7 1492.6,285.7 1484.5,274.9 1480.7,274.9 1465.4,274.9 
				1472.3,265.3 1476.7,265.3 1468.1,254 1403.2,333.8 			"/>
			<polygon class="st5" points="1493.8,242 1628.3,242 1654.1,276.2 1681.4,312.4 1697.5,333.8 1664.1,333.8 1627.7,333.8 
				1597.7,333.8 1582.4,333.8 1589.3,324.2 1628.1,324.2 1677.4,324.2 1670.1,315.2 1613,315.2 1597.7,315.2 1604.6,305.6 
				1665.3,305.6 1657.5,295.3 1625.6,295.3 1610.3,295.3 1617.2,285.7 1650.9,285.7 1642.7,274.9 1639,274.9 1623.7,274.9 
				1630.6,265.3 1634.9,265.3 1626.4,254 1561.4,333.8 			"/>
			<polygon class="st5" points="1644,242 1778.5,242 1804.4,276.2 1831.7,312.4 1847.7,333.8 1814.3,333.8 1777.9,333.8 1748,333.8 
				1732.7,333.8 1739.6,324.2 1778.3,324.2 1827.6,324.2 1820.3,315.2 1763.3,315.2 1748,315.2 1754.8,305.6 1815.6,305.6 
				1807.7,295.3 1775.9,295.3 1760.6,295.3 1767.5,285.7 1801.1,285.7 1793,274.9 1789.2,274.9 1773.9,274.9 1780.8,265.3 
				1785.1,265.3 1776.6,254 1711.6,333.8 			"/>
			<polygon class="st5" points="1938.7,242 1867.4,333.8 1799.7,242 			"/>
			<polygon class="st5" points="1931.7,3278.9 1797.2,3278.9 1771.4,3244.7 1744.1,3208.5 1728,3187.1 1761.4,3187.1 1797.8,3187.1 
				1827.8,3187.1 1843,3187.1 1836.2,3196.7 1797.4,3196.7 1748.1,3196.7 1755.4,3205.7 1812.5,3205.7 1827.7,3205.7 1820.9,3215.3 
				1760.2,3215.3 1768,3225.6 1799.8,3225.6 1815.1,3225.6 1808.3,3235.2 1774.6,3235.2 1782.7,3246 1786.5,3246 1801.8,3246 
				1794.9,3255.6 1790.6,3255.6 1799.1,3266.9 1864.1,3187.1 			"/>
			<polygon class="st5" points="1773.5,3278.9 1638.9,3278.9 1613.1,3244.7 1585.8,3208.5 1569.7,3187.1 1603.2,3187.1 
				1639.6,3187.1 1669.5,3187.1 1684.8,3187.1 1677.9,3196.7 1639.2,3196.7 1589.9,3196.7 1597.1,3205.7 1654.2,3205.7 
				1669.5,3205.7 1662.6,3215.3 1601.9,3215.3 1609.8,3225.6 1641.6,3225.6 1656.9,3225.6 1650,3235.2 1616.4,3235.2 1624.5,3246 
				1628.2,3246 1643.5,3246 1636.7,3255.6 1632.3,3255.6 1640.8,3266.9 1705.8,3187.1 			"/>
			<polygon class="st5" points="1616.4,3278.9 1481.8,3278.9 1456,3244.7 1428.7,3208.5 1412.6,3187.1 1446.1,3187.1 1482.4,3187.1 
				1512.4,3187.1 1527.7,3187.1 1520.8,3196.7 1482.1,3196.7 1432.7,3196.7 1440,3205.7 1497.1,3205.7 1512.4,3205.7 1505.5,3215.3 
				1444.8,3215.3 1452.7,3225.6 1484.5,3225.6 1499.8,3225.6 1492.9,3235.2 1459.2,3235.2 1467.4,3246 1471.1,3246 1486.4,3246 
				1479.5,3255.6 1475.2,3255.6 1483.7,3266.9 1548.7,3187.1 			"/>
			<polygon class="st5" points="1458.1,3278.9 1323.5,3278.9 1297.7,3244.7 1270.4,3208.5 1254.4,3187.1 1287.8,3187.1 
				1324.2,3187.1 1354.1,3187.1 1369.4,3187.1 1362.5,3196.7 1323.8,3196.7 1274.5,3196.7 1281.7,3205.7 1338.8,3205.7 
				1354.1,3205.7 1347.2,3215.3 1286.5,3215.3 1294.4,3225.6 1326.2,3225.6 1341.5,3225.6 1334.6,3235.2 1301,3235.2 1309.1,3246 
				1312.9,3246 1328.2,3246 1321.3,3255.6 1317,3255.6 1325.5,3266.9 1390.4,3187.1 			"/>
			<polygon class="st5" points="1310.1,3278.9 1175.5,3278.9 1149.7,3244.7 1122.4,3208.5 1106.3,3187.1 1139.8,3187.1 
				1176.2,3187.1 1206.1,3187.1 1221.4,3187.1 1214.5,3196.7 1175.8,3196.7 1126.5,3196.7 1133.7,3205.7 1190.8,3205.7 
				1206.1,3205.7 1199.2,3215.3 1138.5,3215.3 1146.4,3225.6 1178.2,3225.6 1193.5,3225.6 1186.6,3235.2 1153,3235.2 1161.1,3246 
				1164.9,3246 1180.1,3246 1173.3,3255.6 1168.9,3255.6 1177.4,3266.9 1242.4,3187.1 			"/>
			<polygon class="st5" points="1151.8,3278.9 1017.3,3278.9 991.4,3244.7 964.1,3208.5 948.1,3187.1 981.5,3187.1 1017.9,3187.1 
				1047.8,3187.1 1063.1,3187.1 1056.3,3196.7 1017.5,3196.7 968.2,3196.7 975.5,3205.7 1032.5,3205.7 1047.8,3205.7 1041,3215.3 
				980.2,3215.3 988.1,3225.6 1019.9,3225.6 1035.2,3225.6 1028.3,3235.2 994.7,3235.2 1002.8,3246 1006.6,3246 1021.9,3246 
				1015,3255.6 1010.7,3255.6 1019.2,3266.9 1084.2,3187.1 			"/>
			<polygon class="st5" points="994.7,3278.9 860.1,3278.9 834.3,3244.7 807,3208.5 791,3187.1 824.4,3187.1 860.8,3187.1 
				890.7,3187.1 906,3187.1 899.1,3196.7 860.4,3196.7 811.1,3196.7 818.4,3205.7 875.4,3205.7 890.7,3205.7 883.8,3215.3 
				823.1,3215.3 831,3225.6 862.8,3225.6 878.1,3225.6 871.2,3235.2 837.6,3235.2 845.7,3246 849.5,3246 864.8,3246 857.9,3255.6 
				853.6,3255.6 862.1,3266.9 927,3187.1 			"/>
			<polygon class="st5" points="836.5,3278.9 701.9,3278.9 676.1,3244.7 648.8,3208.5 632.7,3187.1 666.1,3187.1 702.5,3187.1 
				732.5,3187.1 747.8,3187.1 740.9,3196.7 702.1,3196.7 652.8,3196.7 660.1,3205.7 717.2,3205.7 732.5,3205.7 725.6,3215.3 
				664.9,3215.3 672.7,3225.6 704.6,3225.6 719.9,3225.6 713,3235.2 679.3,3235.2 687.5,3246 691.2,3246 706.5,3246 699.6,3255.6 
				695.3,3255.6 703.8,3266.9 768.8,3187.1 			"/>
			<polygon class="st5" points="686.2,3278.9 551.7,3278.9 525.8,3244.7 498.6,3208.5 482.5,3187.1 515.9,3187.1 552.3,3187.1 
				582.2,3187.1 597.5,3187.1 590.7,3196.7 551.9,3196.7 502.6,3196.7 509.9,3205.7 566.9,3205.7 582.2,3205.7 575.4,3215.3 
				514.6,3215.3 522.5,3225.6 554.3,3225.6 569.6,3225.6 562.7,3235.2 529.1,3235.2 537.2,3246 541,3246 556.3,3246 549.4,3255.6 
				545.1,3255.6 553.6,3266.9 618.6,3187.1 			"/>
			<polygon class="st5" points="391.5,3278.9 462.8,3187.1 530.5,3278.9 			"/>
			<polygon class="st5" points="268.4,1912 268.4,1777.4 302.6,1751.6 338.8,1724.3 360.1,1708.2 360.1,1741.7 360.1,1778.1 
				360.1,1808 360.1,1823.3 350.6,1816.4 350.6,1777.7 350.6,1728.4 341.5,1735.6 341.5,1792.7 341.5,1808 331.9,1801.1 
				331.9,1740.4 321.6,1748.3 321.6,1780.1 321.6,1795.4 312.1,1788.5 312.1,1754.9 301.2,1763 301.2,1766.8 301.2,1782.1 
				291.6,1775.2 291.6,1770.8 280.3,1779.3 360.1,1844.3 			"/>
			<polygon class="st5" points="268.4,1753.7 268.4,1619.2 302.6,1593.4 338.8,1566.1 360.1,1550 360.1,1583.4 360.1,1619.8 
				360.1,1649.8 360.1,1665 350.6,1658.2 350.6,1619.4 350.6,1570.1 341.5,1577.4 341.5,1634.5 341.5,1649.7 331.9,1642.9 
				331.9,1582.2 321.6,1590 321.6,1621.8 321.6,1637.1 312.1,1630.3 312.1,1596.6 301.2,1604.7 301.2,1608.5 301.2,1623.8 
				291.6,1616.9 291.6,1612.6 280.3,1621.1 360.1,1686.1 			"/>
			<polygon class="st5" points="268.4,1596.6 268.4,1462.1 302.6,1436.2 338.8,1408.9 360.1,1392.9 360.1,1426.3 360.1,1462.7 
				360.1,1492.6 360.1,1507.9 350.6,1501.1 350.6,1462.3 350.6,1413 341.5,1420.3 341.5,1477.3 341.5,1492.6 331.9,1485.8 
				331.9,1425 321.6,1432.9 321.6,1464.7 321.6,1480 312.1,1473.1 312.1,1439.5 301.2,1447.6 301.2,1451.4 301.2,1466.7 
				291.6,1459.8 291.6,1455.5 280.3,1464 360.1,1529 			"/>
			<polygon class="st5" points="268.4,1438.4 268.4,1303.8 302.6,1278 338.8,1250.7 360.1,1234.6 360.1,1268.1 360.1,1304.4 
				360.1,1334.4 360.1,1349.7 350.6,1342.8 350.6,1304.1 350.6,1254.7 341.5,1262 341.5,1319.1 341.5,1334.4 331.9,1327.5 
				331.9,1266.8 321.6,1274.7 321.6,1306.5 321.6,1321.8 312.1,1314.9 312.1,1281.2 301.2,1289.4 301.2,1293.1 301.2,1308.4 
				291.6,1301.5 291.6,1297.2 280.3,1305.7 360.1,1370.7 			"/>
			<polygon class="st5" points="268.4,1290.3 268.4,1155.8 302.6,1130 338.8,1102.7 360.1,1086.6 360.1,1120 360.1,1156.4 
				360.1,1186.4 360.1,1201.6 350.6,1194.8 350.6,1156 350.6,1106.7 341.5,1114 341.5,1171.1 341.5,1186.4 331.9,1179.5 
				331.9,1118.8 321.6,1126.6 321.6,1158.4 321.6,1173.7 312.1,1166.9 312.1,1133.2 301.2,1141.3 301.2,1145.1 301.2,1160.4 
				291.6,1153.5 291.6,1149.2 280.3,1157.7 360.1,1222.7 			"/>
			<polygon class="st5" points="268.4,1132.1 268.4,997.5 302.6,971.7 338.8,944.4 360.1,928.3 360.1,961.8 360.1,998.2 
				360.1,1028.1 360.1,1043.4 350.6,1036.5 350.6,997.8 350.6,948.5 341.5,955.7 341.5,1012.8 341.5,1028.1 331.9,1021.2 
				331.9,960.5 321.6,968.4 321.6,1000.2 321.6,1015.5 312.1,1008.6 312.1,975 301.2,983.1 301.2,986.9 301.2,1002.1 291.6,995.3 
				291.6,990.9 280.3,999.4 360.1,1064.4 			"/>
			<polygon class="st5" points="268.4,975 268.4,840.4 302.6,814.6 338.8,787.3 360.1,771.2 360.1,804.7 360.1,841 360.1,871 
				360.1,886.3 350.6,879.4 350.6,840.7 350.6,791.3 341.5,798.6 341.5,855.7 341.5,871 331.9,864.1 331.9,803.4 321.6,811.3 
				321.6,843.1 321.6,858.4 312.1,851.5 312.1,817.9 301.2,826 301.2,829.7 301.2,845 291.6,838.2 291.6,833.8 280.3,842.3 
				360.1,907.3 			"/>
			<polygon class="st5" points="268.4,816.7 268.4,682.1 302.6,656.3 338.8,629 360.1,613 360.1,646.4 360.1,682.8 360.1,712.7 
				360.1,728 350.6,721.1 350.6,682.4 350.6,633.1 341.5,640.4 341.5,697.4 341.5,712.7 331.9,705.8 331.9,645.1 321.6,653 
				321.6,684.8 321.6,700.1 312.1,693.2 312.1,659.6 301.2,667.7 301.2,671.5 301.2,686.8 291.6,679.9 291.6,675.6 280.3,684.1 
				360.1,749 			"/>
			<polygon class="st5" points="268.4,3157.6 268.4,3023 302.6,2997.2 338.8,2969.9 360.1,2953.8 360.1,2987.3 360.1,3023.7 
				360.1,3053.6 360.1,3068.9 350.6,3062 350.6,3023.3 350.6,2974 341.5,2981.2 341.5,3038.3 341.5,3053.6 331.9,3046.7 331.9,2986 
				321.6,2993.9 321.6,3025.7 321.6,3041 312.1,3034.1 312.1,3000.5 301.2,3008.6 301.2,3012.4 301.2,3027.7 291.6,3020.8 
				291.6,3016.4 280.3,3024.9 360.1,3089.9 			"/>
			<polygon class="st5" points="268.4,2999.3 268.4,2864.8 302.6,2839 338.8,2811.7 360.1,2795.6 360.1,2829 360.1,2865.4 
				360.1,2895.4 360.1,2910.6 350.6,2903.8 350.6,2865 350.6,2815.7 341.5,2823 341.5,2880.1 341.5,2895.3 331.9,2888.5 
				331.9,2827.8 321.6,2835.6 321.6,2867.4 321.6,2882.7 312.1,2875.9 312.1,2842.2 301.2,2850.3 301.2,2854.1 301.2,2869.4 
				291.6,2862.5 291.6,2858.2 280.3,2866.7 360.1,2931.7 			"/>
			<polygon class="st5" points="268.4,2842.2 268.4,2707.7 302.6,2681.8 338.8,2654.5 360.1,2638.5 360.1,2671.9 360.1,2708.3 
				360.1,2738.2 360.1,2753.5 350.6,2746.7 350.6,2707.9 350.6,2658.6 341.5,2665.9 341.5,2722.9 341.5,2738.2 331.9,2731.4 
				331.9,2670.6 321.6,2678.5 321.6,2710.3 321.6,2725.6 312.1,2718.7 312.1,2685.1 301.2,2693.2 301.2,2697 301.2,2712.3 
				291.6,2705.4 291.6,2701.1 280.3,2709.6 360.1,2774.6 			"/>
			<polygon class="st5" points="268.4,2684 268.4,2549.4 302.6,2523.6 338.8,2496.3 360.1,2480.2 360.1,2513.7 360.1,2550 
				360.1,2580 360.1,2595.3 350.6,2588.4 350.6,2549.7 350.6,2500.3 341.5,2507.6 341.5,2564.7 341.5,2580 331.9,2573.1 
				331.9,2512.4 321.6,2520.3 321.6,2552.1 321.6,2567.4 312.1,2560.5 312.1,2526.8 301.2,2535 301.2,2538.7 301.2,2554 
				291.6,2547.1 291.6,2542.8 280.3,2551.3 360.1,2616.3 			"/>
			<polygon class="st5" points="268.4,2535.9 268.4,2401.4 302.6,2375.6 338.8,2348.3 360.1,2332.2 360.1,2365.6 360.1,2402 
				360.1,2432 360.1,2447.2 350.6,2440.4 350.6,2401.6 350.6,2352.3 341.5,2359.6 341.5,2416.7 341.5,2432 331.9,2425.1 
				331.9,2364.4 321.6,2372.2 321.6,2404 321.6,2419.3 312.1,2412.5 312.1,2378.8 301.2,2386.9 301.2,2390.7 301.2,2406 
				291.6,2399.1 291.6,2394.8 280.3,2403.3 360.1,2468.3 			"/>
			<polygon class="st5" points="268.4,2377.7 268.4,2243.1 302.6,2217.3 338.8,2190 360.1,2173.9 360.1,2207.4 360.1,2243.8 
				360.1,2273.7 360.1,2289 350.6,2282.1 350.6,2243.4 350.6,2194.1 341.5,2201.3 341.5,2258.4 341.5,2273.7 331.9,2266.8 
				331.9,2206.1 321.6,2214 321.6,2245.8 321.6,2261.1 312.1,2254.2 312.1,2220.6 301.2,2228.7 301.2,2232.5 301.2,2247.7 
				291.6,2240.9 291.6,2236.5 280.3,2245 360.1,2310 			"/>
			<polygon class="st5" points="268.4,2220.6 268.4,2086 302.6,2060.2 338.8,2032.9 360.1,2016.8 360.1,2050.3 360.1,2086.6 
				360.1,2116.6 360.1,2131.9 350.6,2125 350.6,2086.3 350.6,2036.9 341.5,2044.2 341.5,2101.3 341.5,2116.6 331.9,2109.7 
				331.9,2049 321.6,2056.9 321.6,2088.7 321.6,2104 312.1,2097.1 312.1,2063.5 301.2,2071.6 301.2,2075.3 301.2,2090.6 
				291.6,2083.8 291.6,2079.4 280.3,2087.9 360.1,2152.9 			"/>
			<polygon class="st5" points="268.4,2062.3 268.4,1927.7 302.6,1901.9 338.8,1874.6 360.1,1858.6 360.1,1892 360.1,1928.4 
				360.1,1958.3 360.1,1973.6 350.6,1966.7 350.6,1928 350.6,1878.7 341.5,1886 341.5,1943 341.5,1958.3 331.9,1951.4 331.9,1890.7 
				321.6,1898.6 321.6,1930.4 321.6,1945.7 312.1,1938.8 312.1,1905.2 301.2,1913.3 301.2,1917.1 301.2,1932.4 291.6,1925.5 
				291.6,1921.2 280.3,1929.7 360.1,1994.6 			"/>
			<polygon class="st5" points="268.4,666.5 268.4,531.9 302.6,506.1 338.8,478.8 360.1,462.7 360.1,496.2 360.1,532.6 360.1,562.5 
				360.1,577.8 350.6,570.9 350.6,532.2 350.6,482.9 341.5,490.1 341.5,547.2 341.5,562.5 331.9,555.6 331.9,494.9 321.6,502.8 
				321.6,534.6 321.6,549.9 312.1,543 312.1,509.4 301.2,517.5 301.2,521.3 301.2,536.5 291.6,529.7 291.6,525.3 280.3,533.8 
				360.1,598.8 			"/>
			<polygon class="st5" points="268.4,371.8 360.1,443.1 268.4,510.8 			"/>
			<polygon class="st5" points="2060.1,1617.4 2060.1,1751.9 2025.9,1777.7 1989.7,1805 1968.3,1821.1 1968.3,1787.7 1968.3,1751.3 
				1968.3,1721.4 1968.3,1706.1 1977.9,1712.9 1977.9,1751.7 1977.9,1801 1987,1793.7 1987,1736.6 1987,1721.4 1996.5,1728.2 
				1996.5,1789 2006.8,1781.1 2006.8,1749.3 2006.8,1734 2016.4,1740.9 2016.4,1774.5 2027.3,1766.4 2027.3,1762.6 2027.3,1747.3 
				2036.8,1754.2 2036.8,1758.5 2048.1,1750 1968.3,1685 			"/>
			<polygon class="st5" points="2060.1,1775.6 2060.1,1910.2 2025.9,1936 1989.7,1963.3 1968.3,1979.4 1968.3,1945.9 1968.3,1909.6 
				1968.3,1879.6 1968.3,1864.3 1977.9,1871.2 1977.9,1909.9 1977.9,1959.3 1987,1952 1987,1894.9 1987,1879.6 1996.5,1886.5 
				1996.5,1947.2 2006.8,1939.3 2006.8,1907.5 2006.8,1892.2 2016.4,1899.1 2016.4,1932.7 2027.3,1924.6 2027.3,1920.9 
				2027.3,1905.6 2036.8,1912.5 2036.8,1916.8 2048.1,1908.3 1968.3,1843.3 			"/>
			<polygon class="st5" points="2060.1,1932.7 2060.1,2067.3 2025.9,2093.1 1989.7,2120.4 1968.3,2136.5 1968.3,2103 1968.3,2066.7 
				1968.3,2036.7 1968.3,2021.4 1977.9,2028.3 1977.9,2067.1 1977.9,2116.4 1987,2109.1 1987,2052 1987,2036.7 1996.5,2043.6 
				1996.5,2104.3 2006.8,2096.5 2006.8,2064.6 2006.8,2049.3 2016.4,2056.2 2016.4,2089.9 2027.3,2081.7 2027.3,2078 2027.3,2062.7 
				2036.8,2069.6 2036.8,2073.9 2048.1,2065.4 1968.3,2000.4 			"/>
			<polygon class="st5" points="2060.1,2091 2060.1,2225.6 2025.9,2251.4 1989.7,2278.7 1968.3,2294.8 1968.3,2261.3 1968.3,2224.9 
				1968.3,2195 1968.3,2179.7 1977.9,2186.6 1977.9,2225.3 1977.9,2274.6 1987,2267.4 1987,2210.3 1987,2195 1996.5,2201.9 
				1996.5,2262.6 2006.8,2254.7 2006.8,2222.9 2006.8,2207.6 2016.4,2214.5 2016.4,2248.1 2027.3,2240 2027.3,2236.2 2027.3,2220.9 
				2036.8,2227.8 2036.8,2232.2 2048.1,2223.7 1968.3,2158.7 			"/>
			<polygon class="st5" points="2060.1,2239 2060.1,2373.6 2025.9,2399.4 1989.7,2426.7 1968.3,2442.8 1968.3,2409.3 1968.3,2373 
				1968.3,2343 1968.3,2327.7 1977.9,2334.6 1977.9,2373.3 1977.9,2422.7 1987,2415.4 1987,2358.3 1987,2343 1996.5,2349.9 
				1996.5,2410.6 2006.8,2402.7 2006.8,2370.9 2006.8,2355.6 2016.4,2362.5 2016.4,2396.1 2027.3,2388 2027.3,2384.3 2027.3,2369 
				2036.8,2375.8 2036.8,2380.2 2048.1,2371.7 1968.3,2306.7 			"/>
			<polygon class="st5" points="2060.1,2397.3 2060.1,2531.8 2025.9,2557.7 1989.7,2585 1968.3,2601 1968.3,2567.6 1968.3,2531.2 
				1968.3,2501.3 1968.3,2486 1977.9,2492.9 1977.9,2531.6 1977.9,2580.9 1987,2573.6 1987,2516.6 1987,2501.3 1996.5,2508.2 
				1996.5,2568.9 2006.8,2561 2006.8,2529.2 2006.8,2513.9 2016.4,2520.8 2016.4,2554.4 2027.3,2546.3 2027.3,2542.5 2027.3,2527.2 
				2036.8,2534.1 2036.8,2538.4 2048.1,2529.9 1968.3,2464.9 			"/>
			<polygon class="st5" points="2060.1,2554.4 2060.1,2689 2025.9,2714.8 1989.7,2742.1 1968.3,2758.2 1968.3,2724.7 1968.3,2688.3 
				1968.3,2658.4 1968.3,2643.1 1977.9,2650 1977.9,2688.7 1977.9,2738 1987,2730.8 1987,2673.7 1987,2658.4 1996.5,2665.3 
				1996.5,2726 2006.8,2718.1 2006.8,2686.3 2006.8,2671 2016.4,2677.9 2016.4,2711.5 2027.3,2703.4 2027.3,2699.6 2027.3,2684.3 
				2036.8,2691.2 2036.8,2695.6 2048.1,2687 1968.3,2622.1 			"/>
			<polygon class="st5" points="2060.1,2712.7 2060.1,2847.2 2025.9,2873 1989.7,2900.3 1968.3,2916.4 1968.3,2883 1968.3,2846.6 
				1968.3,2816.6 1968.3,2801.3 1977.9,2808.2 1977.9,2847 1977.9,2896.3 1987,2889 1987,2831.9 1987,2816.6 1996.5,2823.5 
				1996.5,2884.2 2006.8,2876.4 2006.8,2844.5 2006.8,2829.2 2016.4,2836.1 2016.4,2869.8 2027.3,2861.6 2027.3,2857.9 
				2027.3,2842.6 2036.8,2849.5 2036.8,2853.8 2048.1,2845.3 1968.3,2780.3 			"/>
			<polygon class="st5" points="2060.1,371.8 2060.1,506.3 2025.9,532.1 1989.7,559.4 1968.3,575.5 1968.3,542.1 1968.3,505.7 
				1968.3,475.8 1968.3,460.5 1977.9,467.3 1977.9,506.1 1977.9,555.4 1987,548.1 1987,491 1987,475.8 1996.5,482.6 1996.5,543.4 
				2006.8,535.5 2006.8,503.7 2006.8,488.4 2016.4,495.3 2016.4,528.9 2027.3,520.8 2027.3,517 2027.3,501.7 2036.8,508.6 
				2036.8,512.9 2048.1,504.4 1968.3,439.4 			"/>
			<polygon class="st5" points="2060.1,530 2060.1,664.6 2025.9,690.4 1989.7,717.7 1968.3,733.8 1968.3,700.3 1968.3,664 
				1968.3,634 1968.3,618.7 1977.9,625.6 1977.9,664.3 1977.9,713.7 1987,706.4 1987,649.3 1987,634 1996.5,640.9 1996.5,701.6 
				2006.8,693.7 2006.8,661.9 2006.8,646.6 2016.4,653.5 2016.4,687.1 2027.3,679 2027.3,675.3 2027.3,660 2036.8,666.8 
				2036.8,671.2 2048.1,662.7 1968.3,597.7 			"/>
			<polygon class="st5" points="2060.1,687.1 2060.1,821.7 2025.9,847.5 1989.7,874.8 1968.3,890.9 1968.3,857.4 1968.3,821.1 
				1968.3,791.1 1968.3,775.8 1977.9,782.7 1977.9,821.4 1977.9,870.8 1987,863.5 1987,806.4 1987,791.1 1996.5,798 1996.5,858.7 
				2006.8,850.9 2006.8,819 2006.8,803.7 2016.4,810.6 2016.4,844.3 2027.3,836.1 2027.3,832.4 2027.3,817.1 2036.8,824 
				2036.8,828.3 2048.1,819.8 1968.3,754.8 			"/>
			<polygon class="st5" points="2060.1,845.4 2060.1,980 2025.9,1005.8 1989.7,1033.1 1968.3,1049.2 1968.3,1015.7 1968.3,979.3 
				1968.3,949.4 1968.3,934.1 1977.9,941 1977.9,979.7 1977.9,1029 1987,1021.8 1987,964.7 1987,949.4 1996.5,956.3 1996.5,1017 
				2006.8,1009.1 2006.8,977.3 2006.8,962 2016.4,968.9 2016.4,1002.5 2027.3,994.4 2027.3,990.6 2027.3,975.3 2036.8,982.2 
				2036.8,986.6 2048.1,978.1 1968.3,913.1 			"/>
			<polygon class="st5" points="2060.1,993.4 2060.1,1128 2025.9,1153.8 1989.7,1181.1 1968.3,1197.2 1968.3,1163.7 1968.3,1127.4 
				1968.3,1097.4 1968.3,1082.1 1977.9,1089 1977.9,1127.7 1977.9,1177 1987,1169.8 1987,1112.7 1987,1097.4 1996.5,1104.3 
				1996.5,1165 2006.8,1157.1 2006.8,1125.3 2006.8,1110 2016.4,1116.9 2016.4,1150.5 2027.3,1142.4 2027.3,1138.7 2027.3,1123.4 
				2036.8,1130.2 2036.8,1134.6 2048.1,1126.1 1968.3,1061.1 			"/>
			<polygon class="st5" points="2060.1,1151.7 2060.1,1286.2 2025.9,1312.1 1989.7,1339.4 1968.3,1355.4 1968.3,1322 1968.3,1285.6 
				1968.3,1255.7 1968.3,1240.4 1977.9,1247.3 1977.9,1286 1977.9,1335.3 1987,1328 1987,1271 1987,1255.7 1996.5,1262.6 
				1996.5,1323.3 2006.8,1315.4 2006.8,1283.6 2006.8,1268.3 2016.4,1275.2 2016.4,1308.8 2027.3,1300.7 2027.3,1296.9 
				2027.3,1281.6 2036.8,1288.5 2036.8,1292.8 2048.1,1284.3 1968.3,1219.3 			"/>
			<polygon class="st5" points="2060.1,1308.8 2060.1,1443.4 2025.9,1469.2 1989.7,1496.5 1968.3,1512.6 1968.3,1479.1 
				1968.3,1442.7 1968.3,1412.8 1968.3,1397.5 1977.9,1404.4 1977.9,1443.1 1977.9,1492.4 1987,1485.2 1987,1428.1 1987,1412.8 
				1996.5,1419.7 1996.5,1480.4 2006.8,1472.5 2006.8,1440.7 2006.8,1425.4 2016.4,1432.3 2016.4,1465.9 2027.3,1457.8 2027.3,1454 
				2027.3,1438.7 2036.8,1445.6 2036.8,1450 2048.1,1441.4 1968.3,1376.5 			"/>
			<polygon class="st5" points="2060.1,1467.1 2060.1,1601.6 2025.9,1627.4 1989.7,1654.7 1968.3,1670.8 1968.3,1637.4 1968.3,1601 
				1968.3,1571 1968.3,1555.7 1977.9,1562.6 1977.9,1601.4 1977.9,1650.7 1987,1643.4 1987,1586.3 1987,1571 1996.5,1577.9 
				1996.5,1638.6 2006.8,1630.8 2006.8,1598.9 2006.8,1583.6 2016.4,1590.5 2016.4,1624.2 2027.3,1616 2027.3,1612.3 2027.3,1597 
				2036.8,1603.9 2036.8,1608.2 2048.1,1599.7 1968.3,1534.7 			"/>
			<polygon class="st5" points="2060.1,2862.9 2060.1,2997.4 2025.9,3023.3 1989.7,3050.6 1968.3,3066.6 1968.3,3033.2 
				1968.3,2996.8 1968.3,2966.9 1968.3,2951.6 1977.9,2958.5 1977.9,2997.2 1977.9,3046.5 1987,3039.2 1987,2982.2 1987,2966.9 
				1996.5,2973.7 1996.5,3034.5 2006.8,3026.6 2006.8,2994.8 2006.8,2979.5 2016.4,2986.4 2016.4,3020 2027.3,3011.9 2027.3,3008.1 
				2027.3,2992.8 2036.8,2999.7 2036.8,3004 2048.1,2995.5 1968.3,2930.5 			"/>
			<polygon class="st5" points="2060.1,3157.6 1968.3,3086.3 2060.1,3018.6 			"/>
			<g>
				<path class="st5" d="M1972.5,333.8L1972.5,333.8h-35.4h-29.9h-15.3l6.9-9.6h38.7h34.4l0-9h-49.4h-15.3l6.9-9.6h57l0-10.3h-35.9
					h-15.3l6.9-9.6h43.6l-0.1-10.9h-21.8h-15.3l6.9-9.6h4.3h25.2l-0.1-8.1l-21.8,0l8.2-11.2h97.2c0,0,7.3,0.8,7.3,9.1v100.3
					l-11.2,8.2l0-21.8l-8.1-0.1v25.2v4.3l-9.6,6.9v-15.3v-21.8l-10.9-0.1v43.6l-9.6,6.9V376v-35.9l-10.3,0v57l-9.6,6.9v-15.3v-49.4
					l-9,0v34.4v38.7l-9.6,6.9v-15.3V374v-36.4L1972.5,333.8z"/>
				<rect x="1996.4" y="273.4" class="st6" width="35.7" height="36.3"/>
			</g>
			<g>
				<path class="st5" d="M356.2,329.7L356.2,329.7v35.4v29.9v15.3l-9.6-6.9v-38.7v-34.4l-9,0v49.4v15.3l-9.6-6.9v-57l-10.3,0v35.9
					v15.3l-9.6-6.9V332l-10.9,0.1v21.8v15.3l-9.6-6.9v-4.3v-25.2l-8.1,0.1l0,21.8l-11.2-8.2v-97.2c0,0,0.8-7.3,9.1-7.3h100.3
					l8.2,11.2l-21.8,0l-0.1,8.1h25.2h4.3l6.9,9.6h-15.3h-21.8l-0.1,10.9h43.6l6.9,9.6h-15.3h-35.9l0,10.3h57l6.9,9.6H411h-49.4l0,9
					H396h38.7l6.9,9.6h-15.3h-29.9H360L356.2,329.7z"/>
				<rect x="295.8" y="270.1" class="st6" width="36.3" height="35.7"/>
			</g>
			<g>
				<path class="st5" d="M356.1,3190.8L356.1,3190.8h35.4h29.9h15.3l-6.9,9.6h-38.7h-34.4l0,9h49.4h15.3l-6.9,9.6h-57l0,10.3h35.9
					h15.3l-6.9,9.6h-43.6l0.1,10.9h21.8h15.3l-6.9,9.6h-4.3H359l0.1,8.1l21.8,0l-8.2,11.2h-97.2c0,0-7.3-0.8-7.3-9.1v-100.3
					l11.2-8.2l0,21.8l8.1,0.1v-25.2v-4.3l9.6-6.9v15.3v21.8l10.9,0.1v-43.6l9.6-6.9v15.3v35.9l10.3,0v-57l9.6-6.9v15.3v49.4l9,0
					v-34.4v-38.7l9.6-6.9v15.3v29.9v36.4L356.1,3190.8z"/>
				<rect x="296.5" y="3214.8" class="st6" width="35.7" height="36.3"/>
			</g>
			<g>
				<path class="st5" d="M1972.3,3191.2L1972.3,3191.2v-35.4v-29.9v-15.3l9.6,6.9v38.7v34.4l9,0v-49.4v-15.3l9.6,6.9v57l10.3,0
					v-35.9v-15.3l9.6,6.9v43.6l10.9-0.1v-21.8v-15.3l9.6,6.9v4.3v25.2l8.1-0.1l0-21.8l11.2,8.2v97.2c0,0-0.8,7.3-9.1,7.3h-100.3
					l-8.2-11.2l21.8,0l0.1-8.1h-25.2h-4.3l-6.9-9.6h15.3h21.8l0.1-10.9h-43.6l-6.9-9.6h15.3h35.9l0-10.3h-57l-6.9-9.6h15.3h49.4l0-9
					h-34.4h-38.7l-6.9-9.6h15.3h29.9h36.4L1972.3,3191.2z"/>
				<rect x="1996.4" y="3215" class="st6" width="36.3" height="35.7"/>
			</g>
			<g>
				<g>
					<polyline class="st6" points="1170.7,464.3 1117.7,547.8 1134.8,565.7 1134.7,537.6 1141.3,537.6 1142.1,577.5 1148.6,577.5 
						1148.5,529.9 1156.2,522.1 1156.3,585.3 1170.4,599.8 					"/>
					<path class="st6" d="M1170.2,646.5c0,0-62.9-172.4-241-177.8c0,0,191.8,53.5,90.9,332.6c0,0,43.6-30.6,44.4-183.5
						c0,0,18.3,68-11.9,156c0,0,32.2-36.4,30.7-133.8c0,0,13.6,61.5,0.3,114.3c0,0,17.6-18.7,19.9-84.5c0,0,12.6,43.6,0.4,94.8
						c0,0,17.4-16.1,17.8-78.4v-6.3c0,0,6.3,6.3,6.1,19.5l-1.1,78.4l5.7,10.1l5.4-9.9l3.6-87.2c0,0,1.7-4,3.8-2.9
						c2.1,1.1,2.9,2.9,2.5,6.1c-0.4,3.2,0,107.2,0,107.2l5,10.9l5.4-10.5l4-89.6c0,0,0.7-21.2,8.1-19.1"/>
					<path class="st6" d="M1169.6,882.7c0,0-27.8-52-81.7-84.1c0,0-15.3,3.4-46.3,104.7c0,0-44.3-48.9-101.3-66.9
						c0,0-14.1,7.6-24.8,111.6c0,0-52-36.3-112.4-35.6l8.4,18c0,0,57.7,0.8,120.4,51.2c0,0-4.2-74.9,18-119.7
						c0,0,45.1,5.4,105.9,79.5c0,0,7.3-79.1,37.1-111.2c0,0,42.6,26.4,76.7,81.4"/>
					<path class="st6" d="M763.8,714.9c0,0-10.7,73.9,22.9,159c0,0,21.9-9.7,35.2-52.5c0,0,43.3,53.5,59.6,42.8
						c16.3-10.7,17.8-53,12.7-74.9c0,0,43.8,30.1,74.4,12.2c0,0,13.8-45.9-13.8-78.5c0,0,40.8-8.7,54.5-34.7
						c0,0,1-134.6-141.7-117.2c0,0,65.6,9.9,89.7,38.6c0,0-36.7-17.2-74.2-17.2c0,0,63.1,31,90.2,62.7c0,0-41.2-31.7-87.7-39.8
						c0,0,56,40.1,69.7,57c0,0-30.5-17.8-69.7-32c0,0,46.4,40.8,53.7,51.5c0,0-32.1-21.4-60.4-27.5c0,0,29.8,30.2,38.2,44
						c0,0-27.9-23.3-46.3-29.8c0,0,50.1,54.3,58.1,86.4c0,0-38.9-54.5-65.3-70c-0.4-0.2-0.8-0.5-1.2-0.7c0,0,19.5,42.4,30.2,57
						c0,0-25.6-12.2-41.3-45.9c0,0-4.5,15.3,19.9,54.3c0,0-19.5-15.3-32.9-40.9c0,0-5,24.8,17.2,79.9c0,0-31-46.7-36.7-76.8
						c0,0-8,14.5,3.1,58.9c0,0-14.1-22.2-21.8-56.6c0,0-6.5,16.4,0.8,65.4c0,0-15.7-27.5-17.6-67.7c0,0-5,48.6,1.1,76.8
						C784.7,798.6,770.1,777.6,763.8,714.9z"/>
					<path class="st6" d="M769,682.8c0,0,2.3-66.5,67.3-100.9c0,0,42.1,24.8,6.5,83.3C842.8,665.2,805,721.8,769,682.8z"/>
					<path class="st6" d="M1009.5,606.3c0,0-19.6-150.1-196.4-120.3c0,0-247.2,83.6-152,434.5c0,0,56.7,170.2,224.8,330.8h13
						c0,0-122.6-120.5-179.2-239c0,0-26.8-48.2-46.6-113.9c-19.9-65.8-19.4-124.9-16.3-168.7c3.1-43.8,34.7-144.8,115.2-208
						c0,0-76.5,72.9-95.3,158c-18.9,85.1-16.1,210.4,64.2,342.2c0,0,86.2,141.4,175.4,229.4h17.8c0,0-107.5-114.4-167.2-216.9
						c0,0-114.4-185.3-77.6-338c0,0,8.8-83.5,98.5-163.6c0,0,89.7-71.4,170.2,5.1c0,0-77.3-59-156.9-4.7
						c-79.5,54.3-112,180.1-108.2,226.3c3.8,46.3,15.3,160.2,104.7,291.7c0,0,91,137,152.9,200h18c0,0-179.3-201.6-223.6-330
						c-44.3-128.4-58-208.7,17.2-339.5c0,0,31.7-39.2,56.2-47.9c0,0-48.4,42.3-66.3,79.5c-17.8,37.2-43.3,101.4-28.5,182
						c14.8,80.5,42.8,163.6,123.4,276.3l136.6,179.6h19.1c0,0-102.8-134.3-136.9-182.8c-34-48.6-104-139.5-126.2-274.1
						c-22.2-134.6,42.8-205.7,63.5-228.6C823.7,542.9,918.5,484.8,1009.5,606.3z"/>
					<path class="st6" d="M792.9,468.7c0,0-96.8-1.5-162.1,51.5l-26.5-51.5l-44.3,58.6c0,0-16.8-22.6-58.6-45.2
						c0,0,31.1,69.2,30.1,162.5L487,605.8l36.2,161.6l-36.2-24c0,0,32.6,106,35.2,156.5L485,882.1c0,0,9.2,90,71.9,177.8h30.6
						c0,0-17.8-44.2-41.3-68.7c0,0-18.3-16.3-26.5-58.6c0,0,16.3,31.6,34.7,52.5c0,0,3.6-5.6-4.6-35.7c-8.2-30.1-6.6-59.6-5.6-75.4
						c1-15.8-14.8-57.1-20.9-68.3l17.8,19.4c0,0,20.4-95.8-12.2-142.7c0,0,15.3,6.5,22.4,32.6c0,0,35.7-63.6-4.1-155.9l28.5,65.8
						c0,0,27-61.2,40.8-74.9c0,0-28,55.5-46.9,146.7c0,0,30.1-37.2,43.8-47.9c0,0-41.2,60.5-54,97.4l-4.1,92.3
						c0,0,21.9-31.9,35.2-39.6c0,0-31.6,51.7-35.7,68.1l2.5,81.6c0,0,25.5-32.1,33.6-41.3c0,0-39.8,63.7-13.3,113.2
						c0,0,13.3-115.2,46.4-146.3l-45.9,19.9c0,0,4.1-62.9,44.9-133c0,0-21.9,6.1-38.7,17.3c0,0-1.5-71.4,73.4-160
						c0,0-15.3-1.5-40.8,9.2C617,627.2,650.1,538,792.9,468.7z M577.1,596.2c0,0-10.7-26.6-10.3-40.1c0.4-13.6,12.4,23.9,14.3,31.3
						C583.1,594.9,578.5,599.7,577.1,596.2z M589.2,571.9c-8-8.2-9.4-31.3-9.4-31.3C585.2,545.9,597.2,580.2,589.2,571.9z
						 M599.1,556.9c-6.6-8.1-8.4-28.5-8.4-28.5C596.6,529.9,605.7,565,599.1,556.9z M608.9,537.9c-6.9-4.2-3.4-15.7-3.4-15.7
						C609,521.5,615.7,542.1,608.9,537.9z"/>
					<path class="st6" d="M701,1073.9c0,0-48.8-76.6-56.5-136.2c0,0-51,41.8-44.3,134.6c0,0-36.7-9.2-91.7,7.6
						c0,0,1.5,31.6,34.7,66.8c0,0-30.1,4.1-52,26.5c0,0,8.7,32.6,52,55c0,0-41.8,10.7-52,32.6c0,0,6.6,17.8,36.2,31.6
						c0,0-34.7,42.3-22.4,129.5c0,0,47.9-81.6,129-126.4C566,1136.4,701,1073.9,701,1073.9z M638.9,1089.8l-13.3-14.8l1.3,25.7
						l-34.7-7.4l22.4,24.2l-46.6-15.8l33.4,27.8l-47.9-13.5l42.5,28.3l-19.3,2.3l17.3,16.6l-21.7,4.3l17.8,11l-52.5,1.3l51.2,11.5
						l-45.1,4.6l44.6,10.7l-29.3,3.8l30.8,9.4l-15.8,3.1l15.3,12.7l-18.6,2.5l15,10.2l-37,4.6l35.2,8.2l-50.5,8.4l49.4,4.8
						l-28.3,8.9l26.8,0.5l-30.6,22.9l36.2-12.2l-34.9,29.6l50.5-21.9c-29.8,16.8-81.8,69.3-81.8,69.3c-1.3-49.2,26.8-79.8,26.8-79.8
						c-34.2-18.4-32.9-28.8-32.9-28.8c9.4-13,58.1-32.9,58.1-32.9c-46.9-23.3-58.1-52.5-58.1-52.5c19.9-11.2,56.1-20.6,56.1-20.6
						c-34.4-36.4-41-64-41-64c33.9-13.5,88.2-2.5,88.2-2.5c-10.7-89.2,21.2-113.4,21.2-113.4c15.3,41,44.8,92.8,44.8,92.8
						l-28.8-33.9l6.4,28l-24.2-39.2l11.7,52.5l-20.1-31.3L638.9,1089.8z"/>
					<path class="st6" d="M653.7,1135.9c-2.8,3.9-5.4,7.8-7.6,11.9c0,0,27.5,24.4,46.4,34.3c0,0,5,0.4,12.6,0.4L653.7,1135.9z"/>
					<path class="st6" d="M639.4,1162.1c-2.2,5.9-3.9,11.7-5.2,17.6l35.5,3.2L639.4,1162.1z"/>
					<path class="st6" d="M772.3,1165.5c-1.7,1.3-5.7,4-7.6,5.1c-30.8-26.2-62.2-75.2-62.2-75.2c3.2-1.7,6.4-3.3,9.9-4.8
						C712.3,1090.6,740.6,1130.5,772.3,1165.5z"/>
					<path class="st6" d="M746.1,1177.8c-40.8-32.9-64.2-69.7-64.2-69.7c3.4-2.4,6.9-4.8,10.7-7.1c0,0,25.5,40,63.5,73.6
						 M746.1,1177.8c3.4-0.9,6.7-1.9,9.9-3.2"/>
					<path class="st6" d="M733.9,1180.4c-4.5,0.7-9,1.2-13.2,1.5c-23.9-16.8-58.3-56.5-58.3-56.5c2.7-2.9,5.6-5.8,8.8-8.6
						C671.1,1116.8,713.2,1163.7,733.9,1180.4z"/>
					<path class="st6" d="M626,1209.6c0-4.8,0.2-9.5,0.7-14.1c0,0,36.6-3.8,57.7-0.8c0,0,4.3,2.6,10.5,7L626,1209.6z"/>
					<path class="st6" d="M739.6,1254.7c-0.7-2-2.3-6.6-3.2-8.6c-40.3,3.3-94.4,24.8-94.4,24.8c1.6,3.2,3.3,6.4,5.2,9.7
						C647.2,1280.6,693.4,1264.6,739.6,1254.7z"/>
					<path class="st6" d="M731.7,1237.8c-50.4,5.1-94.5,22.8-94.5,22.8c-1.7-4.1-3.2-8.1-4.5-12c0,0,40.5-16.2,92.8-19.1
						 M731.7,1237.8c-1.9-2.9-4-5.7-6.2-8.4"/>
					<path class="st6" d="M717,1220.2c-3.3-3.2-6.6-6.2-9.8-9c-29.2-0.3-80.3,12-80.3,12c0.5,3.9,1.2,8,2.1,12.1
						C629,1235.3,690.6,1221.7,717,1220.2z"/>
					<path class="st6" d="M708.8,1193.6c0,0,28.3,22.6,41.9,55.5h18.2c0,0-8.2-30.8-24.1-42.8c0,0,31.5-3.2,46.4-12.7l-10.1-13.1
						C781.1,1180.5,751.1,1195.1,708.8,1193.6z"/>
					<polygon class="st6" points="770.4,1215.9 787.2,1246.1 841.5,1243 805.9,1206.5 					"/>
					<path class="st6" d="M1169.3,985.9c0,0-68.8-8.4-96.7,76.1c0,0-49.3-56.6-94.8-29.8c0,0-45.1,26-29.4,100.9
						c0,0-80.3-97.5-113.9-160.9l78.8,99.8l-63.8-112.8l73,99l-48.5-97.1l53.5,73.8l-27.5-63.5l38.2,47.8l-14.1-34l31.7,32.5
						l-14.5-42.4l25.6,26l-21.8-62.3l32.1,47.4l-26-80.1l43,71.7l-30.8-90.6l46.3,81.6l-21-72.4l41.1,80.5l-13.4-60.8l32.3,65.6
						l-3.6-39l18.2,33.6l-0.6-38.8l14.5,27.7l-5.4-64.4l17.6,45.9l-5.2-77.6l19.5,71.7l-3.6-93.5l20.1,90.4l1.7-71l16.1,74.9
						l4.8-49.3l13,50.3l5.5-34.2l8.4,21.4"/>
					<path class="st6" d="M957.3,1122.6c0,0,12.2,6.5,15.9,18.3l-7.9-0.8C965.2,1140.2,962.9,1129.1,957.3,1122.6z"/>
					<path class="st6" d="M957.3,1096c0,0,32.1,13.8,49.7,58.3l-15.9-6.1C991.1,1148.2,977,1116.5,957.3,1096z"/>
					<path class="st6" d="M1023.1,1165l18,11.1c0,0-24.8-72.6-77.6-109.1C963.4,1067,1007.3,1123.3,1023.1,1165z"/>
					<path class="st6" d="M978.7,1048.3c0,0,52.6,17.2,93.9,148.7l-17.6-9.6C1055,1187.4,1042.2,1120.1,978.7,1048.3z"/>
					<path class="st6" d="M1089.8,1212.1l-9.4-14c0,0-2-65-70.8-155.7c0,0,47,20.8,85.6,154.6L1089.8,1212.1z"/>
					<path class="st6" d="M1050.5,1056.7c0,0,38.4,61.9,52.8,129.2l7.8-16.8C1111.2,1169.1,1082.6,1088.5,1050.5,1056.7"/>
					<path class="st6" d="M1115.6,1164.7l8.6-12c0,0-17.3-72.5-42.1-88.7C1082.1,1063.9,1116.5,1141.5,1115.6,1164.7z"/>
					<path class="st6" d="M1132.8,1143.6l5.4-11.7c0,0-19.4-73.4-38.2-98.1C1100,1033.7,1108.9,1081.4,1132.8,1143.6z"/>
					<path class="st6" d="M1145.1,1124.5l6.1-10.2c0,0-8.9-78.3-27-103C1124.2,1011.3,1142,1108.1,1145.1,1124.5z"/>
					<path class="st6" d="M1156.3,1111.7h5.9c0,0-6.1-104.5-11-112.6c0,0-4.5,4.8-4.5,29.1l7.7,83.5H1156.3z"/>
					<path class="st6" d="M1168.9,1127.3c0,0-54.7,47.1-78,109.1c0,0-56.4-62.5-127.5-83.7c0,0,58.3,65,109.1,153.3l-4.2-45.1
						l26.8,92.9V1278l21.4,118.9l5-128.4l18,182l5-213.3l12.6,256.5l11.4-174.3"/>
					<polygon class="st6" points="923.1,1283.7 923.1,1421 957.9,1438.9 957.9,1314.7 1042.7,1314.4 1023.3,1283.7 					"/>
					<path class="st6" d="M1163.5,1665.6c0,0,13.1-114.3-94.4-316.1h-15.8C1053.3,1349.5,1148.2,1500.8,1163.5,1665.6z"/>
					<path class="st6" d="M1010.6,1346.4h18.7c0,0,126.2,197.3,122.3,324.2C1151.7,1670.6,1130.8,1536.1,1010.6,1346.4z"/>
					<path class="st6" d="M990.6,1359.2v30.6c0,0,108.6,130.5,143.7,283.9C1134.4,1673.7,1147.1,1567.1,990.6,1359.2z"/>
					<path class="st6" d="M977.4,1493.6h23.3c0,0,98.1,84.2,108,204.5C1108.7,1698.1,1071.7,1565.4,977.4,1493.6z"/>
					<path class="st6" d="M990.6,1429.8v23.7c0,0,31.9,22.9,43.3,40.1h-11.9c0,0,73,79.5,98.2,193.8
						C1120.4,1687.4,1110.9,1543.2,990.6,1429.8z"/>
					<polygon class="st6" points="888.1,1263.5 888.1,1279.9 860.2,1267.3 					"/>
					<path class="st6" d="M888.1,1294.6v13.2c0,0-33.8-20.1-70.7-18.3C817.4,1289.5,837.8,1271.5,888.1,1294.6z"/>
					<path class="st6" d="M888.1,1322.7v15.7c0,0-39.9-19.1-99.6-23.3C788.5,1315.1,818.3,1295.2,888.1,1322.7z"/>
					<path class="st6" d="M888.1,1351.8v17.2c0,0-46.1-26-117.7-15.7C770.4,1353.3,792.4,1321.2,888.1,1351.8z"/>
					<path class="st6" d="M888.1,1381.6v14.9c0,0-69-25.6-128.6-5C759.5,1391.5,799.6,1350.3,888.1,1381.6z"/>
					<path class="st6" d="M888.1,1406.5v15.4c0,0-72.1-10.8-128.6,5.2C759.5,1427.1,801.5,1389.2,888.1,1406.5z"/>
					<path class="st6" d="M894.3,1449.9c0,0-11.7,167.2,100.7,237.5c0,0-42.4-45.1-58.9-102.8c0,0,40.5,76.8,84.5,108.2
						c0,0-51.6-70-68.8-115.4c0,0,83.7,116.6,87.9,120.8c0,0-24.5-73.4-88.3-142.6c0,0,73.8,55.4,111.2,152.9
						c0,0-13.4-97.5-125.8-187.7c0,0,119.3,70,149.2,198.5c0,0,6-80-75.4-160.6c0,0-32.5-31.3-66.1-53.9
						C944.5,1504.7,920.9,1488.8,894.3,1449.9z"/>
					<path class="st6" d="M788.5,1274.1c0,0-181.9-4-265.6,175.9c0,0-44.8,105.3,17.1,211.9l48.4,22.6l-9.7,7.1l-87.7-39.7
						l51.5,89.6c0,0,24-30.6,63.7-48.9c0,0-117.5-216.8,121.1-278l1.8-18c0,0-118.8,16.7-157,129.3c0,0-20.4,51.5,10.2,141.7
						c0,0-64.5-125.4,28-228.6c0,0,34.7-43.4,121.3-69.1v-11.7c0,0-249,48.7-168.7,301c0,0-68-122.3,19.9-228.6
						c0,0,43.6-65.8,162.9-94l13.8-19.9c0,0-161.3,13.8-215.6,156c0,0-35.9,89.4,3.1,179.3c0,0-73.3-132.3,24.5-255.3
						c0,0,73.4-95,206-106.2L788.5,1274.1z"/>
					<path class="st6" d="M561.5,1762c0,0,27.1-54.3,89.8-78.8c0,0-37.8-84.1-23.7-142.6c0,0,71.1-6.5,127.3,40.5
						c0,0-14.9-56.6-8-106.7c0,0,70-11.1,138.8,44l-2.3,12.6c0,0-61.2-40.5-120.8-40.1c0,0-5,57.3,13,116.6
						c0,0-60.7-44.5-127.9-44.5c0,0-4.1,77,26.5,124.9c0,0-72.9,36.5-85.6,74"/>
					<path class="st6" d="M751.6,1761.8c0,0-0.1-71.3,74.4-74.4c0,0-19.9-51,3.1-79c0,0,29.6-32.6,73.9-8.2c0,0-11.4-32.1-15.8-58.1
						c0,0-4.3,13.3-3.8,22.9c0,0-5.9-17.8-31.9-42.1c0,0,11.5,23.7,14.5,37.5c0,0-18.7-26.8-43.1-46.1l25.2,48.9l-56.6-55.6
						l41.5,65.2l-53.5-51.2l36.4,58.6l-39.8-36.7l33.4,51.2l-30.6-19.6l26,40.8l-22.4-12.5l10.2,24.2l-40-26l26,38l-60.4-49.7
						l41.3,55l-83.3-67.8l70.1,76.7l-83.1-69.3l76.5,83.8l-75.2-56.3l67.5,67l-61.9-34.2l56.1,49.2l-49.4-22.7l51.5,44.3l-60.9-15.5
						l51,27.5c0,0-45.4-11.7-73.9-6.6l57.1,18.1l-84.4,5.9l90.5,16.6"/>
					<path class="st6" d="M913.2,1615.3c-5.9-2.8-16.1-11.5-16.1-11.5l-3.2,2.3c0,0,11.3,11.7,20.2,13L913.2,1615.3z"/>
					<path class="st6" d="M872.4,1600.5l-5.6,4.6c0,0,33.4,27.8,59.9,38.7l-1.8-7.9C924.9,1635.9,894.8,1622.2,872.4,1600.5z"/>
					<path class="st6" d="M948.1,1671.6c-54-12.7-98.9-56.3-98.9-56.3l7.1-6.4c0,0,41.9,38.6,84.4,51.5L948.1,1671.6z"/>
					<path class="st6" d="M840,1626.3l-6.6,8.6c0,0,65.8,54.1,138.6,57.5l-14.5-9.2C957.5,1683.1,888.4,1666.3,840,1626.3z"/>
					<path class="st6" d="M835.4,1653c0,0-4.1,11.7,13.8,21.7c17.8,9.9,73.7,32.6,109.6,25.2C958.8,1699.9,903.9,1695.1,835.4,1653z
						"/>
					<path class="st6" d="M931.5,1711.1c-38.7-2.3-87.7-24.7-87.7-24.7l-4.8,5.9C839,1692.3,891.7,1717.5,931.5,1711.1"/>
					<path class="st6" d="M812,1695.3l-9.9,6c0,0,57.3,31.9,110.9,22.8C912.9,1724.1,850.7,1719.3,812,1695.3z"/>
					<path class="st6" d="M790.3,1710.6l-7.4,8.7c0,0,55,26.8,115.7,16.4C898.6,1735.6,819.1,1729.9,790.3,1710.6z"/>
					<path class="st6" d="M777.4,1733.3l-4.9,15.3c0,0,63.5,10.4,111.6,1.8C884.1,1750.4,798.2,1746.3,777.4,1733.3z"/>
					<path class="st6" d="M893.9,1761.7c0,0,55.9-90.8,175.7-35.9c0,0-54.6-8.3-89.2-4.1l73,14.1l-90.6,2.9l101.3,10.1l-85.8,12.8"
						/>
					<polyline class="st6" points="1170.7,464.3 1223.3,548.1 1206.1,565.9 1206.3,537.8 1199.7,537.8 1198.7,577.6 1192.2,577.6 
						1192.6,530 1185,522.2 1184.5,585.4 1170.4,599.8 					"/>
					<path class="st6" d="M1170.2,646.5c0,0,63.8-172.1,242-176.5c0,0-192.1,52.5-92.7,332.1c0,0-43.5-30.8-43.4-183.7
						c0,0-18.7,67.9,11,156c0,0-32-36.6-30-134c0,0-14,61.5-0.9,114.3c0,0-17.5-18.8-19.4-84.6c0,0-12.9,43.5-0.9,94.8
						c0,0-17.3-16.1-17.4-78.5l0-6.3c0,0-6.3,6.3-6.2,19.5l0.7,78.4l-5.8,10.1l-5.3-10l-3.2-87.2c0,0-1.7-4-3.8-2.9
						c-2.1,1.1-2.9,2.9-2.5,6.1c0.4,3.3-0.6,107.2-0.6,107.2l-5,10.9l-5.3-10.5l-3.5-89.7c0,0-0.6-21.2-8-19.2"/>
					<path class="st6" d="M1169.6,882.7c0,0,28.1-51.8,82.2-83.7c0,0,15.3,3.5,45.7,105c0,0,44.6-48.7,101.7-66.4
						c0,0,14.1,7.7,24.2,111.8c0,0,52.2-36,112.6-34.9l-8.5,17.9c0,0-57.7,0.5-120.7,50.6c0,0,4.6-74.9-17.3-119.7
						c0,0-45.1,5.1-106.3,78.9c0,0-6.8-79.2-36.5-111.4c0,0-42.8,26.1-77.2,81"/>
					<path class="st6" d="M1576.3,717.1c0,0,10.3,74-23.8,158.9c0,0-21.9-9.8-34.9-52.7c0,0-43.6,53.3-59.9,42.5
						c-16.3-10.8-17.6-53.1-12.3-75c0,0-44,29.8-74.5,11.8c0,0-13.5-45.9,14.2-78.4c0,0-40.7-8.9-54.4-35c0,0-0.3-134.6,142.3-116.5
						c0,0-65.7,9.6-89.9,38.1c0,0,36.8-17,74.3-16.8c0,0-63.2,30.6-90.6,62.2c0,0,41.4-31.5,87.9-39.3c0,0-56.2,39.8-70.1,56.6
						c0,0,30.6-17.6,69.9-31.6c0,0-46.6,40.6-54,51.2c0,0,32.2-21.2,60.5-27.2c0,0-30,30-38.5,43.8c0,0,28-23.2,46.4-29.6
						c0,0-50.4,54-58.6,86.1c0,0,39.2-54.3,65.7-69.7c0.4-0.2,0.8-0.5,1.2-0.7c0,0-19.7,42.3-30.5,56.8c0,0,25.7-12.1,41.5-45.7
						c0,0,4.5,15.4-20.2,54.2c0,0,19.6-15.2,33.1-40.7c0,0,4.8,24.9-17.6,79.8c0,0,31.2-46.5,37.1-76.6c0,0,7.9,14.6-3.4,58.9
						c0,0,14.3-22.1,22.1-56.5c0,0,6.4,16.5-1.1,65.4c0,0,15.8-27.5,18-67.6c0,0,4.7,48.6-1.6,76.8
						C1554.9,800.7,1569.7,779.8,1576.3,717.1z"/>
					<path class="st6" d="M1571.2,685c0,0-1.9-66.5-66.7-101.3c0,0-42.2,24.6-6.9,83.3C1497.5,667,1535.1,723.8,1571.2,685z"/>
					<path class="st6" d="M1331.2,607.2c0,0,20.4-150,197.1-119.2c0,0,246.8,85,149.7,435.4c0,0-57.6,169.9-226.6,329.6l-13-0.1
						c0,0,123.2-119.9,180.5-238.1c0,0,27-48,47.2-113.7c20.2-65.6,20-124.8,17.2-168.6c-2.8-43.9-33.9-144.9-114.1-208.6
						c0,0,76.1,73.3,94.5,158.5c18.4,85.2,15,210.5-66,341.9c0,0-86.9,140.9-176.6,228.4l-17.8-0.1c0,0,108.2-113.8,168.4-215.9
						c0,0,115.4-184.7,79.5-337.6c0,0-8.4-83.6-97.7-164.1c0,0-89.3-71.8-170.3,4.2c0,0,77.7-58.6,156.9-3.9
						c79.2,54.7,111,180.7,107,226.9c-4.1,46.2-16.2,160.1-106.3,291.1c0,0-91.7,136.6-154,199.2l-18-0.1
						c0,0,180.4-200.6,225.4-328.8c45-128.2,59.2-208.4-15.4-339.6c0,0-31.5-39.4-55.9-48.2c0,0,48.2,42.6,65.8,79.9
						c17.6,37.3,42.8,101.7,27.6,182.1c-15.2,80.5-43.7,163.4-124.8,275.6l-137.6,178.9l-19.1-0.1c0,0,103.6-133.7,137.8-182.1
						c34.3-48.4,104.7-139,127.6-273.4c22.9-134.4-41.7-205.9-62.2-228.9C1517.3,544.7,1422.8,486.1,1331.2,607.2z"/>
					<path class="st6" d="M1723.5,630.2c-25.4-10.8-40.7-9.4-40.7-9.4c74.4,89.1,72.5,160.4,72.5,160.4
						c-16.8-11.3-38.6-17.5-38.6-17.5c40.4,70.4,44.1,133.3,44.1,133.3l-45.8-20.1c33,31.3,45.6,146.5,45.6,146.5
						c26.8-49.3-12.6-113.2-12.6-113.2c8.1,9.2,33.4,41.5,33.4,41.5l3-81.6c-4-16.4-35.3-68.3-35.3-68.3c13.2,7.8,35,39.8,35,39.8
						l-3.6-92.3c-12.6-36.9-53.5-97.6-53.5-97.6c13.7,10.8,43.6,48.1,43.6,48.1c-18.4-91.4-46.1-147-46.1-147
						c13.7,13.8,40.4,75.1,40.4,75.1l28.9-65.6c-40.3,92-4.9,155.9-4.9,155.9c7.3-26,22.6-32.4,22.6-32.4
						c-32.9,46.7-13,142.7-13,142.7l17.9-19.3c-6.2,11.2-22.2,52.4-21.3,68.2c0.9,15.8,2.3,45.4-6,75.4c-8.3,30-4.8,35.7-4.8,35.7
						c18.5-20.8,34.9-52.3,34.9-52.3c-8.4,42.3-26.8,58.5-26.8,58.5c-23.6,24.3-41.7,68.5-41.7,68.5l30.6,0.2
						c63.2-87.4,72.8-177.4,72.8-177.4l-37.3,17.6c2.8-50.4,36-156.3,36-156.3l-36.3,23.8l37.1-161.4l-44.6,38.5
						c-0.5-93.3,30.9-162.3,30.9-162.3c-41.9,22.3-58.9,44.9-58.9,44.9l-44-58.9l-26.8,51.3c-65-53.4-161.8-52.4-161.8-52.4
						C1690.9,540.8,1723.5,630.2,1723.5,630.2z M1759.6,590.6c2-7.4,14.2-44.8,14.5-31.3c0.3,13.6-10.5,40.1-10.5,40.1
						C1762.2,602.9,1757.7,598,1759.6,590.6z M1761.2,543.8c0,0-1.5,23.1-9.5,31.3C1743.6,583.3,1755.8,549.1,1761.2,543.8z
						 M1750.4,531.5c0,0-2,20.4-8.6,28.5C1735.2,568,1744.4,533,1750.4,531.5z M1735.7,525.3c0,0,3.4,11.5-3.5,15.7
						C1725.3,545.1,1732.1,524.5,1735.7,525.3z"/>
					<path class="st6" d="M1703.1,1298.3c80.8,45.3,128.3,127.1,128.3,127.1c12.7-87.1-21.7-129.6-21.7-129.6
						c29.6-13.6,36.4-31.4,36.4-31.4c-10.1-22-51.8-32.9-51.8-32.9c43.4-22.2,52.3-54.8,52.3-54.8c-21.8-22.5-51.8-26.8-51.8-26.8
						c33.3-35,35-66.6,35-66.6c-55-17.1-91.7-8.1-91.7-8.1c7.1-92.7-43.6-134.8-43.6-134.8c-8,59.6-57.2,135.9-57.2,135.9
						S1771.8,1139.7,1703.1,1298.3z M1709.3,1048.6l-20.3,31.2l12-52.4l-24.4,39.1l6.5-28l-29,33.7c0,0,29.8-51.6,45.3-92.5
						c0,0,31.8,24.4,20.6,113.5c0,0,54.3-10.7,88.2,3c0,0-6.8,27.5-41.4,63.7c0,0,36.1,9.6,56,20.9c0,0-11.3,29.1-58.4,52.2
						c0,0,48.6,20.1,57.9,33.2c0,0,1.2,10.5-33,28.6c0,0,27.9,30.7,26.3,79.9c0,0-51.7-52.8-81.4-69.8l50.3,22.2l-34.8-29.8
						l36.1,12.4l-30.5-23.1l26.8-0.4l-28.2-9.1l49.5-4.6l-50.4-8.7l35.2-8l-36.9-4.8l15.1-10.1l-18.6-2.6l15.4-12.7l-15.8-3.1
						l30.9-9.3l-29.3-4l44.7-10.5l-45.1-4.8l51.3-11.2l-52.5-1.6l17.9-10.9l-21.6-4.5l17.4-16.5l-19.3-2.4l42.6-28.1l-48,13.2
						l33.5-27.6l-46.7,15.5l22.6-24.1l-34.7,7.2l1.4-25.7l-13.3,14.7L1709.3,1048.6z"/>
					<path class="st6" d="M1684.1,1138.6c2.8,3.9,5.3,7.9,7.5,11.9c0,0-27.6,24.2-46.6,34.1c0,0-5,0.4-12.6,0.4L1684.1,1138.6z"/>
					<path class="st6" d="M1698.2,1165c2.2,5.9,3.9,11.8,5.1,17.6l-35.5,3L1698.2,1165z"/>
					<path class="st6" d="M1565.4,1167.7c1.7,1.3,5.7,4,7.6,5.1c31-26,62.6-74.9,62.6-74.9c-3.1-1.7-6.4-3.3-9.8-4.9
						C1625.7,1093,1597.3,1132.8,1565.4,1167.7z"/>
					<path class="st6" d="M1581.5,1176.9c38.2-33.4,63.9-73.3,63.9-73.3c3.8,2.3,7.3,4.7,10.7,7.2c0,0-23.7,36.6-64.6,69.3
						 M1581.5,1176.9c3.2,1.3,6.5,2.3,9.9,3.2"/>
					<path class="st6" d="M1603.7,1182.7c4.5,0.7,9,1.3,13.2,1.6c24-16.7,58.6-56.2,58.6-56.2c-2.7-2.9-5.6-5.8-8.7-8.6
						C1666.8,1119.5,1624.4,1166.2,1603.7,1182.7z"/>
					<path class="st6" d="M1711.4,1212.6c0.1-4.8-0.2-9.5-0.7-14.1c0,0-36.5-4-57.7-1.1c0,0-4.3,2.5-10.5,7L1711.4,1212.6z"/>
					<path class="st6" d="M1597.6,1257c0.7-2,2.3-6.6,3.3-8.5c40.3,3.5,94.3,25.3,94.3,25.3c-1.6,3.2-3.4,6.4-5.2,9.7
						C1689.9,1283.4,1643.7,1267.2,1597.6,1257z"/>
					<path class="st6" d="M1611.8,1231.8c52.3,3.2,92.7,19.6,92.7,19.6c-1.3,3.9-2.9,7.9-4.6,12c0,0-44-17.9-94.4-23.3
						 M1611.8,1231.8c-2.2,2.7-4.4,5.5-6.3,8.4"/>
					<path class="st6" d="M1620.3,1222.7c3.3-3.2,6.6-6.2,9.9-8.9c29.2-0.1,80.2,12.4,80.2,12.4c-0.5,3.9-1.2,8-2.2,12.1
						C1708.3,1238.2,1646.8,1224.3,1620.3,1222.7z"/>
					<path class="st6" d="M1628.7,1196.1c0,0-28.4,22.5-42.2,55.3l-18.2-0.1c0,0,8.4-30.7,24.3-42.7c0,0-31.5-3.4-46.4-12.9
						l10.2-13.1C1556.5,1182.6,1586.4,1197.3,1628.7,1196.1z"/>
					<polygon class="st6" points="1567,1218 1550,1248.2 1495.8,1244.8 1531.5,1208.5 					"/>
					<path class="st6" d="M1169.3,985.9c0,0,68.9-8,96.3,76.6c0,0,49.6-56.3,95-29.3c0,0,45,26.2,28.9,101.1
						c0,0,80.8-97,114.8-160.3l-79.3,99.3l64.4-112.4l-73.5,98.6l49.1-96.8l-53.9,73.5l27.9-63.3l-38.5,47.6l14.3-33.9l-31.9,32.3
						l14.8-42.4l-25.8,25.9l22.1-62.2l-32.4,47.2l26.4-79.9l-43.4,71.4l31.3-90.4l-46.7,81.4l21.4-72.3l-41.5,80.2l13.7-60.7
						l-32.7,65.4l3.8-39l-18.3,33.5l0.8-38.8l-14.7,27.6l5.7-64.4l-17.8,45.8l5.6-77.6l-19.9,71.6l4.1-93.4l-20.6,90.3l-1.3-71.1
						l-16.5,74.8l-4.5-49.3l-13.3,50.2l-5.4-34.2l-8.5,21.4"/>
					<path class="st6" d="M1380.6,1123.7c0,0-12.3,6.4-16,18.3l7.9-0.7C1372.5,1141.3,1375,1130.2,1380.6,1123.7z"/>
					<path class="st6" d="M1380.7,1097.2c0,0-32.2,13.6-50,58l15.9-6C1346.6,1149.2,1360.9,1117.5,1380.7,1097.2z"/>
					<path class="st6" d="M1314.6,1165.8l-18,11c0,0,25.2-72.5,78.2-108.7C1374.8,1068.1,1330.6,1124.2,1314.6,1165.8z"/>
					<path class="st6" d="M1359.6,1049.3c0,0-52.7,16.9-94.7,148.2l17.6-9.5C1282.5,1188,1295.7,1120.8,1359.6,1049.3z"/>
					<path class="st6" d="M1247.6,1212.5l9.5-14c0,0,2.4-65,71.7-155.3c0,0-47.1,20.5-86.5,154.1L1247.6,1212.5z"/>
					<path class="st6" d="M1287.7,1057.3c0,0-38.7,61.7-53.5,128.9l-7.7-16.9C1226.5,1169.4,1255.4,1089,1287.7,1057.3"/>
					<path class="st6" d="M1222.1,1164.9l-8.5-12.1c0,0,17.7-72.4,42.5-88.5C1256.1,1064.4,1221.3,1141.8,1222.1,1164.9z"/>
					<path class="st6" d="M1204.9,1143.8l-5.3-11.8c0,0,19.8-73.3,38.8-97.9C1238.4,1034.1,1229.2,1081.7,1204.9,1143.8z"/>
					<path class="st6" d="M1192.8,1124.6l-6.1-10.2c0,0,9.3-78.2,27.6-102.8C1214.3,1011.5,1195.9,1108.3,1192.8,1124.6z"/>
					<path class="st6" d="M1181.7,1111.8l-5.9,0c0,0,6.7-104.5,11.6-112.6c0,0,4.4,4.9,4.3,29.1l-8.2,83.5L1181.7,1111.8z"/>
					<path class="st6" d="M1168.9,1127.3c0,0,54.4,47.4,77.4,109.5c0,0,56.7-62.2,127.9-83c0,0-58.6,64.7-110,152.7l4.4-45.1
						l-27.3,92.7l0.4-75.7l-22,118.8l-4.3-128.5l-18.9,181.9l-3.8-213.3l-14,256.4l-10.4-174.4"/>
					<polygon class="st6" points="1413.9,1285.1 1413.2,1422.3 1378.3,1440.1 1379,1315.8 1294.1,1315.1 1313.8,1284.5 					"/>
					<path class="st6" d="M1171.4,1665.7c0,0-12.5-114.4,96.1-315.6l15.8,0.1C1283.3,1350.1,1187.7,1500.9,1171.4,1665.7z"/>
					<path class="st6" d="M1326,1347.3l-18.7-0.1c0,0-127.2,196.6-124.1,323.5C1183.2,1670.7,1204.9,1536.3,1326,1347.3z"/>
					<path class="st6" d="M1346,1360.1l-0.2,30.6c0,0-109.3,129.9-145.3,283.1C1200.5,1673.8,1188.4,1567.2,1346,1360.1z"/>
					<path class="st6" d="M1358.5,1494.6l-23.3-0.1c0,0-98.6,83.7-109.1,203.9C1226.1,1698.4,1263.8,1565.9,1358.5,1494.6z"/>
					<path class="st6" d="M1345.6,1430.7l-0.1,23.7c0,0-32,22.8-43.5,39.9l11.9,0.1c0,0-73.4,79.1-99.3,193.3
						C1214.5,1687.7,1224.7,1543.5,1345.6,1430.7z"/>
					<polygon class="st6" points="1449,1265 1448.9,1281.4 1476.9,1269 					"/>
					<path class="st6" d="M1448.8,1296.1l-0.1,13.2c0,0,33.9-19.9,70.8-18C1519.6,1291.4,1499.2,1273.3,1448.8,1296.1z"/>
					<path class="st6" d="M1448.7,1324.2l-0.1,15.7c0,0,40.1-18.9,99.7-22.8C1548.3,1317.1,1518.6,1297.1,1448.7,1324.2z"/>
					<path class="st6" d="M1448.5,1353.3l-0.1,17.2c0,0,46.2-25.7,117.8-15C1566.3,1355.5,1544.5,1323.2,1448.5,1353.3z"/>
					<path class="st6" d="M1448.4,1383.1l-0.1,14.9c0,0,69.1-25.2,128.7-4.3C1576.9,1393.7,1537,1352.2,1448.4,1383.1z"/>
					<path class="st6" d="M1448.2,1408l-0.1,15.4c0,0,72.1-10.4,128.6,5.9C1576.8,1429.3,1534.9,1391.2,1448.2,1408z"/>
					<path class="st6" d="M1441.8,1451.4c0,0,10.8,167.2-101.9,237c0,0,42.7-44.9,59.4-102.5c0,0-40.9,76.6-85.1,107.7
						c0,0,52-69.7,69.4-115.1c0,0-84.3,116.1-88.6,120.3c0,0,24.9-73.3,89.1-142.1c0,0-74.1,55-112.1,152.3c0,0,13.9-97.4,126.8-187
						c0,0-119.7,69.4-150.2,197.7c0,0-5.6-80,76.2-160.2c0,0,32.7-31.2,66.4-53.5C1391.3,1505.9,1415,1490.1,1441.8,1451.4z"/>
					<path class="st6" d="M1548.5,1276.1c0,0,181.9-3,264.6,177.3c0,0,44.3,105.5-18.2,211.8l-48.5,22.3l9.6,7.2l87.9-39.2l-52,89.3
						c0,0-23.8-30.7-63.4-49.3c0,0,118.7-216.1-119.6-278.6l-1.7-18c0,0,118.7,17.3,156.3,130.2c0,0,20.1,51.6-11,141.6
						c0,0,65.2-125-26.8-228.8c0,0-34.4-43.6-120.9-69.7l0.1-11.7c0,0,248.7,50,167.1,301.9c0,0,68.7-122-18.6-228.7
						c0,0-43.2-66-162.3-94.9l-13.7-19.9c0,0,161.2,14.6,214.8,157.1c0,0,35.5,89.6-4,179.2c0,0,74-131.9-23.1-255.5
						c0,0-72.8-95.4-205.5-107.3L1548.5,1276.1z"/>
					<path class="st6" d="M1773,1765.3c0,0-26.8-54.5-89.4-79.3c0,0,38.3-83.9,24.5-142.5c0,0-71.1-6.9-127.5,39.8
						c0,0,15.2-56.5,8.6-106.6c0,0-69.9-11.5-139,43.2l2.2,12.6c0,0,61.4-40.2,121-39.5c0,0,4.7,57.4-13.6,116.5
						c0,0,60.9-44.1,128.2-43.8c0,0,3.7,77-27.2,124.7c0,0,72.7,36.9,85.2,74.5"/>
					<path class="st6" d="M1582.8,1764.1c0,0,0.4-71.3-74-74.8c0,0,20.2-50.9-2.6-79c0,0-29.4-32.8-73.9-8.6c0,0,11.5-32,16.1-58
						c0,0,4.3,13.3,3.7,23c0,0,6-17.8,32.1-41.9c0,0-11.6,23.6-14.7,37.4c0,0,18.8-26.7,43.3-45.9l-25.5,48.8l56.9-55.3l-41.9,65
						l53.8-50.9l-36.8,58.4l40-36.5l-33.7,51l30.7-19.5l-26.2,40.6l22.5-12.4l-10.3,24.2l40.2-25.8l-26.2,37.8l60.7-49.4l-41.6,54.8
						l83.7-67.3l-70.5,76.3l83.5-68.9l-76.9,83.4l75.5-55.9l-67.9,66.7l62.1-33.8l-56.3,48.9l49.6-22.4l-51.7,44.1l61-15.2
						l-51.1,27.2c0,0,45.4-11.4,73.9-6.2l-57.2,17.8l84.3,6.3l-90.6,16.1"/>
					<path class="st6" d="M1422.1,1616.7c5.9-2.8,16.1-11.4,16.1-11.4l3.1,2.3c0,0-11.4,11.7-20.3,12.9L1422.1,1616.7z"/>
					<path class="st6" d="M1462.9,1602.1l5.6,4.6c0,0-33.5,27.6-60.1,38.4l1.8-7.9C1410.2,1637.3,1440.4,1623.7,1462.9,1602.1z"/>
					<path class="st6" d="M1386.8,1672.8c54.1-12.5,99.2-55.8,99.2-55.8l-7.1-6.4c0,0-42.1,38.3-84.6,51L1386.8,1672.8z"/>
					<path class="st6" d="M1495.1,1628l6.6,8.6c0,0-66,53.8-138.9,56.7l14.6-9.1C1377.4,1684.2,1446.5,1667.8,1495.1,1628z"/>
					<path class="st6" d="M1499.6,1654.8c0,0,4,11.7-13.9,21.6c-17.9,9.8-73.8,32.2-109.7,24.6
						C1376,1701,1430.9,1696.5,1499.6,1654.8z"/>
					<path class="st6" d="M1403.2,1712.4c38.7-2.1,87.8-24.2,87.8-24.2l4.8,5.9C1495.8,1694,1442.9,1719,1403.2,1712.4"/>
					<path class="st6" d="M1522.8,1697.2l9.9,6.1c0,0-57.5,31.6-111,22.2C1421.7,1725.5,1483.9,1721,1522.8,1697.2z"/>
					<path class="st6" d="M1544.4,1712.6l7.3,8.7c0,0-55.2,26.5-115.8,15.7C1435.9,1737,1515.5,1731.7,1544.4,1712.6z"/>
					<path class="st6" d="M1557.2,1735.4l4.9,15.3c0,0-63.5,10.1-111.6,1.2C1450.4,1751.9,1536.3,1748.3,1557.2,1735.4z"/>
					<path class="st6" d="M1440.5,1763.2c0,0-55.4-91.1-175.5-36.9c0,0,54.6-8.1,89.2-3.7l-73.1,13.7l90.6,3.4l-101.4,9.6l85.8,13.3
						"/>
				</g>
				<g>
					<polyline class="st6" points="1173.1,3058.6 1119.9,2975.1 1137,2957.2 1137,2985.4 1143.6,2985.3 1144.3,2945.5 
						1150.8,2945.5 1150.7,2993.1 1158.5,3000.8 1158.5,2937.6 1172.5,2923.1 					"/>
					<path class="st6" d="M1172.3,2876.4c0,0-62.6,172.5-240.7,178.2c0,0,191.7-53.9,90.3-332.8c0,0,43.7,30.5,44.8,183.4
						c0,0,18.2-68.1-12.1-156c0,0,32.3,36.4,31,133.7c0,0,13.5-61.6,0-114.3c0,0,17.6,18.7,20,84.4c0,0,12.5-43.6,0.2-94.8
						c0,0,17.4,16,17.9,78.3l0,6.3c0,0,6.3-6.3,6.1-19.5l-1.3-78.4l5.7-10.1l5.4,9.9l3.8,87.2c0,0,1.7,4,3.8,2.9
						c2.1-1.2,2.9-2.9,2.5-6.1c-0.4-3.2-0.2-107.2-0.2-107.2l4.9-10.9l5.4,10.5l4.2,89.6c0,0,0.7,21.2,8.1,19.1"/>
					<path class="st6" d="M1171.2,2640.2c0,0-27.7,52-81.6,84.3c0,0-15.3-3.4-46.5-104.7c0,0-44.3,49-101.2,67.1
						c0,0-14.2-7.6-25.1-111.6c0,0-51.9,36.4-112.3,35.8l8.4-18c0,0,57.7-0.9,120.3-51.5c0,0-4.1,74.9,18.2,119.6
						c0,0,45.1-5.4,105.7-79.7c0,0,7.4,79.1,37.3,111.2c0,0,42.6-26.5,76.6-81.6"/>
					<path class="st6" d="M765.8,2808.7c0,0-10.8-73.9,22.6-159.1c0,0,21.9,9.6,35.3,52.4c0,0,43.2-53.6,59.6-42.9
						c16.3,10.7,17.9,53,12.9,74.9c0,0,43.8-30.2,74.4-12.4c0,0,13.8,45.8-13.6,78.5c0,0,40.8,8.6,54.6,34.6
						c0,0,1.3,134.6-141.5,117.5c0,0,65.6-10.1,89.6-38.8c0,0-36.7,17.3-74.1,17.3c0,0,63-31.1,90.1-62.9c0,0-41.2,31.8-87.6,39.9
						c0,0,55.9-40.2,69.6-57.1c0,0-30.5,17.8-69.7,32.1c0,0,46.4-40.9,53.6-51.6c0,0-32.1,21.5-60.3,27.6c0,0,29.8-30.3,38.1-44
						c0,0-27.9,23.4-46.2,29.9c0,0,50-54.4,57.9-86.5c0,0-38.8,54.5-65.2,70.1c-0.4,0.2-0.8,0.5-1.2,0.7c0,0,19.4-42.5,30.1-57
						c0,0-25.6,12.3-41.2,46c0,0-4.6-15.3,19.8-54.3c0,0-19.5,15.3-32.8,41c0,0-5-24.8,17.1-79.9c0,0-30.9,46.7-36.6,76.9
						c0,0-8.1-14.5,2.9-58.9c0,0-14.1,22.2-21.7,56.6c0,0-6.5-16.4,0.6-65.4c0,0-15.6,27.6-17.5,67.7c0,0-5.1-48.5,1-76.8
						C786.5,2725,771.9,2746,765.8,2808.7z"/>
					<path class="st6" d="M771,2840.8c0,0,2.4,66.5,67.5,100.8c0,0,42-24.9,6.3-83.3C844.9,2858.3,806.9,2801.8,771,2840.8z"/>
					<path class="st6" d="M1011.6,2916.9c0,0-19.3,150.2-196.2,120.7c0,0-247.4-83.2-152.8-434.3c0,0,56.4-170.3,224.2-331.2l13,0
						c0,0-122.4,120.7-178.7,239.4c0,0-26.7,48.2-46.4,114c-19.8,65.8-19.1,124.9-16,168.7c3.1,43.8,34.9,144.7,115.6,207.7
						c0,0-76.6-72.7-95.6-157.8c-19-85.1-16.5-210.3,63.5-342.4c0,0,85.9-141.6,175-229.7l17.8,0c0,0-107.3,114.6-166.8,217.2
						c0,0-114,185.5-77,338.1c0,0,9,83.5,98.8,163.4c0,0,89.8,71.2,170.2-5.4c0,0-77.2,59.1-156.9,5
						c-79.6-54.1-112.3-179.8-108.6-226.1c3.7-46.3,15-160.2,104.2-291.9c0,0,90.7-137.2,152.5-200.3l18,0
						c0,0-178.9,201.9-223,330.4c-44.1,128.5-57.6,208.8,17.9,339.4c0,0,31.8,39.2,56.2,47.8c0,0-48.5-42.2-66.4-79.4
						c-17.9-37.2-43.5-101.4-28.9-181.9c14.6-80.6,42.5-163.7,122.8-276.5l136.3-179.9l19.1,0c0,0-102.6,134.5-136.5,183.1
						c-33.9,48.6-103.7,139.7-125.6,274.3c-21.9,134.6,43.2,205.6,63.9,228.5C826,2980.7,920.9,3038.6,1011.6,2916.9z"/>
					<path class="st6" d="M619.1,2896.7c25.5,10.7,40.8,9.1,40.8,9.1c-75.1-88.6-73.7-159.9-73.7-159.9
						c16.8,11.2,38.8,17.3,38.8,17.3c-40.9-70.1-45.1-133-45.1-133l45.9,19.8c-33.2-31-46.7-146.2-46.7-146.2
						c-26.4,49.5,13.5,113.1,13.5,113.1c-8.2-9.2-33.7-41.2-33.7-41.2l-2.4,81.6c4.1,16.4,35.8,68,35.8,68
						c-13.3-7.8-35.2-39.6-35.2-39.6l4.2,92.2c12.9,36.8,54.2,97.3,54.2,97.3c-13.8-10.7-43.9-47.8-43.9-47.8
						c19,91.3,47.2,146.7,47.2,146.7c-13.8-13.7-40.9-74.9-40.9-74.9l-28.4,65.8c39.6-92.3,3.8-155.9,3.8-155.9
						c-7.1,26.1-22.4,32.6-22.4,32.6c32.5-47,12-142.7,12-142.7l-17.8,19.4c6.1-11.2,21.8-52.5,20.8-68.3c-1-15.8-2.6-45.4,5.5-75.4
						c8.1-30.1,4.5-35.7,4.5-35.7c-18.3,20.9-34.6,52.6-34.6,52.6c8.1-42.3,26.4-58.7,26.4-58.7c23.4-24.5,41.2-68.8,41.2-68.8
						l-30.6,0.1c-62.5,87.9-71.5,177.9-71.5,177.9l37.2-17.9c-2.5,50.5-34.9,156.5-34.9,156.5l36.1-24l-35.9,161.6l44.3-38.8
						c1.2,93.3-29.8,162.5-29.8,162.5c41.8-22.6,58.5-45.3,58.5-45.3l44.5,58.5l26.4-51.5c65.3,52.9,162.2,51.2,162.2,51.2
						C652.4,2985.8,619.1,2896.7,619.1,2896.7z M583.3,2936.6c-1.9,7.5-13.9,44.9-14.3,31.4c-0.4-13.6,10.2-40.2,10.2-40.2
						C580.6,2924.3,585.2,2929.1,583.3,2936.6z M582.1,2983.4c0,0,1.3-23.1,9.3-31.4C599.4,2943.8,587.4,2978,582.1,2983.4z
						 M593,2995.6c0,0,1.8-20.4,8.4-28.6C607.9,2958.9,598.9,2994.1,593,2995.6z M607.7,3001.7c0,0-3.5-11.5,3.4-15.7
						C618,2981.8,611.4,3002.5,607.7,3001.7z"/>
					<path class="st6" d="M634.7,2228.4c-81.1-44.7-129.2-126.2-129.2-126.2c-12.1,87.2,22.7,129.4,22.7,129.4
						c-29.5,13.8-36.1,31.7-36.1,31.7c10.2,21.9,52.1,32.5,52.1,32.5c-43.3,22.5-51.9,55.1-51.9,55.1c22,22.4,52,26.4,52,26.4
						c-33.1,35.2-34.5,66.8-34.5,66.8c55.1,16.7,91.8,7.5,91.8,7.5c-6.5,92.8,44.6,134.5,44.6,134.5c7.5-59.7,56.2-136.3,56.2-136.3
						S567.2,2387.6,634.7,2228.4z M630.3,2478.2l20.1-31.4l-11.6,52.5l24.1-39.3l-6.3,28l28.7-33.9c0,0-29.4,51.8-44.6,92.9
						c0,0-31.9-24.2-21.4-113.4c0,0-54.3,11.1-88.2-2.4c0,0,6.6-27.5,40.9-64c0,0-36.2-9.4-56.1-20.5c0,0,11.1-29.2,58-52.6
						c0,0-48.7-19.8-58.2-32.8c0,0-1.3-10.4,32.8-28.9c0,0-28.1-30.5-26.9-79.7c0,0,52.1,52.4,81.9,69.2l-50.5-21.8l35,29.5
						l-36.2-12.2l30.6,22.9l-26.8,0.6l28.3,8.9l-49.4,4.9l50.5,8.3l-35.2,8.2l37,4.5l-15,10.2l18.6,2.5l-15.3,12.8l15.8,3l-30.8,9.5
						l29.3,3.8l-44.6,10.8l45.1,4.5l-51.2,11.6l52.5,1.2l-17.8,11l21.7,4.3l-17.3,16.6l19.3,2.3l-42.4,28.4l47.9-13.6l-33.3,27.8
						l46.6-15.9l-22.4,24.3l34.6-7.5l-1.2,25.7l13.2-14.8L630.3,2478.2z"/>
					<path class="st6" d="M654.9,2388c-2.9-3.9-5.4-7.8-7.6-11.8c0,0,27.5-24.4,46.4-34.4c0,0,5-0.4,12.6-0.5L654.9,2388z"/>
					<path class="st6" d="M640.5,2361.7c-2.2-5.8-3.9-11.7-5.2-17.6l35.5-3.2L640.5,2361.7z"/>
					<path class="st6" d="M773.4,2358.1c-1.7-1.3-5.7-4-7.6-5.1c-30.8,26.2-62.1,75.3-62.1,75.3c3.2,1.7,6.5,3.3,9.9,4.8
						C713.6,2433.2,741.7,2393.2,773.4,2358.1z"/>
					<path class="st6" d="M757.1,2349c-37.9,33.7-63.4,73.7-63.4,73.7c-3.8-2.3-7.4-4.7-10.7-7.1c0,0,23.4-36.8,64.1-69.8
						 M757.1,2349c-3.2-1.2-6.6-2.3-10-3.2"/>
					<path class="st6" d="M734.9,2343.3c-4.5-0.7-9-1.2-13.2-1.5c-23.9,16.8-58.2,56.7-58.2,56.7c2.7,2.9,5.6,5.8,8.8,8.6
						C672.3,2407,714.3,2360,734.9,2343.3z"/>
					<path class="st6" d="M627,2314.3c0,4.8,0.2,9.5,0.8,14.1c0,0,36.6,3.7,57.7,0.7c0,0,4.3-2.6,10.5-7L627,2314.3z"/>
					<path class="st6" d="M740.5,2269c-0.7,2-2.3,6.6-3.2,8.6c-40.3-3.2-94.5-24.7-94.5-24.7c1.6-3.2,3.3-6.4,5.2-9.7
						C648.1,2243.2,694.3,2259.1,740.5,2269z"/>
					<path class="st6" d="M726.5,2294.3c-52.3-2.8-92.8-19-92.8-19c1.3-3.9,2.8-8,4.5-12.1c0,0,44.1,17.6,94.5,22.6 M726.5,2294.3
						c2.2-2.7,4.3-5.5,6.2-8.4"/>
					<path class="st6" d="M718,2303.5c-3.3,3.2-6.6,6.2-9.8,9c-29.2,0.4-80.3-11.8-80.3-11.8c0.5-3.9,1.2-8,2.1-12.1
						C630,2288.6,691.6,2302.1,718,2303.5z"/>
					<path class="st6" d="M709.9,2330.1c0,0,28.2-22.7,41.8-55.6l18.2,0c0,0-8.2,30.8-24,42.9c0,0,31.5,3.1,46.5,12.6l-10.1,13.1
						C782.2,2343.1,752.1,2328.6,709.9,2330.1z"/>
					<polygon class="st6" points="771.4,2307.8 788.2,2277.5 842.4,2280.5 807,2317.1 					"/>
					<path class="st6" d="M1170.8,2537c0,0-68.8,8.5-96.9-75.9c0,0-49.2,56.7-94.8,30c0,0-45.2-25.9-29.6-100.9
						c0,0-80.1,97.6-113.6,161.2l78.6-99.9l-63.6,112.9l72.8-99.1l-48.4,97.2l53.4-73.9l-27.4,63.5l38.1-47.9l-14.1,34l31.7-32.6
						l-14.4,42.5l25.6-26l-21.7,62.4l32-47.5l-25.8,80.1l42.9-71.8l-30.6,90.7l46.1-81.7l-20.9,72.5l40.9-80.5l-13.3,60.8l32.2-65.6
						l-3.6,39l18.1-33.7l-0.5,38.8l14.5-27.7l-5.2,64.4l17.5-45.9l-5,77.6l19.4-71.7l-3.5,93.5l19.9-90.4l1.9,71l15.9-74.9l4.9,49.3
						l12.9-50.3l5.6,34.2l8.4-21.4"/>
					<path class="st6" d="M958.5,2400.7c0,0,12.2-6.5,15.8-18.4l-7.9,0.8C966.4,2383.1,964,2394.2,958.5,2400.7z"/>
					<path class="st6" d="M958.5,2427.3c0,0,32.1-13.8,49.6-58.4l-15.9,6.1C992.3,2375,978.2,2406.8,958.5,2427.3z"/>
					<path class="st6" d="M1024.2,2358.1l17.9-11.1c0,0-24.7,72.7-77.4,109.3C964.7,2456.3,1008.5,2399.9,1024.2,2358.1z"/>
					<path class="st6" d="M980,2475c0,0,52.6-17.3,93.6-148.9l-17.6,9.6C1056,2335.7,1043.4,2403,980,2475z"/>
					<path class="st6" d="M1090.8,2310.9l-9.4,14c0,0-1.9,65-70.6,155.8c0,0,47-20.9,85.3-154.7L1090.8,2310.9z"/>
					<path class="st6" d="M1051.8,2466.5c0,0,38.2-62,52.6-129.3l7.9,16.8C1112.3,2353.9,1083.9,2434.5,1051.8,2466.5"/>
					<path class="st6" d="M1116.7,2358.3l8.6,12c0,0-17.2,72.6-41.9,88.8C1083.4,2459.1,1117.7,2381.5,1116.7,2358.3z"/>
					<path class="st6" d="M1134,2379.4l5.4,11.7c0,0-19.2,73.4-38,98.2C1101.3,2489.3,1110.1,2441.6,1134,2379.4z"/>
					<path class="st6" d="M1146.3,2398.5l6.1,10.1c0,0-8.8,78.3-26.8,103C1125.6,2511.7,1143.2,2414.8,1146.3,2398.5z"/>
					<path class="st6" d="M1157.5,2411.2l5.9,0c0,0-5.9,104.5-10.7,112.7c0,0-4.5-4.8-4.5-29.1l7.6-83.5L1157.5,2411.2z"/>
					<path class="st6" d="M1170.1,2395.6c0,0-54.8-47-78.2-108.9c0,0-56.3,62.7-127.3,84c0,0,58.2-65.1,108.9-153.5l-4.1,45.1
						l26.6-92.9l0.1,75.7l21.2-118.9l5.2,128.4l17.6-182l5.4,213.3l12.1-256.5l11.7,174.3"/>
					<polygon class="st6" points="924,2239.6 923.7,2102.4 958.5,2084.3 958.7,2208.6 1043.6,2208.7 1024.1,2239.4 					"/>
					<path class="st6" d="M1163.7,1857.3c0,0,13.3,114.3-93.8,316.3l-15.8,0C1054.1,2173.6,1148.7,2022.1,1163.7,1857.3z"/>
					<path class="st6" d="M1011.4,2176.8l18.7,0c0,0,125.8-197.5,121.7-324.4C1151.9,1852.3,1131.2,1986.9,1011.4,2176.8z"/>
					<path class="st6" d="M991.4,2164.1l-0.1-30.6c0,0,108.3-130.7,143.2-284.2C1134.5,1849.3,1147.5,1955.8,991.4,2164.1z"/>
					<path class="st6" d="M977.9,2029.6l23.3,0c0,0,98-84.4,107.6-204.7C1108.8,1824.9,1072,1957.7,977.9,2029.6z"/>
					<path class="st6" d="M991.2,2093.5l0-23.7c0,0,31.8-23,43.3-40.2l-11.9,0c0,0,72.9-79.6,97.9-194
						C1120.5,1835.6,1111.3,1979.8,991.2,2093.5z"/>
					<polygon class="st6" points="889,2259.9 889,2243.5 861.1,2256.2 					"/>
					<path class="st6" d="M889,2228.8l0-13.2c0,0-33.8,20.1-70.7,18.5C818.3,2234.1,838.8,2252,889,2228.8z"/>
					<path class="st6" d="M888.9,2200.7l0-15.7c0,0-39.9,19.2-99.5,23.5C789.4,2208.5,819.2,2228.3,888.9,2200.7z"/>
					<path class="st6" d="M888.9,2171.6l0-17.2c0,0-46,26.1-117.7,15.9C771.1,2170.3,793.2,2202.4,888.9,2171.6z"/>
					<path class="st6" d="M888.8,2141.8l0-14.9c0,0-69,25.7-128.6,5.2C760.2,2132.1,800.4,2173.3,888.8,2141.8z"/>
					<path class="st6" d="M888.8,2117l0-15.4c0,0-72,11-128.6-5C760.1,2096.6,802.2,2134.3,888.8,2117z"/>
					<path class="st6" d="M894.9,2073.5c0,0-12-167.2,100.2-237.7c0,0-42.3,45.2-58.7,102.9c0,0,40.4-76.9,84.3-108.3
						c0,0-51.5,70.1-68.6,115.6c0,0,83.5-116.8,87.7-121c0,0-24.3,73.4-88,142.8c0,0,73.7-55.6,111-153.1c0,0-13.2,97.5-125.4,187.9
						c0,0,119.2-70.3,148.8-198.8c0,0,6.2,80-75.1,160.8c0,0-32.4,31.4-66,54C945,2018.6,921.4,2034.6,894.9,2073.5z"/>
					<path class="st6" d="M789.4,2249.5c0,0-181.9,4.4-265.9-175.4c0,0-45-105.2,16.7-211.9l48.4-22.6l-9.7-7.1l-87.6,39.8
						l51.3-89.7c0,0,24,30.5,63.8,48.8c0,0-117.1,217,121.6,277.8l1.8,18c0,0-118.8-16.5-157.2-129c0,0-20.5-51.4,9.9-141.7
						c0,0-64.2,125.5,28.5,228.6c0,0,34.8,43.3,121.4,68.9l0,11.7c0,0-249.1-48.2-169.3-300.7c0,0-67.8,122.5,20.3,228.6
						c0,0,43.7,65.7,163,93.7l13.8,19.8c0,0-161.3-13.5-215.9-155.6c0,0-36.1-89.3,2.7-179.3c0,0-73.1,132.5,24.9,255.3
						c0,0,73.5,94.9,206.2,105.8L789.4,2249.5z"/>
					<path class="st6" d="M561.5,1762c0,0,27.2,54.3,90,78.6c0,0-37.7,84.2-23.4,142.6c0,0,71.1,6.4,127.2-40.8
						c0,0-14.8,56.6-7.8,106.7c0,0,70,11,138.7-44.2l-2.3-12.6c0,0-61.1,40.6-120.7,40.4c0,0-5.1-57.3,12.8-116.6
						c0,0-60.6,44.6-127.9,44.7c0,0-4.2-77,26.3-124.9c0,0-73-36.3-85.8-73.9"/>
					<path class="st6" d="M751.6,1761.8c0,0,0.1,71.3,74.5,74.3c0,0-19.8,51,3.2,79c0,0,29.6,32.6,73.9,8c0,0-11.3,32.1-15.7,58.1
						c0,0-4.4-13.2-3.9-22.9c0,0-5.8,17.9-31.8,42.1c0,0,11.4-23.7,14.5-37.5c0,0-18.7,26.9-43,46.2l25.1-49l-56.5,55.7l41.4-65.3
						l-53.4,51.3l36.3-58.7l-39.7,36.8l33.3-51.3l-30.5,19.7l25.9-40.8L783,1920l10.1-24.2l-40,26.1l25.9-38l-60.3,49.8l41.2-55.1
						l-83.2,67.9l69.9-76.8l-83,69.5l76.3-84l-75.1,56.5l67.4-67.2l-61.9,34.3l56-49.3l-49.4,22.8l51.4-44.4l-60.9,15.7l50.9-27.6
						c0,0-45.3,11.8-73.9,6.8l57.1-18.2l-84.4-5.7l90.5-16.8"/>
					<path class="st6" d="M913.4,1908.1c-5.9,2.8-16,11.5-16,11.5l-3.2-2.3c0,0,11.3-11.7,20.2-13L913.4,1908.1z"/>
					<path class="st6" d="M872.7,1922.9l-5.6-4.6c0,0,33.3-27.8,59.8-38.8l-1.8,7.9C925.1,1887.4,895.1,1901.2,872.7,1922.9z"/>
					<path class="st6" d="M948.2,1851.7c-54,12.8-98.8,56.5-98.8,56.5l7.1,6.4c0,0,41.8-38.7,84.3-51.6L948.2,1851.7z"/>
					<path class="st6" d="M840.3,1897.2l-6.6-8.5c0,0,65.7-54.3,138.5-57.7l-14.5,9.2C957.6,1840.2,888.6,1857.1,840.3,1897.2z"/>
					<path class="st6" d="M835.6,1870.5c0,0-4.1-11.7,13.7-21.7c17.8-10,73.6-32.8,109.5-25.4C958.9,1823.4,904,1828.3,835.6,1870.5
						z"/>
					<path class="st6" d="M931.6,1812.2c-38.7,2.4-87.6,24.9-87.6,24.9l-4.9-5.9C839.1,1831.2,891.8,1805.9,931.6,1812.2"/>
					<path class="st6" d="M812.1,1828.2l-10-6c0,0,57.3-32,110.8-23C913,1799.2,850.8,1804.2,812.1,1828.2z"/>
					<path class="st6" d="M790.4,1813l-7.4-8.7c0,0,55-26.9,115.7-16.6C898.7,1787.8,819.2,1793.7,790.4,1813z"/>
					<path class="st6" d="M777.5,1790.3l-5-15.3c0,0,63.4-10.6,111.6-2C884.1,1773,798.2,1777.3,777.5,1790.3z"/>
					<path class="st6" d="M893.9,1761.7c0,0,56.1,90.7,175.8,35.6c0,0-54.6,8.4-89.2,4.3l73-14.3l-90.6-2.7l101.3-10.3l-85.8-12.7"
						/>
					<polyline class="st6" points="1173.1,3058.6 1225.6,2974.7 1208.3,2956.9 1208.6,2985.1 1202,2985.1 1200.9,2945.2 
						1194.4,2945.3 1194.9,2992.9 1187.3,3000.7 1186.7,2937.5 1172.5,2923.1 					"/>
					<path class="st6" d="M1172.3,2876.4c0,0,64.1,172,242.3,176c0,0-192.2-52.1-93.3-331.9c0,0-43.4,30.9-43.1,183.8
						c0,0-18.8-67.9,10.7-156.1c0,0-32,36.7-29.7,134c0,0-14.1-61.4-1.1-114.3c0,0-17.5,18.9-19.3,84.6c0,0-12.9-43.5-1.1-94.8
						c0,0-17.3,16.2-17.2,78.5l0,6.3c0,0-6.4-6.3-6.3-19.5l0.6-78.4l-5.8-10.1l-5.3,10l-3,87.2c0,0-1.7,4-3.8,2.9
						c-2.1-1.1-2.9-2.8-2.5-6.1c0.4-3.3-0.8-107.2-0.8-107.2l-5-10.9l-5.3,10.6l-3.4,89.7c0,0-0.5,21.2-7.9,19.2"/>
					<path class="st6" d="M1171.2,2640.2c0,0,28.2,51.8,82.3,83.5c0,0,15.3-3.6,45.5-105.1c0,0,44.7,48.6,101.8,66.2
						c0,0,14.1-7.7,24-111.8c0,0,52.3,35.9,112.6,34.7l-8.5-17.9c0,0-57.7-0.3-120.8-50.4c0,0,4.7,74.9-17.1,119.8
						c0,0-45.1-5-106.5-78.7c0,0-6.7,79.2-36.3,111.5c0,0-42.8-26.1-77.3-80.9"/>
					<path class="st6" d="M1578.2,2805c0,0,10.2-74-24.1-158.9c0,0-21.8,9.8-34.8,52.8c0,0-43.7-53.2-59.9-42.4
						c-16.2,10.8-17.5,53.1-12.2,75c0,0-44.1-29.8-74.5-11.7c0,0-13.4,46,14.3,78.4c0,0-40.7,9-54.3,35.1c0,0,0,134.6,142.5,116.2
						c0,0-65.7-9.5-90-38c0,0,36.8,16.9,74.3,16.7c0,0-63.3-30.5-90.7-62c0,0,41.5,31.4,88,39.1c0,0-56.3-39.7-70.2-56.5
						c0,0,30.7,17.6,70,31.5c0,0-46.7-40.5-54.1-51.1c0,0,32.3,21.2,60.6,27.1c0,0-30-30-38.5-43.7c0,0,28.1,23.1,46.5,29.5
						c0,0-50.5-53.9-58.7-86c0,0,39.3,54.2,65.8,69.5c0.4,0.2,0.8,0.5,1.2,0.7c0,0-19.8-42.3-30.6-56.7c0,0,25.7,12,41.6,45.6
						c0,0,4.4-15.4-20.3-54.1c0,0,19.6,15.1,33.2,40.7c0,0,4.8-24.9-17.8-79.8c0,0,31.3,46.4,37.3,76.6c0,0,7.9-14.6-3.5-58.9
						c0,0,14.3,22.1,22.2,56.4c0,0,6.4-16.5-1.2-65.4c0,0,15.9,27.4,18.1,67.5c0,0,4.6-48.6-1.7-76.8
						C1556.7,2721.5,1571.5,2742.4,1578.2,2805z"/>
					<path class="st6" d="M1573.2,2837.2c0,0-1.8,66.5-66.5,101.4c0,0-42.2-24.5-7.1-83.3C1499.6,2855.3,1537,2798.5,1573.2,2837.2z
						"/>
					<path class="st6" d="M1333.3,2915.4c0,0,20.6,150,197.3,118.9c0,0,246.6-85.4,148.9-435.6c0,0-58-169.8-227.2-329.1l-13,0.1
						c0,0,123.5,119.6,180.9,237.7c0,0,27.1,48,47.5,113.6c20.4,65.6,20.3,124.7,17.5,168.6c-2.7,43.9-33.6,145-113.7,208.8
						c0,0,75.9-73.4,94.2-158.7c18.2-85.3,14.6-210.5-66.7-341.8c0,0-87.2-140.8-177-228.1l-17.8,0.1c0,0,108.4,113.6,168.8,215.6
						c0,0,115.7,184.5,80.1,337.4c0,0-8.2,83.6-97.3,164.3c0,0-89.2,72-170.3-3.9c0,0,77.8,58.4,156.9,3.6
						c79.1-54.9,110.7-180.9,106.5-227.1c-4.2-46.2-16.5-160.1-106.9-290.9c0,0-92-136.4-154.4-198.9l-18,0.1
						c0,0,180.7,200.3,226,328.4c45.3,128.1,59.5,208.3-14.8,339.6c0,0-31.4,39.5-55.8,48.3c0,0,48.1-42.7,65.7-80
						c17.6-37.3,42.6-101.7,27.2-182.2c-15.4-80.4-44-163.3-125.4-275.4l-137.9-178.6l-19.1,0.1c0,0,103.8,133.5,138.2,181.8
						c34.4,48.3,105,138.8,128.1,273.2c23.1,134.4-41.3,206-61.8,229.1C1519.6,2977.5,1425.2,3036.3,1333.3,2915.4z"/>
					<path class="st6" d="M1550.9,3051.4c0,0,96.9,0.8,161.7-52.7l26.9,51.3l43.9-58.9c0,0,17,22.5,58.9,44.8
						c0,0-31.6-68.9-31.2-162.2l44.6,38.4l-37.4-161.3l36.4,23.7c0,0-33.4-105.8-36.3-156.2l37.3,17.6c0,0-9.8-89.9-73.2-177.3
						l-30.6,0.2c0,0,18.2,44.1,41.8,68.4c0,0,18.5,16.2,26.9,58.4c0,0-16.5-31.5-35-52.2c0,0-3.5,5.6,4.8,35.6
						c8.4,30,7.1,59.6,6.2,75.4c-0.9,15.8,15.2,57,21.4,68.2l-18-19.2c0,0-19.7,96,13.3,142.6c0,0-15.3-6.4-22.7-32.4
						c0,0-35.2,63.9,5.2,155.9l-29-65.5c0,0-26.6,61.4-40.2,75.2c0,0,27.6-55.7,45.8-147.1c0,0-29.8,37.4-43.5,48.2
						c0,0,40.7-60.8,53.3-97.7l3.4-92.3c0,0-21.7,32-34.9,39.9c0,0,31.2-52,35.2-68.4l-3.1-81.6c0,0-25.3,32.3-33.3,41.5
						c0,0,39.3-64,12.4-113.2c0,0-12.4,115.3-45.3,146.6l45.7-20.2c0,0-3.6,62.9-43.9,133.4c0,0,21.9-6.3,38.6-17.6
						c0,0,2,71.3-72.2,160.6c0,0,15.3,1.4,40.7-9.5C1725.6,2891.7,1693.1,2981.1,1550.9,3051.4z M1765.7,2922.4
						c0,0,10.9,26.5,10.6,40.1c-0.3,13.6-12.6-23.8-14.6-31.2C1759.8,2923.8,1764.4,2918.9,1765.7,2922.4z M1753.9,2946.7
						c8.1,8.2,9.6,31.3,9.6,31.3C1758.1,2972.7,1745.8,2938.6,1753.9,2946.7z M1744,2961.9c6.6,8.1,8.6,28.5,8.6,28.5
						C1746.7,2988.9,1737.4,2953.8,1744,2961.9z M1734.4,2980.9c6.9,4.2,3.6,15.6,3.6,15.6
						C1734.4,2997.4,1727.5,2976.8,1734.4,2980.9z"/>
					<path class="st6" d="M1638.4,2445.6c0,0,49.4,76.2,57.4,135.8c0,0,50.7-42.2,43.4-134.9c0,0,36.8,8.9,91.7-8.3
						c0,0-1.8-31.6-35.1-66.5c0,0,30-4.3,51.8-26.9c0,0-8.9-32.6-52.4-54.7c0,0,41.7-11,51.8-33c0,0-6.8-17.8-36.4-31.3
						c0,0,34.4-42.6,21.5-129.6c0,0-47.3,81.9-128,127.3C1772.9,2382.1,1638.4,2445.6,1638.4,2445.6z M1700.4,2429.3l13.4,14.7
						l-1.5-25.7l34.7,7.1l-22.6-24l46.8,15.5l-33.6-27.5l48,13.2l-42.7-28l19.3-2.4l-17.4-16.4l21.6-4.5l-17.9-10.8l52.5-1.7
						l-51.3-11.1l45.1-4.9l-44.7-10.4l29.3-4l-30.9-9.2l15.8-3.2l-15.4-12.6l18.6-2.7l-15.1-10.1l36.9-4.9l-35.2-7.9l50.4-8.8
						l-49.5-4.5l28.2-9.1l-26.8-0.3l30.4-23.2l-36.1,12.5l34.7-29.8l-50.3,22.3c29.7-17,81.3-69.9,81.3-69.9
						c1.6,49.2-26.2,80-26.2,80c34.3,18.1,33.1,28.6,33.1,28.6c-9.3,13.1-57.9,33.3-57.9,33.3c47.1,23,58.5,52.1,58.5,52.1
						c-19.8,11.4-55.9,21-55.9,21c34.7,36.2,41.5,63.7,41.5,63.7c-33.8,13.8-88.2,3.2-88.2,3.2c11.4,89.1-20.4,113.6-20.4,113.6
						c-15.6-40.9-45.5-92.4-45.5-92.4l29,33.7l-6.6-28l24.5,39.1l-12.1-52.4l20.4,31.2L1700.4,2429.3z"/>
					<path class="st6" d="M1685.2,2383.3c2.8-3.9,5.3-7.9,7.5-11.9c0,0-27.7-24.2-46.7-34c0,0-5-0.4-12.6-0.3L1685.2,2383.3z"/>
					<path class="st6" d="M1699.3,2356.9c2.2-5.9,3.8-11.8,5-17.7l-35.5-2.9L1699.3,2356.9z"/>
					<path class="st6" d="M1566.5,2354.5c1.7-1.3,5.6-4.1,7.6-5.1c31,25.9,62.8,74.8,62.8,74.8c-3.1,1.7-6.4,3.3-9.8,4.9
						C1627,2429,1598.4,2389.3,1566.5,2354.5z"/>
					<path class="st6" d="M1592.6,2342c41,32.6,64.7,69.2,64.7,69.2c-3.3,2.5-6.9,4.9-10.7,7.2c0,0-25.8-39.8-64-73.1 M1592.6,2342
						c-3.4,0.9-6.7,2-9.9,3.3"/>
					<path class="st6" d="M1604.8,2339.4c4.5-0.8,9-1.3,13.2-1.6c24,16.6,58.7,56.1,58.7,56.1c-2.7,2.9-5.6,5.8-8.7,8.6
						C1668,2402.5,1625.5,2355.9,1604.8,2339.4z"/>
					<path class="st6" d="M1712.5,2309.3c0.1,4.8-0.1,9.5-0.6,14.1c0,0-36.5,4-57.7,1.2c0,0-4.3-2.5-10.6-6.9L1712.5,2309.3z"/>
					<path class="st6" d="M1598.5,2265.1c0.7,2,2.3,6.6,3.3,8.5c40.3-3.6,94.2-25.5,94.2-25.5c-1.6-3.2-3.4-6.4-5.3-9.7
						C1690.7,2238.5,1644.6,2254.8,1598.5,2265.1z"/>
					<path class="st6" d="M1606.5,2281.9c50.4-5.5,94.3-23.5,94.3-23.5c1.8,4.1,3.3,8.1,4.6,12c0,0-40.4,16.5-92.7,19.8
						 M1606.5,2281.9c1.9,2.9,4,5.7,6.3,8.3"/>
					<path class="st6" d="M1621.3,2299.4c3.3,3.2,6.6,6.2,9.9,8.9c29.2,0.1,80.2-12.5,80.2-12.5c-0.5-3.9-1.2-8-2.2-12.1
						C1709.2,2283.7,1647.8,2297.7,1621.3,2299.4z"/>
					<path class="st6" d="M1629.7,2325.9c0,0-28.5-22.4-42.3-55.2l-18.2,0.1c0,0,8.4,30.7,24.4,42.6c0,0-31.5,3.4-46.4,13l10.2,13
						C1557.6,2339.6,1587.5,2324.8,1629.7,2325.9z"/>
					<polygon class="st6" points="1568,2304.1 1551,2274 1496.7,2277.5 1532.5,2313.7 					"/>
					<path class="st6" d="M1170.8,2537c0,0,68.9,7.9,96.2-76.8c0,0,49.7,56.2,95,29.1c0,0,44.9-26.3,28.7-101.1
						c0,0,81,96.9,115.1,160.1l-79.5-99.2l64.7,112.3l-73.7-98.5l49.3,96.7l-54.1-73.4l28,63.3l-38.6-47.5l14.4,33.9l-32-32.3
						l14.8,42.3l-25.8-25.8l22.2,62.2l-32.5-47.2l26.6,79.9l-43.5-71.4l31.4,90.4l-46.8-81.3l21.6,72.3l-41.7-80.2l13.8,60.7
						l-32.8-65.3l3.9,39l-18.4-33.5l0.9,38.8l-14.7-27.6l5.8,64.4l-17.9-45.7l5.7,77.6l-20-71.5l4.3,93.4l-20.7-90.3l-1.2,71.1
						l-16.6-74.8l-4.4,49.3l-13.4-50.2l-5.3,34.3l-8.6-21.3"/>
					<path class="st6" d="M1381.8,2398.8c0,0-12.3-6.4-16-18.2l7.9,0.7C1373.7,2381.2,1376.2,2392.3,1381.8,2398.8z"/>
					<path class="st6" d="M1381.9,2425.3c0,0-32.2-13.5-50.1-57.9l15.9,6C1347.7,2373.4,1362.1,2405,1381.9,2425.3z"/>
					<path class="st6" d="M1315.7,2356.8l-18-11c0,0,25.4,72.5,78.4,108.6C1376,2454.4,1331.7,2398.4,1315.7,2356.8z"/>
					<path class="st6" d="M1361,2473.3c0,0-52.8-16.8-95-148l17.7,9.4C1283.6,2334.7,1296.8,2401.9,1361,2473.3z"/>
					<path class="st6" d="M1248.6,2310.2l9.5,13.9c0,0,2.5,65,72,155.2c0,0-47.2-20.4-86.8-153.9L1248.6,2310.2z"/>
					<path class="st6" d="M1289,2465.4c0,0-38.8-61.6-53.8-128.8l-7.7,16.9C1227.6,2353.4,1256.7,2433.7,1289,2465.4"/>
					<path class="st6" d="M1223.2,2357.9l-8.5,12.1c0,0,17.8,72.4,42.7,88.4C1257.4,2458.3,1222.4,2381,1223.2,2357.9z"/>
					<path class="st6" d="M1206.1,2379.1l-5.3,11.8c0,0,19.9,73.3,38.9,97.8C1239.7,2488.7,1230.5,2441.1,1206.1,2379.1z"/>
					<path class="st6" d="M1194,2398.3l-6,10.2c0,0,9.5,78.2,27.8,102.8C1215.7,2511.3,1197.2,2414.6,1194,2398.3z"/>
					<path class="st6" d="M1182.9,2411.1l-5.9,0c0,0,6.9,104.4,11.8,112.6c0,0,4.4-4.9,4.2-29.1l-8.3-83.5L1182.9,2411.1z"/>
					<path class="st6" d="M1170.1,2395.6c0,0,54.3-47.5,77.2-109.6c0,0,56.8,62.1,128.1,82.8c0,0-58.8-64.6-110.3-152.5l4.5,45.1
						l-27.4-92.7l0.5,75.7l-22.3-118.7l-4,128.5l-19.3-181.8l-3.4,213.3l-14.5-256.4l-10.1,174.4"/>
					<polygon class="st6" points="1414.8,2237.4 1413.8,2100.1 1378.9,2082.4 1379.8,2206.7 1295,2207.6 1314.6,2238.1 					"/>
					<path class="st6" d="M1171.6,1857.2c0,0-12.3,114.4,96.7,315.5l15.8-0.1C1284.1,2172.6,1188.1,2021.9,1171.6,1857.2z"/>
					<path class="st6" d="M1326.8,2175.3l-18.7,0.1c0,0-127.6-196.3-124.7-323.3C1183.4,1852.2,1205.3,1986.5,1326.8,2175.3z"/>
					<path class="st6" d="M1346.7,2162.4l-0.2-30.6c0,0-109.5-129.7-145.8-282.9C1200.7,1849,1188.7,1955.6,1346.7,2162.4z"/>
					<path class="st6" d="M1359,2027.9l-23.3,0.2c0,0-98.7-83.5-109.5-203.7C1226.2,1824.3,1264.2,1956.8,1359,2027.9z"/>
					<path class="st6" d="M1346.2,2091.8l-0.2-23.7c0,0-32-22.7-43.6-39.8l11.9-0.1c0,0-73.6-79-99.7-193.1
						C1214.6,1835.1,1225.1,1979.3,1346.2,2091.8z"/>
					<polygon class="st6" points="1449.9,2257.4 1449.8,2240.9 1477.8,2253.4 					"/>
					<path class="st6" d="M1449.7,2226.2l-0.1-13.2c0,0,34,19.8,70.9,17.8C1520.5,2230.9,1500.1,2249,1449.7,2226.2z"/>
					<path class="st6" d="M1449.5,2198.1l-0.1-15.7c0,0,40.1,18.8,99.8,22.6C1549.1,2205.1,1519.5,2225.2,1449.5,2198.1z"/>
					<path class="st6" d="M1449.3,2169.1l-0.1-17.2c0,0,46.3,25.7,117.9,14.8C1567,2166.7,1545.3,2199,1449.3,2169.1z"/>
					<path class="st6" d="M1449.1,2139.3l-0.1-14.9c0,0,69.2,25.1,128.7,4C1577.6,2128.4,1537.8,2170,1449.1,2139.3z"/>
					<path class="st6" d="M1448.9,2114.4l-0.1-15.4c0,0,72.1,10.3,128.6-6.2C1577.4,2092.8,1535.6,2131,1448.9,2114.4z"/>
					<path class="st6" d="M1442.4,2071c0,0,10.5-167.3-102.4-236.8c0,0,42.8,44.8,59.6,102.4c0,0-41.1-76.5-85.3-107.6
						c0,0,52.1,69.6,69.6,114.9c0,0-84.6-116-88.8-120.2c0,0,25,73.2,89.3,141.9c0,0-74.2-54.9-112.3-152.1
						c0,0,14.1,97.4,127.1,186.8c0,0-119.9-69.2-150.6-197.4c0,0-5.5,80,76.5,160.1c0,0,32.7,31.1,66.5,53.4
						C1391.8,2016.6,1415.5,2032.3,1442.4,2071z"/>
					<path class="st6" d="M1549.4,2246.1c0,0,181.9,2.7,264.3-177.8c0,0,44.1-105.6-18.6-211.8l-48.6-22.2l9.6-7.2l88,39l-52.1-89.2
						c0,0-23.7,30.8-63.4,49.4c0,0,119.1,215.9-119,278.9l-1.7,18c0,0,118.6-17.6,156-130.5c0,0,20-51.6-11.2-141.6
						c0,0,65.4,124.9-26.4,228.8c0,0-34.4,43.6-120.8,70l0.1,11.7c0,0,248.6-50.5,166.5-302.2c0,0,68.9,121.8-18.2,228.7
						c0,0-43.1,66.1-162.2,95.2l-13.6,20c0,0,161.2-14.9,214.5-157.5c0,0,35.3-89.7-4.4-179.2c0,0,74.3,131.8-22.6,255.5
						c0,0-72.7,95.5-205.3,107.7L1549.4,2246.1z"/>
					<path class="st6" d="M1773,1756.5c0,0-26.7,54.5-89.3,79.4c0,0,38.5,83.8,24.7,142.4c0,0-71.1,7-127.6-39.6
						c0,0,15.3,56.5,8.8,106.6c0,0-69.9,11.6-139.1-43l2.2-12.6c0,0,61.5,40.1,121.1,39.3c0,0,4.6-57.4-13.8-116.5
						c0,0,61,44,128.3,43.5c0,0,3.5-77-27.4-124.7c0,0,72.6-37,85.1-74.7"/>
					<path class="st6" d="M1582.8,1758c0,0,0.6,71.3-73.8,74.9c0,0,20.2,50.8-2.5,79c0,0-29.3,32.8-73.8,8.7c0,0,11.6,32,16.2,58
						c0,0,4.2-13.3,3.7-23c0,0,6,17.8,32.2,41.8c0,0-11.6-23.6-14.8-37.4c0,0,18.9,26.7,43.4,45.8l-25.6-48.7l57,55.2l-42-64.9
						l53.9,50.8l-36.9-58.4l40,36.4l-33.8-51l30.7,19.4l-26.3-40.6l22.5,12.3l-10.4-24.1l40.2,25.7l-26.3-37.8l60.8,49.3l-41.7-54.7
						l83.8,67.2l-70.6-76.2l83.6,68.7l-77.1-83.3l75.6,55.8l-68-66.5l62.2,33.7l-56.4-48.8l49.6,22.3l-51.8-44l61,15.1l-51.2-27.2
						c0,0,45.5,11.4,74,6.1l-57.2-17.7l84.3-6.5l-90.6-15.9"/>
					<path class="st6" d="M1422.3,1905.7c5.9,2.8,16.1,11.4,16.1,11.4l3.1-2.3c0,0-11.4-11.6-20.3-12.9L1422.3,1905.7z"/>
					<path class="st6" d="M1463.2,1920.2l5.6-4.6c0,0-33.6-27.5-60.2-38.3l1.8,7.9C1410.5,1885.2,1440.6,1898.7,1463.2,1920.2z"/>
					<path class="st6" d="M1387,1849.7c54.1,12.4,99.3,55.6,99.3,55.6l-7.1,6.4c0,0-42.2-38.3-84.7-50.9L1387,1849.7z"/>
					<path class="st6" d="M1495.4,1894.3l6.6-8.6c0,0-66.1-53.7-139.1-56.4l14.6,9.1C1377.5,1838.3,1446.7,1854.6,1495.4,1894.3z"/>
					<path class="st6" d="M1499.8,1867.5c0,0,4-11.8-13.9-21.6c-17.9-9.8-73.9-32.1-109.8-24.4
						C1376.1,1821.5,1431,1825.9,1499.8,1867.5z"/>
					<path class="st6" d="M1403.3,1810.1c38.8,2,87.8,24.1,87.8,24.1l4.8-5.9C1495.9,1828.2,1443,1803.4,1403.3,1810.1"/>
					<path class="st6" d="M1522.9,1825l9.9-6.1c0,0-57.6-31.5-111-22C1421.8,1796.9,1484,1801.3,1522.9,1825z"/>
					<path class="st6" d="M1544.5,1809.6l7.3-8.7c0,0-55.2-26.4-115.8-15.5C1436,1785.4,1515.5,1790.5,1544.5,1809.6z"/>
					<path class="st6" d="M1557.2,1786.8l4.8-15.3c0,0-63.5-10-111.6-1C1450.4,1770.5,1536.4,1773.9,1557.2,1786.8z"/>
					<path class="st6" d="M1440.5,1759.2c0,0-55.2,91.2-175.4,37.2c0,0,54.7,8,89.2,3.5l-73.1-13.6l90.6-3.5l-101.4-9.4l85.7-13.5"
						/>
				</g>
			</g>
			<circle class="st6" cx="1167.2" cy="1758" r="28.4"/>
			<path class="st6" d="M1167.2,1682.6c-41.7,0-75.5,33.8-75.5,75.5s33.8,75.5,75.5,75.5c41.7,0,75.4-33.8,75.4-75.5
				S1208.9,1682.6,1167.2,1682.6z M1167.2,1818.7c-33.5,0-60.7-27.2-60.7-60.7s27.2-60.7,60.7-60.7c33.5,0,60.7,27.2,60.7,60.7
				S1200.8,1818.7,1167.2,1818.7z"/>
		</g>
	</g>
</g>
</svg>
