<?xml version="1.0" encoding="UTF-8" standalone="no"?>
<svg
   xmlns:dc="http://purl.org/dc/elements/1.1/"
   xmlns:cc="http://creativecommons.org/ns#"
   xmlns:rdf="http://www.w3.org/1999/02/22-rdf-syntax-ns#"
   xmlns:svg="http://www.w3.org/2000/svg"
   xmlns="http://www.w3.org/2000/svg"
   viewBox="0 0 139.44933 20.551332"
   height="20.551332"
   width="139.44933"
   xml:space="preserve"
   id="svg2"
   version="1.1"><metadata
     id="metadata8"><rdf:RDF><cc:Work
         rdf:about=""><dc:format>image/svg+xml</dc:format><dc:type
           rdf:resource="http://purl.org/dc/dcmitype/StillImage" /></cc:Work></rdf:RDF></metadata><defs
     id="defs6"><clipPath
       id="clipPath18"
       clipPathUnits="userSpaceOnUse"><path
         id="path16"
         d="M 0,15.413 H 104.587 V 0 H 0 Z" /></clipPath><linearGradient
       id="linearGradient274"
       spreadMethod="pad"
       gradientTransform="matrix(8.9128895,-19.113754,-19.113754,-8.9128895,3.9676001,17.263632)"
       gradientUnits="userSpaceOnUse"
       y2="0"
       x2="1"
       y1="0"
       x1="0"><stop
         id="stop268"
         offset="0"
         style="stop-opacity:1;stop-color:#ece0c2" /><stop
         id="stop270"
         offset="0.5"
         style="stop-opacity:1;stop-color:#ac8c4e" /><stop
         id="stop272"
         offset="1"
         style="stop-opacity:1;stop-color:#ac8c4e" /></linearGradient><linearGradient
       id="linearGradient296"
       spreadMethod="pad"
       gradientTransform="matrix(7.2996573,-15.654166,-15.654166,-7.2996573,4.859436,15.35121)"
       gradientUnits="userSpaceOnUse"
       y2="0"
       x2="1"
       y1="0"
       x1="0"><stop
         id="stop290"
         offset="0"
         style="stop-opacity:1;stop-color:#e15d6e" /><stop
         id="stop292"
         offset="0.5"
         style="stop-opacity:1;stop-color:#d2272d" /><stop
         id="stop294"
         offset="1"
         style="stop-opacity:1;stop-color:#b62a2d" /></linearGradient><clipPath
       id="clipPath306"
       clipPathUnits="userSpaceOnUse"><path
         id="path304"
         d="M 0,15.413 H 104.587 V 0 H 0 Z" /></clipPath></defs><g
     transform="matrix(1.3333333,0,0,-1.3333333,0,20.551333)"
     id="g10"><g
       id="g12"><g
         clip-path="url(#clipPath18)"
         id="g14"><g
           transform="translate(34.9388,14.4959)"
           id="g20"><path
             id="path22"
             style="fill:#f5f6f6;fill-opacity:1;fill-rule:nonzero;stroke:none"
             d="m 0,0 h -2.423 l -2.829,0.011 h -3.266 l -4.565,0.009 -2.505,-12.167 h 4.039 l 2.282,10.598 h 1.991 l -2.204,-10.59 4.051,0.008 2.196,10.582 h 2.066 l -2.237,-10.722 3.776,-1.327 2.431,11.7 C 2.908,-1.393 2.847,-1.009 2.617,-0.725 2.235,-0.256 1.33,-0.004 0,0" /></g><g
           transform="translate(47.1138,9.8457)"
           id="g24"><path
             id="path26"
             style="fill:#f5f6f6;fill-opacity:1;fill-rule:nonzero;stroke:none"
             d="m 0,0 h -3.191 l 0.623,3.086 h 3.19 z m -1.229,-5.922 h -3.257 l 0.955,4.348 3.214,-0.018 z M 1.821,4.661 H -3.01 c -2.281,0 -3.529,-0.675 -3.814,-2.067 L -7.306,0.263 c -0.035,-0.168 -0.166,-0.626 0.008,-0.832 0.224,-0.262 0.65,-0.323 0.65,-0.323 -0.867,-0.007 -1.054,-0.762 -1.121,-1.141 l -0.735,-3.544 c -0.107,-0.517 -0.045,-0.909 0.188,-1.197 0.381,-0.465 1.276,-0.712 2.59,-0.712 h 4.967 c 2.202,0.006 3.411,0.656 3.697,1.984 l 0.747,3.578 c 0.034,0.17 0.056,0.413 -0.041,0.617 -0.21,0.444 -0.576,0.415 -0.576,0.415 0,0 0.829,0.101 1.094,1.312 L 4.648,2.776 C 4.753,3.279 4.691,3.661 4.462,3.942 4.08,4.413 3.166,4.661 1.821,4.661" /></g><g
           transform="translate(61.1396,9.8457)"
           id="g28"><path
             id="path30"
             style="fill:#f5f6f6;fill-opacity:1;fill-rule:nonzero;stroke:none"
             d="m 0,0 h -3.19 l 0.621,3.086 h 3.191 z m -1.228,-5.922 h -3.258 l 0.955,4.348 3.215,-0.018 z M 1.822,4.661 H -3.01 c -2.281,0 -3.53,-0.675 -3.815,-2.067 L -7.307,0.263 c -0.034,-0.168 -0.165,-0.626 0.009,-0.832 0.224,-0.262 0.65,-0.323 0.65,-0.323 -0.866,-0.007 -1.054,-0.762 -1.12,-1.141 l -0.736,-3.544 c -0.107,-0.517 -0.046,-0.909 0.19,-1.197 0.379,-0.465 1.274,-0.712 2.589,-0.712 h 4.966 c 2.202,0.006 3.411,0.656 3.697,1.984 l 0.747,3.578 c 0.034,0.17 0.056,0.413 -0.041,0.617 -0.21,0.444 -0.575,0.415 -0.575,0.415 0,0 0.829,0.101 1.093,1.312 L 4.648,2.776 C 4.753,3.279 4.692,3.661 4.463,3.942 4.08,4.413 3.166,4.661 1.822,4.661" /></g><g
           transform="translate(72.6594,9.1227)"
           id="g32"><path
             id="path34"
             style="fill:#f5f6f6;fill-opacity:1;fill-rule:nonzero;stroke:none"
             d="m 0,0 -1.098,-5.291 c -0.207,-0.995 0.46,-1.492 2.007,-1.492 H 7.17 l -0.862,1.454 -4.326,0.007 1.104,5.299 H 7.475 L 7.888,1.516 H 2.626 C 1.09,1.516 0.214,1.011 0,0" /></g><g
           transform="translate(86.8977,3.8155)"
           id="g36"><path
             id="path38"
             style="fill:#f5f6f6;fill-opacity:1;fill-rule:nonzero;stroke:none"
             d="m 0,0 h -2.342 l 1.097,5.277 h 2.351 z m 2.193,6.786 h -3.924 c -1.567,0 -2.454,-0.497 -2.657,-1.487 l -1.096,-5.306 c -0.199,-0.981 0.48,-1.472 2.036,-1.478 h 3.903 c 1.575,0 2.473,0.503 2.688,1.509 L 4.231,5.292 C 4.44,6.287 3.76,6.786 2.193,6.786" /></g><g
           transform="translate(102.5119,10.6013)"
           id="g40"><path
             id="path42"
             style="fill:#f5f6f6;fill-opacity:1;fill-rule:nonzero;stroke:none"
             d="m 0,0 h -1.55 l -1.867,0.007 h -2.035 l -3.039,0.009 -1.784,-8.277 3.084,-0.006 1.464,6.796 0.767,0.006 -1.411,-6.793 3.103,-0.007 1.405,6.786 0.814,0.014 -1.418,-6.805 h 3.103 l 1.403,6.754 C 2.247,-0.511 1.567,-0.007 0,0" /></g><g
           transform="translate(27.3311,13.6924)"
           id="g44"><path
             id="path46"
             style="fill:#babcbf;fill-opacity:1;fill-rule:nonzero;stroke:none"
             d="m 0,0 c -0.433,0 -1.139,0.008 -1.734,0 -0.594,-0.009 -1.379,-0.654 -1.74,-0.946 -0.362,-0.293 -0.363,-0.456 -0.509,-1.159 -0.146,-0.702 -0.856,-4.075 -0.998,-4.748 -0.142,-0.673 -0.486,-2.317 -0.486,-2.317 -0.076,-0.363 -0.595,-0.644 -1.338,-1.254 -0.742,-0.611 -1.175,-0.919 -1.175,-0.919 h 4.039 l 2.282,10.597 h 1.991 l 0.949,0.427 C 0.854,-0.099 0.433,0 0,0" /></g><g
           transform="translate(33.6718,13.696)"
           id="g48"><path
             id="path50"
             style="fill:#babcbf;fill-opacity:1;fill-rule:nonzero;stroke:none"
             d="M 0,0 C -0.569,0 -1.78,0.005 -2.14,0 -2.5,-0.006 -2.883,-0.287 -3.52,-0.744 -4.156,-1.201 -4.11,-1.5 -4.255,-2.199 -4.4,-2.898 -5.591,-8.639 -5.669,-9.018 c -0.078,-0.379 -0.146,-0.397 -0.4,-0.608 -0.252,-0.21 -2.144,-1.713 -2.144,-1.713 l 4.051,0.008 2.196,10.581 H 0.1 l 1.03,0.376 C 0.976,-0.253 0.57,0 0,0" /></g><g
           transform="translate(37.7423,12.5977)"
           id="g52"><path
             id="path54"
             style="fill:#babcbf;fill-opacity:1;fill-rule:nonzero;stroke:none"
             d="M 0,0 C 0.104,0.505 0.044,0.889 -0.187,1.173 -0.232,1.229 -0.286,1.281 -0.345,1.33 -0.435,1.231 -0.528,1.125 -0.609,1.025 -0.873,0.699 -1.329,0.314 -1.676,0.111 -2.023,-0.093 -2.042,-0.246 -2.122,-0.63 -2.202,-1.014 -3.888,-9.107 -3.888,-9.107 l -2.32,-1.266 3.777,-1.327 z" /></g><g
           transform="translate(80.1343,9.0997)"
           id="g56"><path
             id="path58"
             style="fill:#babcbf;fill-opacity:1;fill-rule:nonzero;stroke:none"
             d="m 0,0 0.414,1.539 -1.03,-0.8 H -3.44 c -1.082,0 -1.306,-0.058 -1.874,-0.304 -0.567,-0.246 -0.681,-0.819 -0.785,-1.346 -0.104,-0.528 -0.869,-4.301 -0.869,-4.301 -0.368,-0.336 -1.278,-0.701 -1.557,-0.808 0.22,-0.493 0.871,-0.74 1.96,-0.74 h 6.26 l -0.862,1.454 -0.393,-0.751 h -3.652 c -0.728,0 -0.913,0.235 -0.913,0.235 0.311,0.165 0.633,0.523 0.633,0.523 L -4.389,0 Z" /></g><g
           transform="translate(83.45,2.3309)"
           id="g60"><path
             id="path62"
             style="fill:#babcbf;fill-opacity:1;fill-rule:nonzero;stroke:none"
             d="M 0,0 H 3.902 C 5.478,0 6.376,0.503 6.591,1.509 L 7.678,6.777 C 7.79,7.308 7.646,7.696 7.251,7.944 7.11,7.726 6.7,7.111 6.453,6.924 6.152,6.697 5.99,6.729 5.99,6.729 6.11,6.614 6.072,6.476 6.041,6.323 6.01,6.17 5.215,2.331 5.138,1.949 5.06,1.567 4.681,1.289 4.357,1.027 4.033,0.764 3.407,0.716 3.05,0.716 2.694,0.716 2.128,0.711 1.478,0.716 0.828,0.722 0.682,0.947 0.682,0.947 0.77,1.025 1.106,1.485 1.106,1.485 l 1.096,5.277 h 2.351 l 0.941,0.38 C 5.365,7.229 4.73,7.482 4.36,7.482 c -0.368,0 -1.514,0.003 -2.135,0 C 1.604,7.48 1.182,7.127 0.866,6.826 0.552,6.524 0.553,6.313 0.494,6.022 0.436,5.731 -0.376,1.79 -0.414,1.602 -0.451,1.414 -0.749,1.325 -0.977,1.161 -1.168,1.025 -1.702,0.679 -1.877,0.567 -1.585,0.193 -0.96,0.004 0,0" /></g><g
           transform="translate(97.11,9.8481)"
           id="g64"><path
             id="path66"
             style="fill:#babcbf;fill-opacity:1;fill-rule:nonzero;stroke:none"
             d="m 0,0 c -0.727,0 -1.089,-0.214 -1.449,-0.431 -0.361,-0.217 -0.432,-0.422 -0.507,-0.773 -0.074,-0.351 -0.859,-4.008 -0.922,-4.304 -0.063,-0.296 -0.113,-0.459 -0.268,-0.63 -0.155,-0.171 -1.727,-1.37 -1.727,-1.37 l 3.084,-0.006 1.464,6.796 0.767,0.006 1.088,0.237 C 1.265,-0.245 0.726,0 0,0" /></g><g
           transform="translate(101.5356,9.8239)"
           id="g68"><path
             id="path70"
             style="fill:#babcbf;fill-opacity:1;fill-rule:nonzero;stroke:none"
             d="M 0,0 C -0.909,0.096 -1.335,-0.072 -1.837,-0.3 -2.338,-0.529 -2.45,-0.8 -2.507,-1.092 -2.564,-1.384 -3.381,-5.352 -3.436,-5.614 -3.49,-5.876 -3.58,-6.032 -3.719,-6.145 -3.859,-6.257 -4.196,-6.528 -4.567,-6.836 -4.938,-7.143 -5.394,-7.48 -5.394,-7.48 l 3.103,-0.008 1.404,6.787 0.815,0.014 0.729,0.469 c 0,0 -0.331,0.183 -0.657,0.218" /></g><g
           transform="translate(103.1477,2.3309)"
           id="g72"><path
             id="path74"
             style="fill:#babcbf;fill-opacity:1;fill-rule:nonzero;stroke:none"
             d="M 0,0 1.403,6.755 C 1.501,7.226 1.4,7.585 1.108,7.836 0.866,7.399 0.212,6.955 0.016,6.837 -0.188,6.713 -0.199,6.459 -0.252,6.189 -0.305,5.919 -1.029,2.432 -1.107,2.045 -1.186,1.658 -1.249,1.502 -1.423,1.344 -1.581,1.198 -2.89,0.171 -3.101,0.006 L -3.102,0 Z" /></g><g
           transform="translate(43.3465,13.2013)"
           id="g76"><path
             id="path78"
             style="fill:#ffffff;fill-opacity:1;fill-rule:nonzero;stroke:none"
             d="m 0,0 c -0.035,0.229 -0.132,0.848 -0.204,1.257 -1.532,-0.159 -2.446,-0.73 -2.775,-1.731 0.014,-0.007 0.026,-0.016 0.041,-0.021 l 2.02,-0.619 c 0.109,0.288 0.261,0.502 0.543,0.785 C -0.247,-0.2 -0.123,-0.094 0,0" /></g><g
           transform="translate(41.6934,8.6093)"
           id="g80"><path
             id="path82"
             style="fill:#ffffff;fill-opacity:1;fill-rule:nonzero;stroke:none"
             d="M 0,0 -1.228,0.344 C -1.662,0.341 -1.925,0.149 -2.089,-0.089 l 1.736,-1.386 c 0.14,0.602 0.264,1.138 0.315,1.364 C -0.028,-0.07 -0.013,-0.037 0,0" /></g><g
           transform="translate(48.4408,8.7346)"
           id="g84"><path
             id="path86"
             style="fill:#ffffff;fill-opacity:1;fill-rule:nonzero;stroke:none"
             d="m 0,0 c 0,0 0.318,0.231 0.441,0.527 -0.03,0.009 -0.067,0.017 -0.122,0.017 -0.556,0.007 -1.646,0.567 -1.646,0.567 0,0 -0.015,-0.504 0.011,-0.625 C -1.297,0.396 -1.427,0.317 -1.498,0.28 -1.126,0.257 -0.81,0.176 -0.584,0.122 -0.12,0.03 0,0 0,0" /></g><g
           transform="translate(45.8741,3.3886)"
           id="g88"><path
             id="path90"
             style="fill:#ffffff;fill-opacity:1;fill-rule:nonzero;stroke:none"
             d="m 0,0 c 0.029,-0.139 -2.264,-0.275 -2.264,-0.275 l 0.029,-0.007 h 2.391 c 0.369,0 0.84,0.258 1.169,0.469 L 0.011,0.535 C 0.011,0.535 -0.029,0.139 0,0" /></g><g
           transform="translate(57.3631,13.2195)"
           id="g92"><path
             id="path94"
             style="fill:#ffffff;fill-opacity:1;fill-rule:nonzero;stroke:none"
             d="M 0,0 C -0.038,0.242 -0.132,0.839 -0.202,1.239 -1.733,1.08 -2.648,0.509 -2.977,-0.492 -2.963,-0.499 -2.95,-0.508 -2.936,-0.513 L -1,-1.081 l 0.141,0.134 c 0.103,0.203 0.242,0.381 0.46,0.6 C -0.262,-0.21 -0.13,-0.098 0,0" /></g><g
           transform="translate(55.6889,8.6159)"
           id="g96"><path
             id="path98"
             style="fill:#ffffff;fill-opacity:1;fill-rule:nonzero;stroke:none"
             d="M 0,0 -1.204,0.338 C -1.638,0.334 -1.902,0.142 -2.065,-0.096 l 1.714,-1.368 c 0.138,0.595 0.26,1.122 0.311,1.346 C -0.03,-0.074 -0.013,-0.039 0,0" /></g><g
           transform="translate(62.4338,8.7346)"
           id="g100"><path
             id="path102"
             style="fill:#ffffff;fill-opacity:1;fill-rule:nonzero;stroke:none"
             d="M 0,0 C 0,0 0.323,0.235 0.444,0.533 0.417,0.539 0.387,0.544 0.345,0.544 c -0.556,0.007 -1.646,0.567 -1.646,0.567 0,0 -0.015,-0.504 0.011,-0.625 C -1.271,0.395 -1.404,0.315 -1.474,0.279 -1.112,0.253 -0.805,0.175 -0.584,0.122 -0.12,0.03 0,0 0,0" /></g><g
           transform="translate(59.8932,3.3886)"
           id="g104"><path
             id="path106"
             style="fill:#ffffff;fill-opacity:1;fill-rule:nonzero;stroke:none"
             d="m 0,0 c 0.029,-0.139 -2.264,-0.275 -2.264,-0.275 l 0.028,-0.007 H 0.13 c 0.372,0 0.848,0.263 1.177,0.473 L 0.011,0.535 C 0.011,0.535 -0.029,0.139 0,0" /></g><g
           transform="translate(74.6812,9.4569)"
           id="g108"><path
             id="path110"
             style="fill:#ffffff;fill-opacity:1;fill-rule:nonzero;stroke:none"
             d="m 0,0 -0.013,1.147 c -1.004,-0.109 -1.641,-0.496 -1.91,-1.166 0.298,-0.114 1.12,-0.446 1.381,-0.761 0.002,-0.004 0.005,-0.005 0.007,-0.008 C -0.443,-0.472 -0.296,-0.183 0,0" /></g><g
           transform="translate(84.6452,9.4394)"
           id="g112"><path
             id="path114"
             style="fill:#ffffff;fill-opacity:1;fill-rule:nonzero;stroke:none"
             d="m 0,0 -0.013,0.019 c 0,0 -0.083,0.798 -0.129,1.104 -1.053,-0.117 -1.696,-0.534 -1.931,-1.245 l 1.459,-0.575 c 0.046,0.13 0.125,0.26 0.285,0.414 C -0.231,-0.19 -0.121,-0.092 0,0" /></g><g
           transform="translate(86.5005,3.0472)"
           id="g116"><path
             id="path118"
             style="fill:#ffffff;fill-opacity:1;fill-rule:nonzero;stroke:none"
             d="m 0,0 c 0.357,0 0.982,0.048 1.307,0.311 0.049,0.039 0.099,0.08 0.149,0.12 L 0.397,0.768 H 0.309 C 0.35,0.629 0.41,0.376 0.361,0.221 0.298,0.02 -1.349,0.048 -1.913,0.03 -1.818,0.013 -1.708,0.001 -1.572,0 -0.922,-0.005 -0.356,0 0,0" /></g><g
           transform="translate(40.4658,8.9538)"
           id="g120"><path
             id="path122"
             style="fill:#babcbf;fill-opacity:1;fill-rule:nonzero;stroke:none"
             d="m 0,0 1.191,0.543 c 0,0 -1.359,-0.327 -1.889,-0.138 C -0.685,0.375 -0.67,0.347 -0.65,0.323 -0.426,0.061 0,0 0,0" /></g><g
           transform="translate(51.5757,13.7881)"
           id="g124"><path
             id="path126"
             style="fill:#babcbf;fill-opacity:1;fill-rule:nonzero;stroke:none"
             d="m 0,0 c -0.018,0.022 -0.042,0.041 -0.063,0.062 -0.408,-0.456 -1.472,-1.151 -1.624,-1.256 -0.163,-0.113 -0.197,-0.238 -0.271,-0.591 -0.074,-0.354 -0.611,-2.421 -0.728,-2.724 -0.117,-0.304 -0.449,-0.544 -0.449,-0.544 0.121,-0.111 0.332,-0.485 0.319,-0.742 -0.013,-0.256 -0.426,-2.264 -0.567,-2.94 -0.142,-0.676 -0.442,-1.099 -0.7,-1.281 -0.259,-0.181 -0.957,-0.666 -1.463,-0.666 H -8.69 c -0.597,0 -0.794,0.195 -0.794,0.195 l 0.536,0.623 0.955,4.347 3.214,-0.018 1.06,0.603 c -0.265,0.064 -0.649,0.169 -1.111,0.169 h -2.507 c -0.64,0 -0.878,0.118 -0.878,0.118 l 0.562,0.703 0.623,3.085 h 3.19 l 0.718,0.557 c 0,0 -0.347,0.208 -0.907,0.209 -0.559,0.001 -2.345,0 -2.863,0 -0.517,0 -1.08,-0.189 -1.712,-0.825 -0.455,-0.456 -0.571,-0.734 -0.72,-1.426 -0.078,-0.36 -0.229,-1.197 -0.26,-1.391 -0.032,-0.194 0.059,-0.725 0.389,-0.809 0,0 -0.576,-0.099 -0.725,-0.748 -0.148,-0.649 -0.894,-3.859 -0.894,-3.859 -0.096,-0.429 -0.411,-0.506 -0.764,-0.716 -0.326,-0.193 -1.235,-0.47 -1.373,-0.511 0.04,-0.125 0.093,-0.241 0.174,-0.34 0.38,-0.466 1.275,-0.713 2.589,-0.713 h 4.967 c 2.202,0.006 3.411,0.657 3.697,1.984 l 0.747,3.579 c 0.034,0.169 0.056,0.412 -0.041,0.616 -0.041,0.088 -0.089,0.152 -0.138,0.207 -0.651,-0.181 -1.261,-0.094 -1.261,-0.094 0.404,0.013 0.823,0.303 0.823,0.303 0,0 0.829,0.101 1.094,1.312 l 0.486,2.355 C 0.291,-0.664 0.229,-0.282 0,0" /></g><g
           transform="translate(54.4879,8.9538)"
           id="g128"><path
             id="path130"
             style="fill:#babcbf;fill-opacity:1;fill-rule:nonzero;stroke:none"
             d="m 0,0 1.191,0.543 c 0,0 -1.359,-0.327 -1.889,-0.138 C -0.685,0.375 -0.67,0.347 -0.65,0.323 -0.426,0.061 0,0 0,0" /></g><g
           transform="translate(65.5978,13.7881)"
           id="g132"><path
             id="path134"
             style="fill:#babcbf;fill-opacity:1;fill-rule:nonzero;stroke:none"
             d="m 0,0 c -0.018,0.022 -0.042,0.041 -0.063,0.062 -0.408,-0.456 -1.472,-1.151 -1.624,-1.256 -0.163,-0.113 -0.197,-0.238 -0.271,-0.591 -0.074,-0.354 -0.611,-2.421 -0.728,-2.724 -0.117,-0.304 -0.449,-0.544 -0.449,-0.544 0.121,-0.111 0.332,-0.485 0.319,-0.742 -0.013,-0.256 -0.426,-2.264 -0.567,-2.94 -0.142,-0.676 -0.442,-1.099 -0.7,-1.281 -0.259,-0.181 -0.957,-0.666 -1.463,-0.666 H -8.69 c -0.597,0 -0.794,0.195 -0.794,0.195 l 0.536,0.623 0.955,4.347 3.214,-0.018 1.06,0.603 c -0.265,0.064 -0.649,0.169 -1.11,0.169 h -2.508 c -0.64,0 -0.878,0.118 -0.878,0.118 l 0.562,0.703 0.623,3.085 h 3.19 l 0.718,0.557 c 0,0 -0.347,0.208 -0.907,0.209 -0.559,0.001 -2.345,0 -2.863,0 -0.517,0 -1.08,-0.189 -1.712,-0.825 -0.455,-0.456 -0.571,-0.734 -0.72,-1.426 -0.078,-0.36 -0.229,-1.197 -0.26,-1.391 -0.031,-0.194 0.059,-0.725 0.389,-0.809 0,0 -0.576,-0.099 -0.725,-0.748 -0.148,-0.649 -0.894,-3.859 -0.894,-3.859 -0.096,-0.429 -0.411,-0.506 -0.764,-0.716 -0.326,-0.193 -1.235,-0.47 -1.373,-0.511 0.04,-0.125 0.093,-0.241 0.174,-0.34 0.38,-0.466 1.275,-0.713 2.589,-0.713 h 4.967 c 2.202,0.006 3.411,0.657 3.697,1.984 l 0.747,3.579 c 0.034,0.169 0.056,0.412 -0.041,0.616 -0.041,0.088 -0.089,0.152 -0.138,0.207 -0.651,-0.181 -1.261,-0.094 -1.261,-0.094 0.404,0.013 0.823,0.303 0.823,0.303 0,0 0.829,0.101 1.094,1.312 l 0.486,2.355 C 0.291,-0.664 0.229,-0.282 0,0" /></g><g
           transform="translate(89.4401,9.0597)"
           id="g136"><path
             id="path138"
             style="fill:#d9dbdd;fill-opacity:1;fill-rule:nonzero;stroke:none"
             d="M 0,0 C 0,0 -0.272,0.253 -0.496,0.414 L -1.437,0.033 -1.464,-0.096 H 0.062 C 0.05,-0.063 0.032,-0.03 0,0" /></g><g
           transform="translate(27.6632,12.9464)"
           id="g140"><path
             id="path142"
             style="fill:#d9dbdd;fill-opacity:1;fill-rule:nonzero;stroke:none"
             d="m 0,0 -0.028,-0.135 h 1.76 c 0,0 -0.39,0.312 -0.789,0.559 z" /></g><g
           transform="translate(33.7878,12.9525)"
           id="g144"><path
             id="path146"
             style="fill:#d9dbdd;fill-opacity:1;fill-rule:nonzero;stroke:none"
             d="m 0,0 -0.017,-0.009 -0.029,-0.139 h 1.755 c 0,0 -0.34,0.273 -0.711,0.511 z" /></g><g
           transform="translate(41.9865,9.9535)"
           id="g148"><path
             id="path150"
             style="fill:#d9dbdd;fill-opacity:1;fill-rule:nonzero;stroke:none"
             d="m 0,0 c -0.417,-0.129 -1.232,-0.374 -2.142,-0.616 0.572,-0.138 1.812,0.159 1.812,0.159 l -1.19,-0.542 1.328,-0.129 c 0.224,0.352 0.586,0.421 0.586,0.421 C 0.111,-0.635 0.005,-0.236 0,0" /></g><g
           transform="translate(47.8108,8.8303)"
           id="g152"><path
             id="path154"
             style="fill:#d9dbdd;fill-opacity:1;fill-rule:nonzero;stroke:none"
             d="m 0,0 -1.014,-0.577 c 0,0 0.843,-0.053 1.223,-0.006 0.312,0.039 0.505,0.105 0.62,0.192 -0.062,0.127 -0.137,0.236 -0.194,0.29 C 0.483,-0.078 0.221,-0.038 0,0" /></g><g
           transform="translate(48.439,13.4968)"
           id="g156"><path
             id="path158"
             style="fill:#d9dbdd;fill-opacity:1;fill-rule:nonzero;stroke:none"
             d="m 0,0 c 0.009,-0.005 0.015,-0.008 0.015,-0.008 l -0.719,-0.558 -0.02,-0.099 1.455,0.126 c 0,0 -0.332,0.377 -0.731,0.539" /></g><g
           transform="translate(50.2748,14.4002)"
           id="g160"><path
             id="path162"
             style="fill:#d9dbdd;fill-opacity:1;fill-rule:nonzero;stroke:none"
             d="M 0,0 C 0.13,-0.116 0.151,-0.181 0.139,-0.253 0.125,-0.333 -0.128,-1.63 -0.128,-1.63 l 0.001,-0.001 C 0.255,-1.37 0.932,-0.893 1.238,-0.55 1.259,-0.571 1.283,-0.59 1.301,-0.612 1.064,-0.32 0.622,-0.114 0,0" /></g><g
           transform="translate(56.0128,10.0182)"
           id="g164"><path
             id="path166"
             style="fill:#d9dbdd;fill-opacity:1;fill-rule:nonzero;stroke:none"
             d="m 0,0 c -0.399,-0.144 -1.129,-0.394 -2.144,-0.681 0.572,-0.138 1.812,0.159 1.812,0.159 l -1.189,-0.542 1.338,-0.109 c 0.225,0.336 0.575,0.401 0.575,0.401 C 0.08,-0.693 -0.017,-0.215 0,0" /></g><g
           transform="translate(62.4983,8.7612)"
           id="g168"><path
             id="path170"
             style="fill:#d9dbdd;fill-opacity:1;fill-rule:nonzero;stroke:none"
             d="m 0,0 c -0.005,0.002 -0.013,0.006 -0.019,0.009 -0.027,-0.022 -0.045,-0.036 -0.045,-0.036 0,0 -0.118,0.029 -0.561,0.118 l -1.052,-0.599 h 0.003 c 0,0 0.842,-0.053 1.223,-0.006 0.31,0.038 0.502,0.103 0.618,0.19 -0.065,0.131 -0.143,0.245 -0.201,0.297 0,0 0.015,0.011 0.034,0.027" /></g><g
           transform="translate(62.4532,13.5016)"
           id="g172"><path
             id="path174"
             style="fill:#d9dbdd;fill-opacity:1;fill-rule:nonzero;stroke:none"
             d="M 0,0 C 0.014,-0.008 0.025,-0.013 0.025,-0.013 L -0.694,-0.57 h 0.004 l -0.02,-0.1 1.454,0.126 c 0,0 -0.339,0.385 -0.744,0.544" /></g><g
           transform="translate(64.3024,14.4002)"
           id="g176"><path
             id="path178"
             style="fill:#d9dbdd;fill-opacity:1;fill-rule:nonzero;stroke:none"
             d="M 0,0 C 0.129,-0.116 0.15,-0.181 0.138,-0.253 0.125,-0.332 -0.125,-1.614 -0.128,-1.629 0.255,-1.367 0.929,-0.892 1.234,-0.55 1.255,-0.571 1.28,-0.59 1.297,-0.612 1.306,-0.624 1.313,-0.636 1.322,-0.647 1.314,-0.636 1.309,-0.623 1.301,-0.612 1.064,-0.32 0.622,-0.114 0,0" /></g><g
           transform="translate(56.6489,3.9215)"
           id="g180"><path
             id="path182"
             style="fill:#d9dbdd;fill-opacity:1;fill-rule:nonzero;stroke:none"
             d="m 0,0 -0.533,-0.621 c 0,0 0.11,-0.109 0.417,-0.164 0.064,0.235 0.23,0.692 0.227,0.787 H 0.005 Z" /></g><g
           transform="translate(42.6317,3.9215)"
           id="g184"><path
             id="path186"
             style="fill:#d9dbdd;fill-opacity:1;fill-rule:nonzero;stroke:none"
             d="m 0,0 -0.534,-0.621 c 0,0 0.111,-0.109 0.418,-0.164 0.064,0.235 0.229,0.692 0.226,0.787 H 0.005 Z" /></g><g
           transform="translate(71.6162,3.0817)"
           id="g188"><path
             id="path190"
             style="fill:#d9dbdd;fill-opacity:1;fill-rule:nonzero;stroke:none"
             d="M 0,0 C 0.167,0.064 0.541,0.215 0.898,0.395 0.589,0.375 0.124,0.349 -0.087,0.338 -0.079,0.214 -0.045,0.103 0,0" /></g><g
           transform="translate(74.0097,3.2778)"
           id="g192"><path
             id="path194"
             style="fill:#d9dbdd;fill-opacity:1;fill-rule:nonzero;stroke:none"
             d="M 0,0 C 0,0 0.117,-0.143 0.515,-0.206 0.75,0.156 0.632,0.523 0.632,0.523 0.632,0.523 0.311,0.165 0,0" /></g><g
           transform="translate(89.4401,9.0597)"
           id="g196"><path
             id="path198"
             style="fill:#d9dbdd;fill-opacity:1;fill-rule:nonzero;stroke:none"
             d="M 0,0 0.13,0.016 C 0.208,0.038 0.319,0.087 0.463,0.196 0.708,0.381 1.116,0.991 1.259,1.212 1.025,1.359 0.706,1.459 0.294,1.506 0.256,1.119 0.162,0.425 0,0" /></g><g
           transform="translate(81.5796,2.9018)"
           id="g200"><path
             id="path202"
             style="fill:#d9dbdd;fill-opacity:1;fill-rule:nonzero;stroke:none"
             d="M 0,0 C 0.18,0.116 0.704,0.455 0.893,0.59 1.005,0.67 1.132,0.732 1.238,0.796 1.236,0.796 0.085,0.56 -0.199,0.567 -0.194,0.343 -0.123,0.157 0,0" /></g><g
           transform="translate(98.6383,9.3728)"
           id="g204"><path
             id="path206"
             style="fill:#d9dbdd;fill-opacity:1;fill-rule:nonzero;stroke:none"
             d="M 0,0 -1.086,-0.236 -1.094,-0.273 H 0.149 C 0.149,-0.273 0.107,-0.107 0,0" /></g><g
           transform="translate(102.1892,9.6041)"
           id="g208"><path
             id="path210"
             style="fill:#d9dbdd;fill-opacity:1;fill-rule:nonzero;stroke:none"
             d="M 0,0 -0.726,-0.467 -0.734,-0.504 H 0.509 C 0.509,-0.504 0.192,-0.116 0,0" /></g><g
           transform="translate(36.0666,12.7085)"
           id="g212"><path
             id="path214"
             style="fill:#d9dbdd;fill-opacity:1;fill-rule:nonzero;stroke:none"
             d="M 0,0 C 0.347,0.203 0.802,0.588 1.067,0.914 1.148,1.014 1.241,1.12 1.331,1.219 1.39,1.17 1.444,1.118 1.489,1.063 1.299,1.296 0.98,1.475 0.544,1.597 0.409,0.861 -0.25,-0.188 -0.272,-0.223 -0.214,-0.146 -0.13,-0.076 0,0" /></g><g
           transform="translate(38.6251,3.4123)"
           id="g216"><path
             id="path218"
             style="fill:#d9dbdd;fill-opacity:1;fill-rule:nonzero;stroke:none"
             d="M 0,0 C 0.137,0.041 1.046,0.318 1.373,0.511 1.575,0.631 1.763,0.709 1.906,0.833 1.604,0.742 0.927,0.575 -0.059,0.525 -0.073,0.327 -0.049,0.155 0,0" /></g><g
           transform="translate(52.6484,3.4123)"
           id="g220"><path
             id="path222"
             style="fill:#d9dbdd;fill-opacity:1;fill-rule:nonzero;stroke:none"
             d="M 0,0 C 0.137,0.041 1.046,0.318 1.373,0.511 1.574,0.631 1.763,0.709 1.906,0.833 1.603,0.742 0.927,0.575 -0.06,0.525 -0.073,0.327 -0.05,0.155 0,0" /></g><g
           transform="translate(103.0826,9.0991)"
           id="g224"><path
             id="path226"
             style="fill:#d9dbdd;fill-opacity:1;fill-rule:nonzero;stroke:none"
             d="m 0,0 c 0.024,0.025 0.049,0.049 0.081,0.068 0.196,0.119 0.85,0.562 1.092,1 C 1.21,1.037 1.243,1.004 1.273,0.97 1.131,1.131 0.926,1.257 0.653,1.345 0.481,0.959 -0.002,0.001 -0.002,0.001 Z" /></g><g
           transform="translate(16.7697,12.2198)"
           id="g228"><path
             id="path230"
             style="fill:#79787d;fill-opacity:1;fill-rule:nonzero;stroke:none"
             d="M 0,0 C 0,0 0,0.001 0,0.001 0,0.001 0,0 0,0" /></g><g
           transform="translate(16.6522,12.2888)"
           id="g232"><path
             id="path234"
             style="fill:#79787d;fill-opacity:1;fill-rule:nonzero;stroke:none"
             d="M 0,0 C 0.005,-0.002 0.01,-0.004 0.015,-0.006 0.01,-0.004 0.005,-0.002 0,0" /></g><g
           transform="translate(67.7592,5.293)"
           id="g236"><path
             id="path238"
             style="fill:#e13348;fill-opacity:1;fill-rule:nonzero;stroke:none"
             d="m 0,0 c -0.81,0 -1.467,-0.656 -1.467,-1.466 0,-0.811 0.657,-1.468 1.467,-1.468 0.81,0 1.466,0.657 1.466,1.468 C 1.466,-0.656 0.81,0 0,0" /></g><g
           transform="translate(67.7592,2.3593)"
           id="g240"><path
             id="path242"
             style="fill:#bb2933;fill-opacity:1;fill-rule:nonzero;stroke:none"
             d="M 0,0 C 0.81,0 1.466,0.657 1.466,1.468 1.466,1.831 1.329,2.159 1.11,2.415 0.77,2.171 0.309,1.678 0.134,1.575 0.036,1.519 0.038,1.488 -0.063,1.401 -0.154,1.321 -1.012,0.723 -1.181,0.604 -0.914,0.24 -0.486,0 0,0" /></g><g
           transform="translate(67.6126,5.2784)"
           id="g244"><path
             id="path246"
             style="fill:#e1465b;fill-opacity:1;fill-rule:nonzero;stroke:none"
             d="m 0,0 c -0.537,-0.054 -0.991,-0.392 -1.197,-0.867 l 1.316,-0.616 c 0.003,0.004 0.006,0.007 0.008,0.011 z" /></g><g
           transform="translate(67.672,3.7913)"
           id="g248"><path
             id="path250"
             style="fill:#e12439;fill-opacity:1;fill-rule:nonzero;stroke:none"
             d="m 0,0 -1.377,0.013 c 0.005,-0.315 0.115,-0.6 0.29,-0.836 0.178,0.124 1.02,0.712 1.111,0.792 0.015,0.012 0.026,0.023 0.034,0.033 C 0.026,-0.001 0,0 0,0" /></g><g
           transform="translate(68.1273,5.2409)"
           id="g252"><path
             id="path254"
             style="fill:#e12439;fill-opacity:1;fill-rule:nonzero;stroke:none"
             d="m 0,0 c -0.079,-0.397 -0.225,-1.141 -0.253,-1.316 0.007,0.003 0.011,0.006 0.019,0.01 0.18,0.092 0.635,0.596 0.975,0.839 C 0.551,-0.243 0.293,-0.076 0,0" /></g></g></g><g
       id="g256"><g
         id="g258"><g
           id="g264"><g
             id="g266"><path
               id="path276"
               style="fill:url(#linearGradient274);stroke:none"
               d="M 0,0 H 16.848 V 15.413 H 0 Z" /></g></g></g></g><g
       id="g278"><g
         id="g280"><g
           id="g286"><g
             id="g288"><path
               id="path298"
               style="fill:url(#linearGradient296);stroke:none"
               d="M 1.125,1.129 H 15.723 V 14.287 H 1.125 Z" /></g></g></g></g><g
       id="g300"><g
         clip-path="url(#clipPath306)"
         id="g302"><g
           transform="translate(10.57,7.5639)"
           id="g308"><path
             id="path310"
             style="fill:#962a2c;fill-opacity:1;fill-rule:nonzero;stroke:none"
             d="m 0,0 h -0.54 c -0.157,0 -0.228,-0.113 -0.228,-0.329 v -2.927 c 0,-0.573 0.242,-0.843 0.768,-0.886 z m 0,3.357 c 0,0.03 -0.013,0.044 -0.056,0.044 -0.043,0 -0.114,-0.028 -0.157,-0.057 L -0.54,3.144 C -0.725,3.03 -0.783,2.972 -0.783,2.886 V 1.457 c 0,-0.099 0.128,-0.17 0.229,-0.17 H 0 Z M -4.001,1.33 h 1.667 V 2.9 c 0,0.301 -1.068,1.115 -1.424,1.115 -0.157,0 -0.243,-0.1 -0.243,-0.286 z m -0.255,2.285 c 0,0.286 -0.029,0.386 -0.086,0.386 -0.129,0 -0.584,-0.286 -0.584,-0.386 v -3.957 c 0,-1.957 -0.228,-2.157 -0.74,-2.7 -0.228,-0.244 -0.285,-0.301 -0.456,-0.5 0.299,-0.414 1.296,-0.6 1.866,-0.573 z m 0.255,-3.642 v -5.187 c 0,-0.115 -0.028,-0.185 -0.128,-0.185 -0.099,0 -0.142,0.07 -0.142,0.185 v 0.686 h -0.256 c -0.242,0 -1.196,-0.801 -1.424,-0.956 -0.412,0.242 -0.926,0.485 -1.31,0.613 -0.213,-0.199 -0.37,-0.343 -0.469,-0.443 -0.1,-0.1 -0.143,-0.157 -0.185,-0.157 -0.071,0 -0.157,0.087 -0.157,0.157 0,0.072 0.157,0.244 0.882,0.987 0.499,0.513 0.699,1.127 0.699,2.07 0,1.557 -0.67,2.887 -1.439,2.887 -0.256,0 -0.384,-0.101 -0.427,-0.358 -0.014,-0.128 -0.071,-0.171 -0.128,-0.171 -0.114,0 -0.171,0.185 -0.171,0.5 0,0.714 0.498,1.286 1.111,1.286 0.527,0 0.74,-0.43 1.054,-0.386 v 1.043 c 0,0.271 -0.1,0.499 -0.3,0.671 -0.171,0.142 -1.053,0.743 -1.38,0.743 -0.115,0 -0.172,-0.043 -0.243,-0.043 -0.042,0 -0.057,0.014 -0.057,0.043 0,0.043 0.028,0.071 0.114,0.171 l 1.125,1.115 c 0.057,0.042 0.085,0.071 0.142,0.071 0.385,0 1.922,-1.228 2.107,-1.228 0.3,0 1.866,1.199 2.278,1.199 0.114,0 0.228,-0.099 1.097,-0.799 0.142,-0.115 0.427,-0.371 0.683,-0.529 0.228,-0.143 0.242,-0.171 0.242,-0.443 0.143,0.029 0.3,0.143 1.196,0.871 0.257,0.215 1.011,0.829 1.068,0.829 0.071,0 0.698,-0.257 1.624,-0.643 0.27,-0.114 0.312,-0.143 0.312,-0.314 v -7.386 c 0,-0.243 0.029,-0.329 0.128,-0.414 0.428,-0.372 0.684,-0.515 0.826,-0.515 0.043,0 0.1,0.015 0.143,0.057 0.071,0.1 0.085,0.115 0.128,0.115 0.043,0 0.085,-0.057 0.085,-0.115 0,-0.085 -0.641,-0.884 -1.295,-1.399 -0.399,0.143 -1.082,0.614 -1.467,1.013 -0.128,0.144 -0.156,0.172 -0.156,0.415 v 5.286 c 0,0.614 0.199,1.029 0.911,1.986 C 3.19,3.787 3.218,3.929 3.147,3.929 3.09,3.929 2.222,3.301 2.051,3.201 1.282,3.643 1.054,3.787 0.641,3.787 0.413,3.787 0.257,3.672 0.257,3.529 v -8.785 c 0,-0.114 -0.057,-0.2 -0.143,-0.2 C 0.044,-5.456 0,-5.384 0,-5.271 v 0.657 c -0.612,-0.099 -1.11,-0.813 -1.253,-0.813 -0.156,0 -1.081,1.113 -1.081,1.199 v 4.201 z" /></g><g
           transform="translate(10.3384,7.7933)"
           id="g312"><path
             id="path314"
             style="fill:#ffffff;fill-opacity:1;fill-rule:nonzero;stroke:none"
             d="m 0,0 h -0.541 c -0.157,0 -0.228,-0.115 -0.228,-0.33 v -2.928 c 0,-0.571 0.242,-0.843 0.769,-0.885 z M 0,3.357 C 0,3.385 -0.014,3.4 -0.057,3.4 -0.099,3.4 -0.17,3.371 -0.213,3.343 l -0.328,-0.2 C -0.725,3.029 -0.783,2.971 -0.783,2.885 V 1.457 c 0,-0.1 0.129,-0.172 0.228,-0.172 H 0 Z M -4.001,1.328 h 1.666 v 1.571 c 0,0.301 -1.068,1.115 -1.423,1.115 -0.158,0 -0.243,-0.1 -0.243,-0.287 z m -0.256,2.286 c 0,0.286 -0.029,0.385 -0.085,0.385 -0.127,0 -0.584,-0.285 -0.584,-0.385 v -3.957 c 0,-1.958 -0.228,-2.157 -0.74,-2.701 -0.228,-0.242 -0.284,-0.3 -0.456,-0.499 0.299,-0.415 1.296,-0.6 1.865,-0.572 z m 0.256,-3.642 v -5.187 c 0,-0.114 -0.028,-0.185 -0.128,-0.185 -0.1,0 -0.142,0.071 -0.142,0.185 v 0.685 h -0.256 c -0.242,0 -1.196,-0.799 -1.423,-0.957 -0.414,0.244 -0.927,0.486 -1.311,0.615 -0.214,-0.2 -0.37,-0.343 -0.47,-0.443 -0.099,-0.099 -0.142,-0.157 -0.184,-0.157 -0.072,0 -0.158,0.085 -0.158,0.157 0,0.072 0.158,0.243 0.884,0.987 0.498,0.513 0.697,1.128 0.697,2.07 0,1.557 -0.669,2.887 -1.438,2.887 -0.256,0 -0.385,-0.101 -0.427,-0.358 C -8.371,0.142 -8.428,0.1 -8.485,0.1 c -0.114,0 -0.172,0.186 -0.172,0.499 0,0.715 0.499,1.287 1.112,1.287 0.526,0 0.739,-0.429 1.053,-0.387 v 1.043 c 0,0.272 -0.1,0.5 -0.299,0.671 -0.171,0.144 -1.054,0.743 -1.381,0.743 -0.114,0 -0.171,-0.042 -0.242,-0.042 -0.043,0 -0.057,0.014 -0.057,0.042 0,0.043 0.028,0.072 0.114,0.172 l 1.125,1.114 c 0.057,0.043 0.085,0.072 0.142,0.072 0.385,0 1.922,-1.229 2.107,-1.229 0.299,0 1.865,1.2 2.279,1.2 0.113,0 0.227,-0.099 1.095,-0.8 0.143,-0.114 0.427,-0.372 0.684,-0.529 0.227,-0.142 0.242,-0.171 0.242,-0.442 0.142,0.028 0.299,0.143 1.196,0.871 0.256,0.214 1.011,0.829 1.068,0.829 0.071,0 0.698,-0.257 1.623,-0.643 C 3.475,4.457 3.517,4.429 3.517,4.257 v -7.386 c 0,-0.243 0.029,-0.329 0.128,-0.414 0.428,-0.372 0.683,-0.515 0.826,-0.515 0.043,0 0.1,0.015 0.142,0.058 0.071,0.1 0.086,0.114 0.128,0.114 0.043,0 0.086,-0.057 0.086,-0.114 0,-0.087 -0.641,-0.886 -1.296,-1.4 -0.398,0.143 -1.082,0.613 -1.466,1.013 -0.128,0.144 -0.156,0.172 -0.156,0.415 v 5.286 c 0,0.614 0.198,1.028 0.91,1.986 0.37,0.485 0.399,0.628 0.328,0.628 C 3.09,3.928 2.221,3.3 2.05,3.2 1.282,3.641 1.053,3.785 0.641,3.785 0.414,3.785 0.256,3.671 0.256,3.528 V -5.257 C 0.256,-5.372 0.2,-5.458 0.114,-5.458 0.043,-5.458 0,-5.387 0,-5.272 v 0.657 c -0.612,-0.1 -1.11,-0.814 -1.253,-0.814 -0.156,0 -1.082,1.114 -1.082,1.2 v 4.201 z" /></g><g
           transform="translate(1.0038,14.3987)"
           id="g316"><path
             id="path318"
             style="fill:#992d2c;fill-opacity:1;fill-rule:nonzero;stroke:none"
             d="m 0,0 v -13.384 l 0.132,0.127 v 13.13 H 14.708 L 14.84,0 Z" /></g><g
           transform="translate(15.7119,14.2712)"
           id="g320"><path
             id="path322"
             style="fill:#f3e1c4;fill-opacity:1;fill-rule:nonzero;stroke:none"
             d="m 0,0 v -13.128 h -14.577 l -0.131,-0.128 H 0.132 V 0.127 Z" /></g></g></g></g></svg>