<svg id="playing_cards_aces" xmlns="http://www.w3.org/2000/svg" width="139.3" height="211.7" viewBox="0 0 139.3 211.7"><style>.st0{fill:#828282}.st1{fill:url(#SVGID_1_)}.st2{fill:#eb3000}.st3{fill:#b50f00}</style><path class="st0" d="M138.1 200.9c0 5.8-4.7 10.5-10.5 10.4l-117.2-.2c-5.8 0-10.4-4.7-10.4-10.5L.3 12.5C.3 6.7 5 2 10.8 2l117.2.2c5.8 0 10.4 4.7 10.4 10.5l-.3 188.2z"/><linearGradient id="SVGID_1_" gradientUnits="userSpaceOnUse" x1="2.303" y1="189.366" x2="116.738" y2="-80.227" gradientTransform="translate(21.238 26.64)"><stop offset="0" stop-color="#e1e1e1"/><stop offset=".116" stop-color="#ececec"/><stop offset=".316" stop-color="#fafafa"/><stop offset=".491" stop-color="#fff"/><stop offset=".698" stop-color="#fcfcfc"/><stop offset=".853" stop-color="#f2f2f2"/><stop offset=".991" stop-color="#e2e2e2"/><stop offset="1" stop-color="#e1e1e1"/></linearGradient><path class="st1" d="M139.2 199.9c0 5.8-4.7 10.5-10.5 10.4l-117.2-.2c-5.8 0-10.4-4.7-10.4-10.5l.3-188.2C1.4 5.7 6.1 1 11.9 1l117.2.2c5.8 0 10.4 4.7 10.4 10.5l-.3 188.2z"/><path class="st2" d="M12.7 31.5c-1.7-3.2-6.1-2-6.1 1.1 0 3.5 4.5 5.3 6 8.6 1.6-3.2 6.1-5 6.1-8.5.1-3-4.3-4.3-6-1.2zM127.8 177.5c-1.7 3.2-6.1 2-6.1-1.2 0-3.5 4.5-5.3 6-8.6 1.5 3.3 6.1 5 6.1 8.5.1 3.2-4.3 4.5-6 1.3z"/><path class="st3" d="M13.7 19.8c0-.1-.1-.2-.2-.2h-1.8c-.1 0-.1.1-.1.1l-.4 2.2c0 .1 0 .3.1.4l.5.4.2.2c0 .1 0 .1-.2.1H9.1c-.1.1-.2 0-.2 0 0-.1.1-.1.2-.2l.7-.5c.1-.1.2-.3.2-.5l2.2-13.2c0-.1.1-.2.2-.2h.9c.1 0 .2.1.2.2l2.3 13.2c0 .2.1.4.3.5l.7.5c.1.1.1.1.1.2s0 .1-.2.1h-3.5c-.1 0-.2-.1-.2-.1 0-.1.1-.1.2-.2l.7-.5c.1-.1.1-.2.1-.4l-.3-2.1zm-.3-1.2c.1 0 .1-.1.1-.1l-.9-4.8-.8 4.8c0 .1 0 .1.1.1h1.5z"/><path class="st2" d="M13.7 19.8c0-.1-.1-.2-.2-.2h-1.8c-.1 0-.1.1-.1.1l-.4 2.2c0 .1 0 .3.1.4l.5.4.2.2c0 .1 0 .1-.2.1H9.1c-.1.1-.2 0-.2 0 0-.1.1-.1.2-.2l.7-.5c.1-.1.2-.3.2-.5l2.2-13.2c0-.1.1-.2.2-.2h.9c.1 0 .2.1.2.2l2.3 13.2c0 .2.1.4.3.5l.7.5c.1.1.1.1.1.2s0 .1-.2.1h-3.5c-.1 0-.2-.1-.2-.1 0-.1.1-.1.2-.2l.7-.5c.1-.1.1-.2.1-.4l-.3-2.1zm-.3-1.2c.1 0 .1-.1.1-.1l-.9-4.8-.8 4.8c0 .1 0 .1.1.1h1.5zM127.3 189.5c0 .1.1.2.2.2h1.8c.1 0 .1-.1.1-.1l.4-2.2c0-.1 0-.3-.1-.4l-.5-.5-.2-.2c0-.1 0-.1.2-.1h2.8c.1 0 .1.1.1.1 0 .1-.1.1-.2.2l-.7.5c-.1.1-.2.3-.2.5l-2.2 13.2c0 .1-.1.2-.2.2h-.9c-.1 0-.2-.1-.2-.2l-2.3-13.2c0-.2-.1-.4-.3-.5l-.7-.5c-.1-.1-.1-.1-.1-.2s0-.1.2-.1h3.5c.1 0 .2.1.2.1 0 .1-.1.1-.2.2l-.7.5c-.1.1-.1.2-.1.4l.3 2.1zm.4 1.3c-.1 0-.1.1-.1.1l.9 4.8.8-4.8c0-.1 0-.1-.1-.1h-1.5z"/></svg>