<svg id="playing_cards_aces" xmlns="http://www.w3.org/2000/svg" width="139.3" height="211.7" viewBox="0 0 139.3 211.7"><style>.st0{fill:#828282}.st1{fill:url(#SVGID_1_)}.st2{fill-rule:evenodd;clip-rule:evenodd;fill:#eb3000}.st3{fill:#b50f00}.st4{fill:#eb3000}</style><path class="st0" d="M138 200.9c0 5.8-4.7 10.5-10.5 10.4l-117.2-.2c-5.8 0-10.4-4.7-10.4-10.5L.1 12.5C.1 6.7 4.8 2 10.6 2l117.2.2c5.8 0 10.4 4.7 10.4 10.5l-.2 188.2z"/><linearGradient id="SVGID_1_" gradientUnits="userSpaceOnUse" x1="2.114" y1="189.366" x2="109.319" y2="-63.193" gradientTransform="translate(21.238 26.64)"><stop offset="0" stop-color="#e1e1e1"/><stop offset=".116" stop-color="#ececec"/><stop offset=".316" stop-color="#fafafa"/><stop offset=".491" stop-color="#fff"/><stop offset=".698" stop-color="#fcfcfc"/><stop offset=".853" stop-color="#f2f2f2"/><stop offset=".991" stop-color="#e2e2e2"/><stop offset="1" stop-color="#e1e1e1"/></linearGradient><path class="st1" d="M139 199.9c0 5.8-4.7 10.5-10.5 10.4l-117.2-.2c-5.8 0-10.4-4.7-10.4-10.5l.3-188.2C1.2 5.7 5.9 1 11.7 1l117.2.2c5.8 0 10.4 4.7 10.4 10.5l-.3 188.2z"/><path class="st2" d="M19.3 35.4c-1.1 0-6.2 5.2-6.2 6.4 0-1.1-5.2-6.2-6.4-6.2 1.1 0 6.2-5.2 6.2-6.4.1 1.2 5.3 6.3 6.4 6.2zM134.4 170.5c-1.1 0-6.3 5.2-6.3 6.3 0-1.1-5.2-6.3-6.3-6.3 1.1 0 6.3-5.2 6.3-6.3 0 1.2 5.2 6.3 6.3 6.3z"/><path class="st3" d="M13.8 19.8c0-.1-.1-.2-.2-.2h-1.8c-.1 0-.1.1-.1.1l-.4 2.2c0 .1 0 .3.1.4l.5.5.2.2c0 .1 0 .1-.2.1H9.2c-.1 0-.1-.1-.1-.1 0-.1.1-.1.2-.2l.7-.5c.1-.1.2-.3.2-.5l2.2-13.2c0-.1.1-.2.2-.2h.9c.1 0 .2.1.2.2L16 21.7c0 .2.1.4.3.5l.7.5c.1.1.1.1.1.2s0 .1-.2.1h-3.5c-.1 0-.2-.1-.2-.1 0-.1.1-.1.2-.2l.7-.5c.1-.1.1-.2.1-.4l-.4-2zm-.3-1.2c.1 0 .1-.1.1-.1l-.9-4.8-.8 4.8c0 .1 0 .1.1.1h1.5z"/><path class="st4" d="M13.8 19.8c0-.1-.1-.2-.2-.2h-1.8c-.1 0-.1.1-.1.1l-.4 2.2c0 .1 0 .3.1.4l.5.5.2.2c0 .1 0 .1-.2.1H9.2c-.1 0-.1-.1-.1-.1 0-.1.1-.1.2-.2l.7-.5c.1-.1.2-.3.2-.5l2.2-13.2c0-.1.1-.2.2-.2h.9c.1 0 .2.1.2.2L16 21.7c0 .2.1.4.3.5l.7.5c.1.1.1.1.1.2s0 .1-.2.1h-3.5c-.1 0-.2-.1-.2-.1 0-.1.1-.1.2-.2l.7-.5c.1-.1.1-.2.1-.4l-.4-2zm-.3-1.2c.1 0 .1-.1.1-.1l-.9-4.8-.8 4.8c0 .1 0 .1.1.1h1.5zM127.5 189.5c0 .1.1.2.2.2h1.8c.1 0 .1-.1.1-.1l.4-2.2c0-.1 0-.3-.1-.4l-.5-.4-.2-.2c0-.1 0-.1.2-.1h2.8c.1 0 .1.1.1.1 0 .1-.1.1-.2.2l-.7.5c-.1.1-.2.3-.2.5l-2.2 13.2c0 .1-.1.2-.2.2h-.9c-.1 0-.2-.1-.2-.2l-2.3-13.2c0-.2-.1-.4-.3-.5l-.7-.5c-.1-.1-.1-.1-.1-.2s0-.1.2-.1h3.5c.1 0 .2.1.2.1 0 .1-.1.1-.2.2l-.7.5c-.1.1-.1.2-.1.4l.3 2zm.3 1.3c-.1 0-.1.1-.1.1l.9 4.8.8-4.8c0-.1 0-.1-.1-.1h-1.5z"/></svg>