<svg id="playing_cards_aces" xmlns="http://www.w3.org/2000/svg" xmlns:xlink="http://www.w3.org/1999/xlink" width="2337.2" height="3520" viewBox="0 0 2337.2 3520"><style>.st0{clip-path:url(#SVGID_2_)}.st1{fill:#fff;stroke:#000;stroke-width:5;stroke-miterlimit:10}.st2{fill:none;stroke-width:30}.st2,.st3,.st4{stroke:#d82e37;stroke-miterlimit:10}.st3{fill:none;stroke-width:10}.st4{stroke-width:30}.st4,.st5{fill:#d82e37}.st6{fill:#fff}</style><defs><path id="SVGID_1_" d="M2328.4 3352.1c-.2 97.2-79.1 175.8-176.2 175.6l-1972.4-3.4c-97.2-.1-175.8-79-175.7-176.2L9.6 181.9C9.8 84.7 88.7 6.1 185.9 6.3l1972.4 3.4c97.1.2 175.8 79.1 175.6 176.2l-5.5 3166.2z"/></defs><clipPath id="SVGID_2_"><use xlink:href="#SVGID_1_" overflow="visible"/></clipPath><g class="st0"><path class="st1" d="M2341.4 3343.7c0 107.7-87.3 195.1-195.1 195.1H188.1C80.4 3538.8-7 3451.5-7 3343.7V179.2C-7 71.5 80.3-15.9 188.1-15.9h1958.2c107.7 0 195.1 87.3 195.1 195.1v3164.5z"/><path class="st2" d="M2113.7 3216.2c0 58.1-46.9 105.2-104.7 105.2H325.5c-57.8 0-104.7-47.1-104.7-105.2V306.7c0-58.1 46.9-105.1 104.7-105.1H2009c57.8 0 104.7 47.1 104.7 105.1v2909.5z"/><path class="st3" d="M383.8 357.6h1566.8v2800.9H383.8z"/><path class="st4" d="M434.6 400.4h1473.6v2717.9H434.6z"/><path class="st5" d="M398.5 242H533l25.9 34.2 27.2 36.2 16.1 21.4H487.2l6.8-9.6h88.1l-7.3-9h-72.3l6.8-9.6h60.8l-7.9-10.3h-47.1l6.9-9.6h33.6l-8.1-10.8h-19.1l6.9-9.6h4.3l-8.5-11.3-65 79.8zM556.7 242h134.6l25.8 34.2 27.3 36.2 16.1 21.4H645.4l6.9-9.6h88.1l-7.3-9h-72.4l6.9-9.6h60.7l-7.9-10.3h-47.1l6.9-9.6h33.7l-8.2-10.8h-19l6.9-9.6h4.3l-8.5-11.3-65 79.8zM713.8 242h134.6l25.8 34.2 27.3 36.2 16.1 21.4H802.5l6.9-9.6h88.1l-7.3-9h-72.4l6.9-9.6h60.7l-7.8-10.3h-47.2l6.9-9.6H871l-8.2-10.8h-19l6.9-9.6h4.3l-8.5-11.3-65 79.8zM872.1 242h134.6l25.8 34.2 27.3 36.2 16.1 21.4H960.8l6.9-9.6h88l-7.2-9h-72.4l6.9-9.6h60.7l-7.9-10.3h-47.1l6.9-9.6h33.6l-8.1-10.8H1002l6.9-9.6h4.4l-8.5-11.3-65 79.8zM1020.1 242h134.6l25.8 34.2 27.3 36.2 16.1 21.4h-115.1l6.9-9.6h88.1l-7.3-9h-72.4l6.9-9.6h60.7l-7.9-10.3h-47.1l6.9-9.6h33.6l-8.1-10.8h-19l6.8-9.6h4.4l-8.5-11.3-65 79.8zM1178.4 242H1313l25.8 34.2 27.3 36.2 16 21.4H1267.1l6.9-9.6h88l-7.3-9h-72.3l6.9-9.6h60.7l-7.9-10.3H1295l6.9-9.6h33.6l-8.1-10.8h-19.1l6.9-9.6h4.3L1311 254l-65 79.8zM1335.5 242h134.6l25.8 34.2 27.3 36.2 16.1 21.4H1424.2l6.9-9.6h88l-7.2-9h-72.4l6.9-9.6h60.7l-7.9-10.3h-47.1l6.9-9.6h33.6l-8.1-10.8h-19.1l6.9-9.6h4.4l-8.6-11.3-64.9 79.8zM1493.8 242h134.5l25.8 34.2 27.3 36.2 16.1 21.4h-115.1l6.9-9.6h88.1l-7.3-9h-72.4l6.9-9.6h60.7l-7.8-10.3h-47.2l6.9-9.6h33.7l-8.2-10.8h-19l6.9-9.6h4.3l-8.5-11.3-65 79.8zM1644 242h134.5l25.9 34.2 27.3 36.2 16 21.4H1732.7l6.9-9.6h88l-7.3-9H1748l6.8-9.6h60.8l-7.9-10.3h-47.1l6.9-9.6h33.6l-8.1-10.8h-19.1l6.9-9.6h4.3l-8.5-11.3-65 79.8zM1938.7 242l-71.3 91.8-67.7-91.8zM1931.7 3278.9h-134.5l-25.8-34.2-27.3-36.2-16.1-21.4h115l-6.8 9.6h-88.1l7.3 9h72.3l-6.8 9.6h-60.7l7.8 10.3h47.1l-6.8 9.6h-33.7l8.1 10.8h19.1l-6.9 9.6h-4.3l8.5 11.3 65-79.8zM1773.5 3278.9h-134.6l-25.8-34.2-27.3-36.2-16.1-21.4H1684.8l-6.9 9.6h-88l7.2 9h72.4l-6.9 9.6h-60.7l7.9 10.3h47.1l-6.9 9.6h-33.6l8.1 10.8h19l-6.8 9.6h-4.4l8.5 11.3 65-79.8zM1616.4 3278.9h-134.6l-25.8-34.2-27.3-36.2-16.1-21.4h115.1l-6.9 9.6h-88.1l7.3 9h72.4l-6.9 9.6h-60.7l7.9 10.3h47.1l-6.9 9.6h-33.7l8.2 10.8h19l-6.9 9.6h-4.3l8.5 11.3 65-79.8zM1458.1 3278.9h-134.6l-25.8-34.2-27.3-36.2-16-21.4H1369.4l-6.9 9.6h-88l7.2 9h72.4l-6.9 9.6h-60.7l7.9 10.3h47.1l-6.9 9.6H1301l8.1 10.8h19.1l-6.9 9.6h-4.3l8.5 11.3 64.9-79.8zM1310.1 3278.9h-134.6l-25.8-34.2-27.3-36.2-16.1-21.4H1221.4l-6.9 9.6h-88l7.2 9h72.4l-6.9 9.6h-60.7l7.9 10.3h47.1l-6.9 9.6H1153l8.1 10.8h19l-6.8 9.6h-4.4l8.5 11.3 65-79.8zM1151.8 3278.9h-134.5l-25.9-34.2-27.3-36.2-16-21.4H1063.1l-6.8 9.6h-88.1l7.3 9h72.3l-6.8 9.6h-60.8l7.9 10.3h47.1l-6.9 9.6h-33.6l8.1 10.8h19.1l-6.9 9.6h-4.3l8.5 11.3 65-79.8zM994.7 3278.9H860.1l-25.8-34.2-27.3-36.2-16-21.4H906l-6.9 9.6h-88l7.3 9h72.3l-6.9 9.6h-60.7l7.9 10.3h47.1l-6.9 9.6h-33.6l8.1 10.8h19.1l-6.9 9.6h-4.3l8.5 11.3 64.9-79.8zM836.5 3278.9H701.9l-25.8-34.2-27.3-36.2-16.1-21.4h115.1l-6.9 9.6h-88.1l7.3 9h72.4l-6.9 9.6h-60.7l7.8 10.3h47.2l-6.9 9.6h-33.7l8.2 10.8h19l-6.9 9.6h-4.3l8.5 11.3 65-79.8zM686.2 3278.9H551.7l-25.9-34.2-27.2-36.2-16.1-21.4H597.5l-6.8 9.6h-88.1l7.3 9h72.3l-6.8 9.6h-60.8l7.9 10.3h47.1l-6.9 9.6h-33.6l8.1 10.8h19.1l-6.9 9.6h-4.3l8.5 11.3 65-79.8zM391.5 3278.9l71.3-91.8 67.7 91.8zM268.4 1912v-134.6l34.2-25.8 36.2-27.3 21.3-16.1V1823.3l-9.5-6.9v-88l-9.1 7.2v72.4l-9.6-6.9v-60.7l-10.3 7.9v47.1l-9.5-6.9v-33.6l-10.9 8.1v19.1l-9.6-6.9v-4.4l-11.3 8.5 79.8 65zM268.4 1753.7v-134.5l34.2-25.8 36.2-27.3 21.3-16.1v115l-9.5-6.8v-88.1l-9.1 7.3v72.3l-9.6-6.8v-60.7l-10.3 7.8v47.1l-9.5-6.8v-33.7l-10.9 8.1v19.1l-9.6-6.9v-4.3l-11.3 8.5 79.8 65zM268.4 1596.6v-134.5l34.2-25.9 36.2-27.3 21.3-16V1507.9l-9.5-6.8V1413l-9.1 7.3v72.3l-9.6-6.8V1425l-10.3 7.9v47.1l-9.5-6.9v-33.6l-10.9 8.1v19.1l-9.6-6.9v-4.3l-11.3 8.5 79.8 65zM268.4 1438.4v-134.6l34.2-25.8 36.2-27.3 21.3-16.1v115.1l-9.5-6.9v-88.1l-9.1 7.3v72.4l-9.6-6.9v-60.7l-10.3 7.9v47.1l-9.5-6.9v-33.7l-10.9 8.2v19l-9.6-6.9v-4.3l-11.3 8.5 79.8 65zM268.4 1290.3v-134.5l34.2-25.8 36.2-27.3 21.3-16.1v115l-9.5-6.8v-88.1l-9.1 7.3v72.4l-9.6-6.9v-60.7l-10.3 7.8v47.1l-9.5-6.8v-33.7l-10.9 8.1v19.1l-9.6-6.9v-4.3l-11.3 8.5 79.8 65zM268.4 1132.1V997.5l34.2-25.8 36.2-27.3 21.3-16.1V1043.4l-9.5-6.9v-88l-9.1 7.2v72.4l-9.6-6.9v-60.7l-10.3 7.9v47.1l-9.5-6.9V975l-10.9 8.1v19l-9.6-6.8v-4.4l-11.3 8.5 79.8 65zM268.4 975V840.4l34.2-25.8 36.2-27.3 21.3-16.1v115.1l-9.5-6.9v-88.1l-9.1 7.3V871l-9.6-6.9v-60.7l-10.3 7.9v47.1l-9.5-6.9v-33.6l-10.9 8.1v19l-9.6-6.8v-4.4l-11.3 8.5 79.8 65zM268.4 816.7V682.1l34.2-25.8 36.2-27.3 21.3-16V728l-9.5-6.9v-88l-9.1 7.3v72.3l-9.6-6.9v-60.7l-10.3 7.9v47.1l-9.5-6.9v-33.6l-10.9 8.1v19.1l-9.6-6.9v-4.3l-11.3 8.5 79.8 64.9zM268.4 3157.6V3023l34.2-25.8 36.2-27.3 21.3-16.1V3068.9l-9.5-6.9v-88l-9.1 7.2v72.4l-9.6-6.9V2986l-10.3 7.9v47.1l-9.5-6.9v-33.6l-10.9 8.1v19.1l-9.6-6.9v-4.4l-11.3 8.5 79.8 65zM268.4 2999.3v-134.5l34.2-25.8 36.2-27.3 21.3-16.1v115l-9.5-6.8v-88.1l-9.1 7.3v72.3l-9.6-6.8v-60.7l-10.3 7.8v47.1l-9.5-6.8v-33.7l-10.9 8.1v19.1l-9.6-6.9v-4.3l-11.3 8.5 79.8 65zM268.4 2842.2v-134.5l34.2-25.9 36.2-27.3 21.3-16V2753.5l-9.5-6.8v-88.1l-9.1 7.3v72.3l-9.6-6.8v-60.8l-10.3 7.9v47.1l-9.5-6.9v-33.6l-10.9 8.1v19.1l-9.6-6.9v-4.3l-11.3 8.5 79.8 65zM268.4 2684v-134.6l34.2-25.8 36.2-27.3 21.3-16.1v115.1l-9.5-6.9v-88.1l-9.1 7.3v72.4l-9.6-6.9v-60.7l-10.3 7.9v47.1l-9.5-6.9v-33.7l-10.9 8.2v19l-9.6-6.9v-4.3l-11.3 8.5 79.8 65zM268.4 2535.9v-134.5l34.2-25.8 36.2-27.3 21.3-16.1v115l-9.5-6.8v-88.1l-9.1 7.3v72.4l-9.6-6.9v-60.7l-10.3 7.8v47.1l-9.5-6.8v-33.7l-10.9 8.1v19.1l-9.6-6.9v-4.3l-11.3 8.5 79.8 65zM268.4 2377.7v-134.6l34.2-25.8 36.2-27.3 21.3-16.1V2289l-9.5-6.9v-88l-9.1 7.2v72.4l-9.6-6.9v-60.7l-10.3 7.9v47.1l-9.5-6.9v-33.6l-10.9 8.1v19l-9.6-6.8v-4.4l-11.3 8.5 79.8 65zM268.4 2220.6V2086l34.2-25.8 36.2-27.3 21.3-16.1v115.1l-9.5-6.9v-88.1l-9.1 7.3v72.4l-9.6-6.9V2049l-10.3 7.9v47.1l-9.5-6.9v-33.6l-10.9 8.1v19l-9.6-6.8v-4.4l-11.3 8.5 79.8 65zM268.4 2062.3v-134.6l34.2-25.8 36.2-27.3 21.3-16V1973.6l-9.5-6.9v-88l-9.1 7.3v72.3l-9.6-6.9v-60.7l-10.3 7.9v47.1l-9.5-6.9v-33.6l-10.9 8.1v19.1l-9.6-6.9v-4.3l-11.3 8.5 79.8 64.9zM268.4 666.5V531.9l34.2-25.8 36.2-27.3 21.3-16.1V577.8l-9.5-6.9v-88l-9.1 7.2v72.4l-9.6-6.9v-60.7l-10.3 7.9v47.1l-9.5-6.9v-33.6l-10.9 8.1v19l-9.6-6.8v-4.4l-11.3 8.5 79.8 65zM268.4 371.8l91.7 71.3-91.7 67.7zM2060.1 1617.4v134.5l-34.2 25.8-36.2 27.3-21.4 16.1V1706.1l9.6 6.8v88.1l9.1-7.3v-72.3l9.5 6.8v60.8l10.3-7.9V1734l9.6 6.9v33.6l10.9-8.1v-19.1l9.5 6.9v4.3l11.3-8.5-79.8-65zM2060.1 1775.6v134.6l-34.2 25.8-36.2 27.3-21.4 16.1v-115.1l9.6 6.9v88.1l9.1-7.3v-72.4l9.5 6.9v60.7l10.3-7.9v-47.1l9.6 6.9v33.6l10.9-8.1v-19l9.5 6.9v4.3l11.3-8.5-79.8-65zM2060.1 1932.7v134.6l-34.2 25.8-36.2 27.3-21.4 16.1v-115.1l9.6 6.9v88.1l9.1-7.3v-72.4l9.5 6.9v60.7l10.3-7.8v-47.2l9.6 6.9v33.7l10.9-8.2v-19l9.5 6.9v4.3l11.3-8.5-79.8-65zM2060.1 2091v134.6l-34.2 25.8-36.2 27.3-21.4 16.1V2179.7l9.6 6.9v88l9.1-7.2V2195l9.5 6.9v60.7l10.3-7.9v-47.1l9.6 6.9v33.6l10.9-8.1v-19.1l9.5 6.9v4.4l11.3-8.5-79.8-65zM2060.1 2239v134.6l-34.2 25.8-36.2 27.3-21.4 16.1v-115.1l9.6 6.9v88.1l9.1-7.3V2343l9.5 6.9v60.7l10.3-7.9v-47.1l9.6 6.9v33.6l10.9-8.1v-19l9.5 6.8v4.4l11.3-8.5-79.8-65zM2060.1 2397.3v134.5l-34.2 25.9-36.2 27.3-21.4 16V2486l9.6 6.9v88l9.1-7.3v-72.3l9.5 6.9v60.7l10.3-7.9v-47.1l9.6 6.9v33.6l10.9-8.1v-19.1l9.5 6.9v4.3l11.3-8.5-79.8-65zM2060.1 2554.4V2689l-34.2 25.8-36.2 27.3-21.4 16.1V2643.1l9.6 6.9v88l9.1-7.2v-72.4l9.5 6.9v60.7l10.3-7.9V2671l9.6 6.9v33.6l10.9-8.1v-19.1l9.5 6.9v4.4l11.3-8.6-79.8-64.9zM2060.1 2712.7v134.5l-34.2 25.8-36.2 27.3-21.4 16.1v-115.1l9.6 6.9v88.1l9.1-7.3v-72.4l9.5 6.9v60.7l10.3-7.8v-47.2l9.6 6.9v33.7l10.9-8.2v-19l9.5 6.9v4.3l11.3-8.5-79.8-65zM2060.1 371.8v134.5l-34.2 25.8-36.2 27.3-21.4 16.1V460.5l9.6 6.8v88.1l9.1-7.3v-72.3l9.5 6.8v60.8l10.3-7.9v-47.1l9.6 6.9v33.6l10.9-8.1v-19.1l9.5 6.9v4.3l11.3-8.5-79.8-65zM2060.1 530v134.6l-34.2 25.8-36.2 27.3-21.4 16.1V618.7l9.6 6.9v88.1l9.1-7.3V634l9.5 6.9v60.7l10.3-7.9v-47.1l9.6 6.9v33.6l10.9-8.1v-19l9.5 6.8v4.4l11.3-8.5-79.8-65zM2060.1 687.1v134.6l-34.2 25.8-36.2 27.3-21.4 16.1V775.8l9.6 6.9v88.1l9.1-7.3v-72.4l9.5 6.9v60.7l10.3-7.8v-47.2l9.6 6.9v33.7l10.9-8.2v-19l9.5 6.9v4.3l11.3-8.5-79.8-65zM2060.1 845.4V980l-34.2 25.8-36.2 27.3-21.4 16.1V934.1l9.6 6.9v88l9.1-7.2v-72.4l9.5 6.9v60.7l10.3-7.9V962l9.6 6.9v33.6l10.9-8.1v-19.1l9.5 6.9v4.4l11.3-8.5-79.8-65zM2060.1 993.4V1128l-34.2 25.8-36.2 27.3-21.4 16.1v-115.1l9.6 6.9v88l9.1-7.2v-72.4l9.5 6.9v60.7l10.3-7.9V1110l9.6 6.9v33.6l10.9-8.1v-19l9.5 6.8v4.4l11.3-8.5-79.8-65zM2060.1 1151.7v134.5l-34.2 25.9-36.2 27.3-21.4 16V1240.4l9.6 6.9v88l9.1-7.3v-72.3l9.5 6.9v60.7l10.3-7.9v-47.1l9.6 6.9v33.6l10.9-8.1v-19.1l9.5 6.9v4.3l11.3-8.5-79.8-65zM2060.1 1308.8v134.6l-34.2 25.8-36.2 27.3-21.4 16.1V1397.5l9.6 6.9v88l9.1-7.2v-72.4l9.5 6.9v60.7l10.3-7.9v-47.1l9.6 6.9v33.6l10.9-8.1v-19.1l9.5 6.9v4.4l11.3-8.6-79.8-64.9zM2060.1 1467.1v134.5l-34.2 25.8-36.2 27.3-21.4 16.1v-115.1l9.6 6.9v88.1l9.1-7.3V1571l9.5 6.9v60.7l10.3-7.8v-47.2l9.6 6.9v33.7l10.9-8.2v-19l9.5 6.9v4.3l11.3-8.5-79.8-65zM2060.1 2862.9v134.5l-34.2 25.9-36.2 27.3-21.4 16V2951.6l9.6 6.9v88l9.1-7.3v-72.3l9.5 6.8v60.8l10.3-7.9v-47.1l9.6 6.9v33.6l10.9-8.1v-19.1l9.5 6.9v4.3l11.3-8.5-79.8-65zM2060.1 3157.6l-91.8-71.3 91.8-67.7zM1972.5 333.8h-80.6l6.9-9.6h73.1v-9h-64.7l6.9-9.6h57v-10.3h-51.2l6.9-9.6h43.6l-.1-10.9h-37.1l6.9-9.6h29.5l-.1-8.1h-21.8l8.2-11.2h97.2s7.3.8 7.3 9.1v100.3l-11.2 8.2v-21.8l-8.1-.1v29.5l-9.6 6.9v-37.1l-10.9-.1v43.6l-9.6 6.9v-51.2h-10.3v57l-9.6 6.9v-64.7h-9v73.1l-9.6 6.9V333.8z"/><path class="st6" d="M1996.4 273.4h35.7v36.3h-35.7z"/><path class="st5" d="M356.2 329.7v80.6l-9.6-6.9v-73.1h-9V395l-9.6-6.9v-57h-10.3v51.2l-9.6-6.9V332l-10.9.1v37.1l-9.6-6.9v-29.5l-8.1.1v21.8l-11.2-8.2v-97.2s.8-7.3 9.1-7.3h100.3l8.2 11.2h-21.8l-.1 8.1h29.5l6.9 9.6h-37.1l-.1 10.9h43.6l6.9 9.6h-51.2v10.3h57l6.9 9.6h-64.8v9h73.1l6.9 9.6H360l-3.8-.2z"/><path class="st6" d="M295.8 270.1h36.3v35.7h-36.3z"/><path class="st5" d="M356.1 3190.8h80.6l-6.9 9.6h-73.1v9h64.7l-6.9 9.6h-57v10.3h51.2l-6.9 9.6h-43.6l.1 10.9h37.1l-6.9 9.6H359l.1 8.1h21.8l-8.2 11.2h-97.2s-7.3-.8-7.3-9.1v-100.3l11.2-8.2v21.8l8.1.1v-29.5l9.6-6.9v37.1l10.9.1v-43.6l9.6-6.9v51.2h10.3v-57l9.6-6.9v64.7h9v-73.1l9.6-6.9v85.5z"/><path class="st6" d="M296.5 3214.8h35.7v36.3h-35.7z"/><path class="st5" d="M1972.3 3191.2v-80.6l9.6 6.9v73.1h9v-64.7l9.6 6.9v57h10.3v-51.2l9.6 6.9v43.6l10.9-.1v-37.1l9.6 6.9v29.5l8.1-.1v-21.8l11.2 8.2v97.2s-.8 7.3-9.1 7.3h-100.3l-8.2-11.2h21.8l.1-8.1H1935l-6.9-9.6h37.1l.1-10.9h-43.6l-6.9-9.6h51.2v-10.3h-57l-6.9-9.6h64.7v-9h-73.1l-6.9-9.6h85.5z"/><path class="st6" d="M1996.4 3215h36.3v35.7h-36.3z"/><g><path class="st6" d="M1170.7 464.3l-53 83.5 17.1 17.9-.1-28.1h6.6l.8 39.9h6.5l-.1-47.6 7.7-7.8.1 63.2 14.1 14.5"/><path class="st6" d="M1170.2 646.5s-62.9-172.4-241-177.8c0 0 191.8 53.5 90.9 332.6 0 0 43.6-30.6 44.4-183.5 0 0 18.3 68-11.9 156 0 0 32.2-36.4 30.7-133.8 0 0 13.6 61.5.3 114.3 0 0 17.6-18.7 19.9-84.5 0 0 12.6 43.6.4 94.8 0 0 17.4-16.1 17.8-78.4v-6.3s6.3 6.3 6.1 19.5l-1.1 78.4 5.7 10.1 5.4-9.9 3.6-87.2s1.7-4 3.8-2.9c2.1 1.1 2.9 2.9 2.5 6.1-.4 3.2 0 107.2 0 107.2l5 10.9 5.4-10.5 4-89.6s.7-21.2 8.1-19.1"/><path class="st6" d="M1169.6 882.7s-27.8-52-81.7-84.1c0 0-15.3 3.4-46.3 104.7 0 0-44.3-48.9-101.3-66.9 0 0-14.1 7.6-24.8 111.6 0 0-52-36.3-112.4-35.6l8.4 18s57.7.8 120.4 51.2c0 0-4.2-74.9 18-119.7 0 0 45.1 5.4 105.9 79.5 0 0 7.3-79.1 37.1-111.2 0 0 42.6 26.4 76.7 81.4M763.8 714.9s-10.7 73.9 22.9 159c0 0 21.9-9.7 35.2-52.5 0 0 43.3 53.5 59.6 42.8 16.3-10.7 17.8-53 12.7-74.9 0 0 43.8 30.1 74.4 12.2 0 0 13.8-45.9-13.8-78.5 0 0 40.8-8.7 54.5-34.7 0 0 1-134.6-141.7-117.2 0 0 65.6 9.9 89.7 38.6 0 0-36.7-17.2-74.2-17.2 0 0 63.1 31 90.2 62.7 0 0-41.2-31.7-87.7-39.8 0 0 56 40.1 69.7 57 0 0-30.5-17.8-69.7-32 0 0 46.4 40.8 53.7 51.5 0 0-32.1-21.4-60.4-27.5 0 0 29.8 30.2 38.2 44 0 0-27.9-23.3-46.3-29.8 0 0 50.1 54.3 58.1 86.4 0 0-38.9-54.5-65.3-70-.4-.2-.8-.5-1.2-.7 0 0 19.5 42.4 30.2 57 0 0-25.6-12.2-41.3-45.9 0 0-4.5 15.3 19.9 54.3 0 0-19.5-15.3-32.9-40.9 0 0-5 24.8 17.2 79.9 0 0-31-46.7-36.7-76.8 0 0-8 14.5 3.1 58.9 0 0-14.1-22.2-21.8-56.6 0 0-6.5 16.4.8 65.4 0 0-15.7-27.5-17.6-67.7 0 0-5 48.6 1.1 76.8.3-.1-14.3-21.1-20.6-83.8z"/><path class="st6" d="M769 682.8s2.3-66.5 67.3-100.9c0 0 42.1 24.8 6.5 83.3 0 0-37.8 56.6-73.8 17.6z"/><path class="st6" d="M1009.5 606.3S989.9 456.2 813.1 486c0 0-247.2 83.6-152 434.5 0 0 56.7 170.2 224.8 330.8h13s-122.6-120.5-179.2-239c0 0-26.8-48.2-46.6-113.9-19.9-65.8-19.4-124.9-16.3-168.7 3.1-43.8 34.7-144.8 115.2-208 0 0-76.5 72.9-95.3 158-18.9 85.1-16.1 210.4 64.2 342.2 0 0 86.2 141.4 175.4 229.4h17.8s-107.5-114.4-167.2-216.9c0 0-114.4-185.3-77.6-338 0 0 8.8-83.5 98.5-163.6 0 0 89.7-71.4 170.2 5.1 0 0-77.3-59-156.9-4.7-79.5 54.3-112 180.1-108.2 226.3 3.8 46.3 15.3 160.2 104.7 291.7 0 0 91 137 152.9 200h18s-179.3-201.6-223.6-330c-44.3-128.4-58-208.7 17.2-339.5 0 0 31.7-39.2 56.2-47.9 0 0-48.4 42.3-66.3 79.5-17.8 37.2-43.3 101.4-28.5 182 14.8 80.5 42.8 163.6 123.4 276.3l136.6 179.6h19.1s-102.8-134.3-136.9-182.8c-34-48.6-104-139.5-126.2-274.1-22.2-134.6 42.8-205.7 63.5-228.6 20.7-22.8 115.5-80.9 206.5 40.6z"/><path class="st6" d="M792.9 468.7s-96.8-1.5-162.1 51.5l-26.5-51.5-44.3 58.6s-16.8-22.6-58.6-45.2c0 0 31.1 69.2 30.1 162.5L487 605.8l36.2 161.6-36.2-24s32.6 106 35.2 156.5L485 882.1s9.2 90 71.9 177.8h30.6s-17.8-44.2-41.3-68.7c0 0-18.3-16.3-26.5-58.6 0 0 16.3 31.6 34.7 52.5 0 0 3.6-5.6-4.6-35.7s-6.6-59.6-5.6-75.4c1-15.8-14.8-57.1-20.9-68.3l17.8 19.4s20.4-95.8-12.2-142.7c0 0 15.3 6.5 22.4 32.6 0 0 35.7-63.6-4.1-155.9l28.5 65.8s27-61.2 40.8-74.9c0 0-28 55.5-46.9 146.7 0 0 30.1-37.2 43.8-47.9 0 0-41.2 60.5-54 97.4l-4.1 92.3s21.9-31.9 35.2-39.6c0 0-31.6 51.7-35.7 68.1l2.5 81.6s25.5-32.1 33.6-41.3c0 0-39.8 63.7-13.3 113.2 0 0 13.3-115.2 46.4-146.3l-45.9 19.9s4.1-62.9 44.9-133c0 0-21.9 6.1-38.7 17.3 0 0-1.5-71.4 73.4-160 0 0-15.3-1.5-40.8 9.2.1-.4 33.2-89.6 176-158.9zM577.1 596.2s-10.7-26.6-10.3-40.1c.4-13.6 12.4 23.9 14.3 31.3 2 7.5-2.6 12.3-4 8.8zm12.1-24.3c-8-8.2-9.4-31.3-9.4-31.3 5.4 5.3 17.4 39.6 9.4 31.3zm9.9-15c-6.6-8.1-8.4-28.5-8.4-28.5 5.9 1.5 15 36.6 8.4 28.5zm9.8-19c-6.9-4.2-3.4-15.7-3.4-15.7 3.5-.7 10.2 19.9 3.4 15.7z"/><path class="st6" d="M701 1073.9s-48.8-76.6-56.5-136.2c0 0-51 41.8-44.3 134.6 0 0-36.7-9.2-91.7 7.6 0 0 1.5 31.6 34.7 66.8 0 0-30.1 4.1-52 26.5 0 0 8.7 32.6 52 55 0 0-41.8 10.7-52 32.6 0 0 6.6 17.8 36.2 31.6 0 0-34.7 42.3-22.4 129.5 0 0 47.9-81.6 129-126.4-68-159.1 67-221.6 67-221.6zm-62.1 15.9l-13.3-14.8 1.3 25.7-34.7-7.4 22.4 24.2-46.6-15.8 33.4 27.8-47.9-13.5 42.5 28.3-19.3 2.3 17.3 16.6-21.7 4.3 17.8 11-52.5 1.3 51.2 11.5-45.1 4.6 44.6 10.7-29.3 3.8 30.8 9.4-15.8 3.1 15.3 12.7-18.6 2.5 15 10.2-37 4.6 35.2 8.2-50.5 8.4 49.4 4.8-28.3 8.9 26.8.5-30.6 22.9 36.2-12.2L552 1324l50.5-21.9c-29.8 16.8-81.8 69.3-81.8 69.3-1.3-49.2 26.8-79.8 26.8-79.8-34.2-18.4-32.9-28.8-32.9-28.8 9.4-13 58.1-32.9 58.1-32.9-46.9-23.3-58.1-52.5-58.1-52.5 19.9-11.2 56.1-20.6 56.1-20.6-34.4-36.4-41-64-41-64 33.9-13.5 88.2-2.5 88.2-2.5-10.7-89.2 21.2-113.4 21.2-113.4 15.3 41 44.8 92.8 44.8 92.8l-28.8-33.9 6.4 28-24.2-39.2 11.7 52.5-20.1-31.3 10 44z"/><path class="st6" d="M653.7 1135.9c-2.8 3.9-5.4 7.8-7.6 11.9 0 0 27.5 24.4 46.4 34.3 0 0 5 .4 12.6.4l-51.4-46.6zM639.4 1162.1c-2.2 5.9-3.9 11.7-5.2 17.6l35.5 3.2-30.3-20.8zM772.3 1165.5c-1.7 1.3-5.7 4-7.6 5.1-30.8-26.2-62.2-75.2-62.2-75.2 3.2-1.7 6.4-3.3 9.9-4.8-.1 0 28.2 39.9 59.9 74.9zM746.1 1177.8c-40.8-32.9-64.2-69.7-64.2-69.7 3.4-2.4 6.9-4.8 10.7-7.1 0 0 25.5 40 63.5 73.6m-10 3.2c3.4-.9 6.7-1.9 9.9-3.2M733.9 1180.4c-4.5.7-9 1.2-13.2 1.5-23.9-16.8-58.3-56.5-58.3-56.5 2.7-2.9 5.6-5.8 8.8-8.6-.1 0 42 46.9 62.7 63.6zM626 1209.6c0-4.8.2-9.5.7-14.1 0 0 36.6-3.8 57.7-.8 0 0 4.3 2.6 10.5 7l-68.9 7.9zM739.6 1254.7c-.7-2-2.3-6.6-3.2-8.6-40.3 3.3-94.4 24.8-94.4 24.8 1.6 3.2 3.3 6.4 5.2 9.7 0 0 46.2-16 92.4-25.9zM731.7 1237.8c-50.4 5.1-94.5 22.8-94.5 22.8-1.7-4.1-3.2-8.1-4.5-12 0 0 40.5-16.2 92.8-19.1m6.2 8.3c-1.9-2.9-4-5.7-6.2-8.4M717 1220.2c-3.3-3.2-6.6-6.2-9.8-9-29.2-.3-80.3 12-80.3 12 .5 3.9 1.2 8 2.1 12.1 0 0 61.6-13.6 88-15.1zM708.8 1193.6s28.3 22.6 41.9 55.5h18.2s-8.2-30.8-24.1-42.8c0 0 31.5-3.2 46.4-12.7l-10.1-13.1s-30 14.6-72.3 13.1z"/><path class="st6" d="M770.4 1215.9l16.8 30.2 54.3-3.1-35.6-36.5zM1169.3 985.9s-68.8-8.4-96.7 76.1c0 0-49.3-56.6-94.8-29.8 0 0-45.1 26-29.4 100.9 0 0-80.3-97.5-113.9-160.9l78.8 99.8-63.8-112.8 73 99-48.5-97.1 53.5 73.8-27.5-63.5 38.2 47.8-14.1-34 31.7 32.5-14.5-42.4 25.6 26-21.8-62.3 32.1 47.4-26-80.1 43 71.7-30.8-90.6 46.3 81.6-21-72.4 41.1 80.5-13.4-60.8 32.3 65.6-3.6-39 18.2 33.6-.6-38.8 14.5 27.7-5.4-64.4 17.6 45.9-5.2-77.6 19.5 71.7-3.6-93.5 20.1 90.4 1.7-71 16.1 74.9 4.8-49.3 13 50.3 5.5-34.2 8.4 21.4"/><path class="st6" d="M957.3 1122.6s12.2 6.5 15.9 18.3l-7.9-.8c-.1.1-2.4-11-8-17.5zM957.3 1096s32.1 13.8 49.7 58.3l-15.9-6.1s-14.1-31.7-33.8-52.2zM1023.1 1165l18 11.1s-24.8-72.6-77.6-109.1c-.1 0 43.8 56.3 59.6 98zM978.7 1048.3s52.6 17.2 93.9 148.7l-17.6-9.6s-12.8-67.3-76.3-139.1z"/><path class="st6" d="M1089.8 1212.1l-9.4-14s-2-65-70.8-155.7c0 0 47 20.8 85.6 154.6l-5.4 15.1zM1050.5 1056.7s38.4 61.9 52.8 129.2l7.8-16.8c.1 0-28.5-80.6-60.6-112.4M1115.6 1164.7l8.6-12s-17.3-72.5-42.1-88.7c0-.1 34.4 77.5 33.5 100.7zM1132.8 1143.6l5.4-11.7s-19.4-73.4-38.2-98.1c0-.1 8.9 47.6 32.8 109.8zM1145.1 1124.5l6.1-10.2s-8.9-78.3-27-103c0 0 17.8 96.8 20.9 113.2zM1156.3 1111.7h5.9s-6.1-104.5-11-112.6c0 0-4.5 4.8-4.5 29.1l7.7 83.5h1.9z"/><path class="st6" d="M1168.9 1127.3s-54.7 47.1-78 109.1c0 0-56.4-62.5-127.5-83.7 0 0 58.3 65 109.1 153.3l-4.2-45.1 26.8 92.9V1278l21.4 118.9 5-128.4 18 182 5-213.3 12.6 256.5 11.4-174.3M923.1 1283.7V1421l34.8 17.9v-124.2l84.8-.3-19.4-30.7zM1163.5 1665.6s13.1-114.3-94.4-316.1h-15.8s94.9 151.3 110.2 316.1z"/><path class="st6" d="M1010.6 1346.4h18.7s126.2 197.3 122.3 324.2c.1 0-20.8-134.5-141-324.2z"/><path class="st6" d="M990.6 1359.2v30.6s108.6 130.5 143.7 283.9c.1 0 12.8-106.6-143.7-314.5zM977.4 1493.6h23.3s98.1 84.2 108 204.5c0 0-37-132.7-131.3-204.5z"/><path class="st6" d="M990.6 1429.8v23.7s31.9 22.9 43.3 40.1H1022s73 79.5 98.2 193.8c.2 0-9.3-144.2-129.6-257.6zM888.1 1263.5v16.4l-27.9-12.6zM888.1 1294.6v13.2s-33.8-20.1-70.7-18.3c0 0 20.4-18 70.7 5.1zM888.1 1322.7v15.7s-39.9-19.1-99.6-23.3c0 0 29.8-19.9 99.6 7.6zM888.1 1351.8v17.2s-46.1-26-117.7-15.7c0 0 22-32.1 117.7-1.5zM888.1 1381.6v14.9s-69-25.6-128.6-5c0 0 40.1-41.2 128.6-9.9zM888.1 1406.5v15.4s-72.1-10.8-128.6 5.2c0 0 42-37.9 128.6-20.6zM894.3 1449.9s-11.7 167.2 100.7 237.5c0 0-42.4-45.1-58.9-102.8 0 0 40.5 76.8 84.5 108.2 0 0-51.6-70-68.8-115.4 0 0 83.7 116.6 87.9 120.8 0 0-24.5-73.4-88.3-142.6 0 0 73.8 55.4 111.2 152.9 0 0-13.4-97.5-125.8-187.7 0 0 119.3 70 149.2 198.5 0 0 6-80-75.4-160.6 0 0-32.5-31.3-66.1-53.9 0-.1-23.6-16-50.2-54.9zM788.5 1274.1s-181.9-4-265.6 175.9c0 0-44.8 105.3 17.1 211.9l48.4 22.6-9.7 7.1-87.7-39.7 51.5 89.6s24-30.6 63.7-48.9c0 0-117.5-216.8 121.1-278l1.8-18s-118.8 16.7-157 129.3c0 0-20.4 51.5 10.2 141.7 0 0-64.5-125.4 28-228.6 0 0 34.7-43.4 121.3-69.1v-11.7s-249 48.7-168.7 301c0 0-68-122.3 19.9-228.6 0 0 43.6-65.8 162.9-94l13.8-19.9s-161.3 13.8-215.6 156c0 0-35.9 89.4 3.1 179.3 0 0-73.3-132.3 24.5-255.3 0 0 73.4-95 206-106.2l11-16.4z"/><path class="st6" d="M561.5 1762s27.1-54.3 89.8-78.8c0 0-37.8-84.1-23.7-142.6 0 0 71.1-6.5 127.3 40.5 0 0-14.9-56.6-8-106.7 0 0 70-11.1 138.8 44l-2.3 12.6s-61.2-40.5-120.8-40.1c0 0-5 57.3 13 116.6 0 0-60.7-44.5-127.9-44.5 0 0-4.1 77 26.5 124.9 0 0-72.9 36.5-85.6 74"/><path class="st6" d="M751.6 1761.8s-.1-71.3 74.4-74.4c0 0-19.9-51 3.1-79 0 0 29.6-32.6 73.9-8.2 0 0-11.4-32.1-15.8-58.1 0 0-4.3 13.3-3.8 22.9 0 0-5.9-17.8-31.9-42.1 0 0 11.5 23.7 14.5 37.5 0 0-18.7-26.8-43.1-46.1l25.2 48.9-56.6-55.6 41.5 65.2-53.5-51.2 36.4 58.6-39.8-36.7 33.4 51.2-30.6-19.6 26 40.8-22.4-12.5 10.2 24.2-40-26 26 38-60.4-49.7 41.3 55-83.3-67.8 70.1 76.7-83.1-69.3 76.5 83.8-75.2-56.3 67.5 67-61.9-34.2 56.1 49.2-49.4-22.7 51.5 44.3-60.9-15.5 51 27.5s-45.4-11.7-73.9-6.6l57.1 18.1-84.4 5.9 90.5 16.6"/><path class="st6" d="M913.2 1615.3c-5.9-2.8-16.1-11.5-16.1-11.5l-3.2 2.3s11.3 11.7 20.2 13l-.9-3.8zM872.4 1600.5l-5.6 4.6s33.4 27.8 59.9 38.7l-1.8-7.9s-30.1-13.7-52.5-35.4zM948.1 1671.6c-54-12.7-98.9-56.3-98.9-56.3l7.1-6.4s41.9 38.6 84.4 51.5l7.4 11.2zM840 1626.3l-6.6 8.6s65.8 54.1 138.6 57.5l-14.5-9.2c0-.1-69.1-16.9-117.5-56.9zM835.4 1653s-4.1 11.7 13.8 21.7c17.8 9.9 73.7 32.6 109.6 25.2 0 0-54.9-4.8-123.4-46.9zM931.5 1711.1c-38.7-2.3-87.7-24.7-87.7-24.7l-4.8 5.9s52.7 25.2 92.5 18.8M812 1695.3l-9.9 6s57.3 31.9 110.9 22.8c-.1 0-62.3-4.8-101-28.8zM790.3 1710.6l-7.4 8.7s55 26.8 115.7 16.4c0-.1-79.5-5.8-108.3-25.1zM777.4 1733.3l-4.9 15.3s63.5 10.4 111.6 1.8c0 0-85.9-4.1-106.7-17.1zM893.9 1761.7s55.9-90.8 175.7-35.9c0 0-54.6-8.3-89.2-4.1l73 14.1-90.6 2.9 101.3 10.1-85.8 12.8M1170.7 464.3l52.6 83.8-17.2 17.8.2-28.1h-6.6l-1 39.8h-6.5l.4-47.6-7.6-7.8-.5 63.2-14.1 14.4"/><path class="st6" d="M1170.2 646.5s63.8-172.1 242-176.5c0 0-192.1 52.5-92.7 332.1 0 0-43.5-30.8-43.4-183.7 0 0-18.7 67.9 11 156 0 0-32-36.6-30-134 0 0-14 61.5-.9 114.3 0 0-17.5-18.8-19.4-84.6 0 0-12.9 43.5-.9 94.8 0 0-17.3-16.1-17.4-78.5v-6.3s-6.3 6.3-6.2 19.5l.7 78.4-5.8 10.1-5.3-10-3.2-87.2s-1.7-4-3.8-2.9c-2.1 1.1-2.9 2.9-2.5 6.1.4 3.3-.6 107.2-.6 107.2l-5 10.9-5.3-10.5-3.5-89.7s-.6-21.2-8-19.2"/><path class="st6" d="M1169.6 882.7s28.1-51.8 82.2-83.7c0 0 15.3 3.5 45.7 105 0 0 44.6-48.7 101.7-66.4 0 0 14.1 7.7 24.2 111.8 0 0 52.2-36 112.6-34.9l-8.5 17.9s-57.7.5-120.7 50.6c0 0 4.6-74.9-17.3-119.7 0 0-45.1 5.1-106.3 78.9 0 0-6.8-79.2-36.5-111.4 0 0-42.8 26.1-77.2 81M1576.3 717.1s10.3 74-23.8 158.9c0 0-21.9-9.8-34.9-52.7 0 0-43.6 53.3-59.9 42.5-16.3-10.8-17.6-53.1-12.3-75 0 0-44 29.8-74.5 11.8 0 0-13.5-45.9 14.2-78.4 0 0-40.7-8.9-54.4-35 0 0-.3-134.6 142.3-116.5 0 0-65.7 9.6-89.9 38.1 0 0 36.8-17 74.3-16.8 0 0-63.2 30.6-90.6 62.2 0 0 41.4-31.5 87.9-39.3 0 0-56.2 39.8-70.1 56.6 0 0 30.6-17.6 69.9-31.6 0 0-46.6 40.6-54 51.2 0 0 32.2-21.2 60.5-27.2 0 0-30 30-38.5 43.8 0 0 28-23.2 46.4-29.6 0 0-50.4 54-58.6 86.1 0 0 39.2-54.3 65.7-69.7.4-.2.8-.5 1.2-.7 0 0-19.7 42.3-30.5 56.8 0 0 25.7-12.1 41.5-45.7 0 0 4.5 15.4-20.2 54.2 0 0 19.6-15.2 33.1-40.7 0 0 4.8 24.9-17.6 79.8 0 0 31.2-46.5 37.1-76.6 0 0 7.9 14.6-3.4 58.9 0 0 14.3-22.1 22.1-56.5 0 0 6.4 16.5-1.1 65.4 0 0 15.8-27.5 18-67.6 0 0 4.7 48.6-1.6 76.8.3.1 15.1-20.8 21.7-83.5z"/><path class="st6" d="M1571.2 685s-1.9-66.5-66.7-101.3c0 0-42.2 24.6-6.9 83.3-.1 0 37.5 56.8 73.6 18z"/><path class="st6" d="M1331.2 607.2s20.4-150 197.1-119.2c0 0 246.8 85 149.7 435.4 0 0-57.6 169.9-226.6 329.6l-13-.1s123.2-119.9 180.5-238.1c0 0 27-48 47.2-113.7 20.2-65.6 20-124.8 17.2-168.6-2.8-43.9-33.9-144.9-114.1-208.6 0 0 76.1 73.3 94.5 158.5 18.4 85.2 15 210.5-66 341.9 0 0-86.9 140.9-176.6 228.4l-17.8-.1s108.2-113.8 168.4-215.9c0 0 115.4-184.7 79.5-337.6 0 0-8.4-83.6-97.7-164.1 0 0-89.3-71.8-170.3 4.2 0 0 77.7-58.6 156.9-3.9s111 180.7 107 226.9c-4.1 46.2-16.2 160.1-106.3 291.1 0 0-91.7 136.6-154 199.2l-18-.1s180.4-200.6 225.4-328.8c45-128.2 59.2-208.4-15.4-339.6 0 0-31.5-39.4-55.9-48.2 0 0 48.2 42.6 65.8 79.9 17.6 37.3 42.8 101.7 27.6 182.1-15.2 80.5-43.7 163.4-124.8 275.6l-137.6 178.9-19.1-.1s103.6-133.7 137.8-182.1c34.3-48.4 104.7-139 127.6-273.4 22.9-134.4-41.7-205.9-62.2-228.9-20.7-23.1-115.2-81.7-206.8 39.4z"/><path class="st6" d="M1723.5 630.2c-25.4-10.8-40.7-9.4-40.7-9.4 74.4 89.1 72.5 160.4 72.5 160.4-16.8-11.3-38.6-17.5-38.6-17.5 40.4 70.4 44.1 133.3 44.1 133.3l-45.8-20.1c33 31.3 45.6 146.5 45.6 146.5 26.8-49.3-12.6-113.2-12.6-113.2 8.1 9.2 33.4 41.5 33.4 41.5l3-81.6c-4-16.4-35.3-68.3-35.3-68.3 13.2 7.8 35 39.8 35 39.8l-3.6-92.3c-12.6-36.9-53.5-97.6-53.5-97.6 13.7 10.8 43.6 48.1 43.6 48.1-18.4-91.4-46.1-147-46.1-147 13.7 13.8 40.4 75.1 40.4 75.1l28.9-65.6c-40.3 92-4.9 155.9-4.9 155.9 7.3-26 22.6-32.4 22.6-32.4-32.9 46.7-13 142.7-13 142.7l17.9-19.3c-6.2 11.2-22.2 52.4-21.3 68.2.9 15.8 2.3 45.4-6 75.4-8.3 30-4.8 35.7-4.8 35.7 18.5-20.8 34.9-52.3 34.9-52.3-8.4 42.3-26.8 58.5-26.8 58.5-23.6 24.3-41.7 68.5-41.7 68.5l30.6.2c63.2-87.4 72.8-177.4 72.8-177.4l-37.3 17.6c2.8-50.4 36-156.3 36-156.3l-36.3 23.8 37.1-161.4-44.6 38.5c-.5-93.3 30.9-162.3 30.9-162.3-41.9 22.3-58.9 44.9-58.9 44.9l-44-58.9-26.8 51.3c-65-53.4-161.8-52.4-161.8-52.4 142.5 70 175.1 159.4 175.1 159.4zm36.1-39.6c2-7.4 14.2-44.8 14.5-31.3.3 13.6-10.5 40.1-10.5 40.1-1.4 3.5-5.9-1.4-4-8.8zm1.6-46.8s-1.5 23.1-9.5 31.3c-8.1 8.2 4.1-26 9.5-31.3zm-10.8-12.3s-2 20.4-8.6 28.5c-6.6 8 2.6-27 8.6-28.5zm-14.7-6.2s3.4 11.5-3.5 15.7c-6.9 4.1-.1-16.5 3.5-15.7z"/><path class="st6" d="M1703.1 1298.3c80.8 45.3 128.3 127.1 128.3 127.1 12.7-87.1-21.7-129.6-21.7-129.6 29.6-13.6 36.4-31.4 36.4-31.4-10.1-22-51.8-32.9-51.8-32.9 43.4-22.2 52.3-54.8 52.3-54.8-21.8-22.5-51.8-26.8-51.8-26.8 33.3-35 35-66.6 35-66.6-55-17.1-91.7-8.1-91.7-8.1 7.1-92.7-43.6-134.8-43.6-134.8-8 59.6-57.2 135.9-57.2 135.9s134.5 63.4 65.8 222zm6.2-249.7l-20.3 31.2 12-52.4-24.4 39.1 6.5-28-29 33.7s29.8-51.6 45.3-92.5c0 0 31.8 24.4 20.6 113.5 0 0 54.3-10.7 88.2 3 0 0-6.8 27.5-41.4 63.7 0 0 36.1 9.6 56 20.9 0 0-11.3 29.1-58.4 52.2 0 0 48.6 20.1 57.9 33.2 0 0 1.2 10.5-33 28.6 0 0 27.9 30.7 26.3 79.9 0 0-51.7-52.8-81.4-69.8l50.3 22.2-34.8-29.8 36.1 12.4-30.5-23.1 26.8-.4-28.2-9.1 49.5-4.6-50.4-8.7 35.2-8-36.9-4.8 15.1-10.1-18.6-2.6 15.4-12.7-15.8-3.1 30.9-9.3-29.3-4 44.7-10.5-45.1-4.8 51.3-11.2-52.5-1.6 17.9-10.9-21.6-4.5 17.4-16.5-19.3-2.4 42.6-28.1-48 13.2 33.5-27.6-46.7 15.5 22.6-24.1-34.7 7.2 1.4-25.7-13.3 14.7 10.1-43.3z"/><path class="st6" d="M1684.1 1138.6c2.8 3.9 5.3 7.9 7.5 11.9 0 0-27.6 24.2-46.6 34.1 0 0-5 .4-12.6.4l51.7-46.4zM1698.2 1165c2.2 5.9 3.9 11.8 5.1 17.6l-35.5 3 30.4-20.6zM1565.4 1167.7c1.7 1.3 5.7 4 7.6 5.1 31-26 62.6-74.9 62.6-74.9-3.1-1.7-6.4-3.3-9.8-4.9-.1 0-28.5 39.8-60.4 74.7zM1581.5 1176.9c38.2-33.4 63.9-73.3 63.9-73.3 3.8 2.3 7.3 4.7 10.7 7.2 0 0-23.7 36.6-64.6 69.3m-10-3.2c3.2 1.3 6.5 2.3 9.9 3.2M1603.7 1182.7c4.5.7 9 1.3 13.2 1.6 24-16.7 58.6-56.2 58.6-56.2-2.7-2.9-5.6-5.8-8.7-8.6 0 0-42.4 46.7-63.1 63.2zM1711.4 1212.6c.1-4.8-.2-9.5-.7-14.1 0 0-36.5-4-57.7-1.1 0 0-4.3 2.5-10.5 7l68.9 8.2zM1597.6 1257c.7-2 2.3-6.6 3.3-8.5 40.3 3.5 94.3 25.3 94.3 25.3-1.6 3.2-3.4 6.4-5.2 9.7-.1-.1-46.3-16.3-92.4-26.5zM1611.8 1231.8c52.3 3.2 92.7 19.6 92.7 19.6-1.3 3.9-2.9 7.9-4.6 12 0 0-44-17.9-94.4-23.3m6.3-8.3c-2.2 2.7-4.4 5.5-6.3 8.4M1620.3 1222.7c3.3-3.2 6.6-6.2 9.9-8.9 29.2-.1 80.2 12.4 80.2 12.4-.5 3.9-1.2 8-2.2 12.1.1-.1-61.4-14-87.9-15.6zM1628.7 1196.1s-28.4 22.5-42.2 55.3l-18.2-.1s8.4-30.7 24.3-42.7c0 0-31.5-3.4-46.4-12.9l10.2-13.1c.1 0 30 14.7 72.3 13.5z"/><path class="st6" d="M1567 1218l-17 30.2-54.2-3.4 35.7-36.3zM1169.3 985.9s68.9-8 96.3 76.6c0 0 49.6-56.3 95-29.3 0 0 45 26.2 28.9 101.1 0 0 80.8-97 114.8-160.3l-79.3 99.3 64.4-112.4-73.5 98.6 49.1-96.8-53.9 73.5 27.9-63.3-38.5 47.6 14.3-33.9-31.9 32.3 14.8-42.4-25.8 25.9 22.1-62.2-32.4 47.2 26.4-79.9-43.4 71.4 31.3-90.4-46.7 81.4 21.4-72.3-41.5 80.2 13.7-60.7-32.7 65.4 3.8-39-18.3 33.5.8-38.8-14.7 27.6 5.7-64.4-17.8 45.8 5.6-77.6-19.9 71.6 4.1-93.4-20.6 90.3-1.3-71.1-16.5 74.8-4.5-49.3-13.3 50.2-5.4-34.2-8.5 21.4"/><path class="st6" d="M1380.6 1123.7s-12.3 6.4-16 18.3l7.9-.7s2.5-11.1 8.1-17.6zM1380.7 1097.2s-32.2 13.6-50 58l15.9-6s14.3-31.7 34.1-52zM1314.6 1165.8l-18 11s25.2-72.5 78.2-108.7c0 0-44.2 56.1-60.2 97.7zM1359.6 1049.3s-52.7 16.9-94.7 148.2l17.6-9.5s13.2-67.2 77.1-138.7z"/><path class="st6" d="M1247.6 1212.5l9.5-14s2.4-65 71.7-155.3c0 0-47.1 20.5-86.5 154.1l5.3 15.2zM1287.7 1057.3s-38.7 61.7-53.5 128.9l-7.7-16.9c0 .1 28.9-80.3 61.2-112M1222.1 1164.9l-8.5-12.1s17.7-72.4 42.5-88.5c0 .1-34.8 77.5-34 100.6zM1204.9 1143.8l-5.3-11.8s19.8-73.3 38.8-97.9c0 0-9.2 47.6-33.5 109.7zM1192.8 1124.6l-6.1-10.2s9.3-78.2 27.6-102.8c0-.1-18.4 96.7-21.5 113zM1181.7 1111.8h-5.9s6.7-104.5 11.6-112.6c0 0 4.4 4.9 4.3 29.1l-8.2 83.5h-1.8z"/><path class="st6" d="M1168.9 1127.3s54.4 47.4 77.4 109.5c0 0 56.7-62.2 127.9-83 0 0-58.6 64.7-110 152.7l4.4-45.1-27.3 92.7.4-75.7-22 118.8-4.3-128.5-18.9 181.9-3.8-213.3-14 256.4-10.4-174.4M1413.9 1285.1l-.7 137.2-34.9 17.8.7-124.3-84.9-.7 19.7-30.6zM1171.4 1665.7s-12.5-114.4 96.1-315.6l15.8.1c0-.1-95.6 150.7-111.9 315.5z"/><path class="st6" d="M1326 1347.3l-18.7-.1s-127.2 196.6-124.1 323.5c0 0 21.7-134.4 142.8-323.4z"/><path class="st6" d="M1346 1360.1l-.2 30.6s-109.3 129.9-145.3 283.1c0 0-12.1-106.6 145.5-313.7zM1358.5 1494.6l-23.3-.1s-98.6 83.7-109.1 203.9c0 0 37.7-132.5 132.4-203.8z"/><path class="st6" d="M1345.6 1430.7l-.1 23.7s-32 22.8-43.5 39.9l11.9.1s-73.4 79.1-99.3 193.3c-.1 0 10.1-144.2 131-257zM1449 1265l-.1 16.4 28-12.4zM1448.8 1296.1l-.1 13.2s33.9-19.9 70.8-18c.1.1-20.3-18-70.7 4.8zM1448.7 1324.2l-.1 15.7s40.1-18.9 99.7-22.8c0 0-29.7-20-99.6 7.1zM1448.5 1353.3l-.1 17.2s46.2-25.7 117.8-15c.1 0-21.7-32.3-117.7-2.2zM1448.4 1383.1l-.1 14.9s69.1-25.2 128.7-4.3c-.1 0-40-41.5-128.6-10.6zM1448.2 1408l-.1 15.4s72.1-10.4 128.6 5.9c.1 0-41.8-38.1-128.5-21.3zM1441.8 1451.4s10.8 167.2-101.9 237c0 0 42.7-44.9 59.4-102.5 0 0-40.9 76.6-85.1 107.7 0 0 52-69.7 69.4-115.1 0 0-84.3 116.1-88.6 120.3 0 0 24.9-73.3 89.1-142.1 0 0-74.1 55-112.1 152.3 0 0 13.9-97.4 126.8-187 0 0-119.7 69.4-150.2 197.7 0 0-5.6-80 76.2-160.2 0 0 32.7-31.2 66.4-53.5.1-.1 23.8-15.9 50.6-54.6zM1548.5 1276.1s181.9-3 264.6 177.3c0 0 44.3 105.5-18.2 211.8l-48.5 22.3 9.6 7.2 87.9-39.2-52 89.3s-23.8-30.7-63.4-49.3c0 0 118.7-216.1-119.6-278.6l-1.7-18s118.7 17.3 156.3 130.2c0 0 20.1 51.6-11 141.6 0 0 65.2-125-26.8-228.8 0 0-34.4-43.6-120.9-69.7l.1-11.7s248.7 50 167.1 301.9c0 0 68.7-122-18.6-228.7 0 0-43.2-66-162.3-94.9l-13.7-19.9s161.2 14.6 214.8 157.1c0 0 35.5 89.6-4 179.2 0 0 74-131.9-23.1-255.5 0 0-72.8-95.4-205.5-107.3l-11.1-16.3z"/><path class="st6" d="M1773 1765.3s-26.8-54.5-89.4-79.3c0 0 38.3-83.9 24.5-142.5 0 0-71.1-6.9-127.5 39.8 0 0 15.2-56.5 8.6-106.6 0 0-69.9-11.5-139 43.2l2.2 12.6s61.4-40.2 121-39.5c0 0 4.7 57.4-13.6 116.5 0 0 60.9-44.1 128.2-43.8 0 0 3.7 77-27.2 124.7 0 0 72.7 36.9 85.2 74.5"/><path class="st6" d="M1582.8 1764.1s.4-71.3-74-74.8c0 0 20.2-50.9-2.6-79 0 0-29.4-32.8-73.9-8.6 0 0 11.5-32 16.1-58 0 0 4.3 13.3 3.7 23 0 0 6-17.8 32.1-41.9 0 0-11.6 23.6-14.7 37.4 0 0 18.8-26.7 43.3-45.9l-25.5 48.8 56.9-55.3-41.9 65 53.8-50.9-36.8 58.4 40-36.5-33.7 51 30.7-19.5-26.2 40.6 22.5-12.4-10.3 24.2 40.2-25.8-26.2 37.8 60.7-49.4-41.6 54.8 83.7-67.3-70.5 76.3 83.5-68.9-76.9 83.4 75.5-55.9-67.9 66.7 62.1-33.8-56.3 48.9 49.6-22.4-51.7 44.1 61-15.2-51.1 27.2s45.4-11.4 73.9-6.2l-57.2 17.8 84.3 6.3-90.6 16.1"/><path class="st6" d="M1422.1 1616.7c5.9-2.8 16.1-11.4 16.1-11.4l3.1 2.3s-11.4 11.7-20.3 12.9l1.1-3.8zM1462.9 1602.1l5.6 4.6s-33.5 27.6-60.1 38.4l1.8-7.9c0 .1 30.2-13.5 52.7-35.1zM1386.8 1672.8c54.1-12.5 99.2-55.8 99.2-55.8l-7.1-6.4s-42.1 38.3-84.6 51l-7.5 11.2zM1495.1 1628l6.6 8.6s-66 53.8-138.9 56.7l14.6-9.1s69.1-16.4 117.7-56.2zM1499.6 1654.8s4 11.7-13.9 21.6c-17.9 9.8-73.8 32.2-109.7 24.6 0 0 54.9-4.5 123.6-46.2zM1403.2 1712.4c38.7-2.1 87.8-24.2 87.8-24.2l4.8 5.9c0-.1-52.9 24.9-92.6 18.3M1522.8 1697.2l9.9 6.1s-57.5 31.6-111 22.2c0 0 62.2-4.5 101.1-28.3zM1544.4 1712.6l7.3 8.7s-55.2 26.5-115.8 15.7c0 0 79.6-5.3 108.5-24.4zM1557.2 1735.4l4.9 15.3s-63.5 10.1-111.6 1.2c-.1 0 85.8-3.6 106.7-16.5zM1440.5 1763.2s-55.4-91.1-175.5-36.9c0 0 54.6-8.1 89.2-3.7l-73.1 13.7 90.6 3.4-101.4 9.6 85.8 13.3"/><g><path class="st6" d="M1173.1 3058.6l-53.2-83.5 17.1-17.9v28.2l6.6-.1.7-39.8h6.5l-.1 47.6 7.8 7.7v-63.2l14-14.5"/><path class="st6" d="M1172.3 2876.4s-62.6 172.5-240.7 178.2c0 0 191.7-53.9 90.3-332.8 0 0 43.7 30.5 44.8 183.4 0 0 18.2-68.1-12.1-156 0 0 32.3 36.4 31 133.7 0 0 13.5-61.6 0-114.3 0 0 17.6 18.7 20 84.4 0 0 12.5-43.6.2-94.8 0 0 17.4 16 17.9 78.3v6.3s6.3-6.3 6.1-19.5l-1.3-78.4 5.7-10.1 5.4 9.9 3.8 87.2s1.7 4 3.8 2.9c2.1-1.2 2.9-2.9 2.5-6.1-.4-3.2-.2-107.2-.2-107.2l4.9-10.9 5.4 10.5 4.2 89.6s.7 21.2 8.1 19.1"/><path class="st6" d="M1171.2 2640.2s-27.7 52-81.6 84.3c0 0-15.3-3.4-46.5-104.7 0 0-44.3 49-101.2 67.1 0 0-14.2-7.6-25.1-111.6 0 0-51.9 36.4-112.3 35.8l8.4-18s57.7-.9 120.3-51.5c0 0-4.1 74.9 18.2 119.6 0 0 45.1-5.4 105.7-79.7 0 0 7.4 79.1 37.3 111.2 0 0 42.6-26.5 76.6-81.6M765.8 2808.7s-10.8-73.9 22.6-159.1c0 0 21.9 9.6 35.3 52.4 0 0 43.2-53.6 59.6-42.9 16.3 10.7 17.9 53 12.9 74.9 0 0 43.8-30.2 74.4-12.4 0 0 13.8 45.8-13.6 78.5 0 0 40.8 8.6 54.6 34.6 0 0 1.3 134.6-141.5 117.5 0 0 65.6-10.1 89.6-38.8 0 0-36.7 17.3-74.1 17.3 0 0 63-31.1 90.1-62.9 0 0-41.2 31.8-87.6 39.9 0 0 55.9-40.2 69.6-57.1 0 0-30.5 17.8-69.7 32.1 0 0 46.4-40.9 53.6-51.6 0 0-32.1 21.5-60.3 27.6 0 0 29.8-30.3 38.1-44 0 0-27.9 23.4-46.2 29.9 0 0 50-54.4 57.9-86.5 0 0-38.8 54.5-65.2 70.1-.4.2-.8.5-1.2.7 0 0 19.4-42.5 30.1-57 0 0-25.6 12.3-41.2 46 0 0-4.6-15.3 19.8-54.3 0 0-19.5 15.3-32.8 41 0 0-5-24.8 17.1-79.9 0 0-30.9 46.7-36.6 76.9 0 0-8.1-14.5 2.9-58.9 0 0-14.1 22.2-21.7 56.6 0 0-6.5-16.4.6-65.4 0 0-15.6 27.6-17.5 67.7 0 0-5.1-48.5 1-76.8.1.2-14.5 21.2-20.6 83.9z"/><path class="st6" d="M771 2840.8s2.4 66.5 67.5 100.8c0 0 42-24.9 6.3-83.3.1 0-37.9-56.5-73.8-17.5z"/><path class="st6" d="M1011.6 2916.9s-19.3 150.2-196.2 120.7c0 0-247.4-83.2-152.8-434.3 0 0 56.4-170.3 224.2-331.2h13s-122.4 120.7-178.7 239.4c0 0-26.7 48.2-46.4 114-19.8 65.8-19.1 124.9-16 168.7 3.1 43.8 34.9 144.7 115.6 207.7 0 0-76.6-72.7-95.6-157.8-19-85.1-16.5-210.3 63.5-342.4 0 0 85.9-141.6 175-229.7H935s-107.3 114.6-166.8 217.2c0 0-114 185.5-77 338.1 0 0 9 83.5 98.8 163.4 0 0 89.8 71.2 170.2-5.4 0 0-77.2 59.1-156.9 5-79.6-54.1-112.3-179.8-108.6-226.1 3.7-46.3 15-160.2 104.2-291.9 0 0 90.7-137.2 152.5-200.3h18s-178.9 201.9-223 330.4c-44.1 128.5-57.6 208.8 17.9 339.4 0 0 31.8 39.2 56.2 47.8 0 0-48.5-42.2-66.4-79.4-17.9-37.2-43.5-101.4-28.9-181.9 14.6-80.6 42.5-163.7 122.8-276.5l136.3-179.9h19.1S900.8 2406.4 866.9 2455c-33.9 48.6-103.7 139.7-125.6 274.3-21.9 134.6 43.2 205.6 63.9 228.5 20.8 22.9 115.7 80.8 206.4-40.9z"/><path class="st6" d="M619.1 2896.7c25.5 10.7 40.8 9.1 40.8 9.1-75.1-88.6-73.7-159.9-73.7-159.9 16.8 11.2 38.8 17.3 38.8 17.3-40.9-70.1-45.1-133-45.1-133l45.9 19.8c-33.2-31-46.7-146.2-46.7-146.2-26.4 49.5 13.5 113.1 13.5 113.1-8.2-9.2-33.7-41.2-33.7-41.2l-2.4 81.6c4.1 16.4 35.8 68 35.8 68-13.3-7.8-35.2-39.6-35.2-39.6l4.2 92.2c12.9 36.8 54.2 97.3 54.2 97.3-13.8-10.7-43.9-47.8-43.9-47.8 19 91.3 47.2 146.7 47.2 146.7-13.8-13.7-40.9-74.9-40.9-74.9l-28.4 65.8c39.6-92.3 3.8-155.9 3.8-155.9-7.1 26.1-22.4 32.6-22.4 32.6 32.5-47 12-142.7 12-142.7l-17.8 19.4c6.1-11.2 21.8-52.5 20.8-68.3-1-15.8-2.6-45.4 5.5-75.4 8.1-30.1 4.5-35.7 4.5-35.7-18.3 20.9-34.6 52.6-34.6 52.6 8.1-42.3 26.4-58.7 26.4-58.7 23.4-24.5 41.2-68.8 41.2-68.8l-30.6.1c-62.5 87.9-71.5 177.9-71.5 177.9l37.2-17.9c-2.5 50.5-34.9 156.5-34.9 156.5l36.1-24-35.9 161.6 44.3-38.8c1.2 93.3-29.8 162.5-29.8 162.5 41.8-22.6 58.5-45.3 58.5-45.3l44.5 58.5 26.4-51.5c65.3 52.9 162.2 51.2 162.2 51.2-143-69.1-176.3-158.2-176.3-158.2zm-35.8 39.9c-1.9 7.5-13.9 44.9-14.3 31.4-.4-13.6 10.2-40.2 10.2-40.2 1.4-3.5 6 1.3 4.1 8.8zm-1.2 46.8s1.3-23.1 9.3-31.4c8-8.2-4 26-9.3 31.4zm10.9 12.2s1.8-20.4 8.4-28.6c6.5-8.1-2.5 27.1-8.4 28.6zm14.7 6.1s-3.5-11.5 3.4-15.7c6.9-4.2.3 16.5-3.4 15.7z"/><path class="st6" d="M634.7 2228.4c-81.1-44.7-129.2-126.2-129.2-126.2-12.1 87.2 22.7 129.4 22.7 129.4-29.5 13.8-36.1 31.7-36.1 31.7 10.2 21.9 52.1 32.5 52.1 32.5-43.3 22.5-51.9 55.1-51.9 55.1 22 22.4 52 26.4 52 26.4-33.1 35.2-34.5 66.8-34.5 66.8 55.1 16.7 91.8 7.5 91.8 7.5-6.5 92.8 44.6 134.5 44.6 134.5 7.5-59.7 56.2-136.3 56.2-136.3s-135.2-62.2-67.7-221.4zm-4.4 249.8l20.1-31.4-11.6 52.5 24.1-39.3-6.3 28 28.7-33.9s-29.4 51.8-44.6 92.9c0 0-31.9-24.2-21.4-113.4 0 0-54.3 11.1-88.2-2.4 0 0 6.6-27.5 40.9-64 0 0-36.2-9.4-56.1-20.5 0 0 11.1-29.2 58-52.6 0 0-48.7-19.8-58.2-32.8 0 0-1.3-10.4 32.8-28.9 0 0-28.1-30.5-26.9-79.7 0 0 52.1 52.4 81.9 69.2l-50.5-21.8 35 29.5-36.2-12.2 30.6 22.9-26.8.6 28.3 8.9-49.4 4.9 50.5 8.3-35.2 8.2 37 4.5-15 10.2 18.6 2.5-15.3 12.8 15.8 3-30.8 9.5 29.3 3.8-44.6 10.8 45.1 4.5-51.2 11.6 52.5 1.2-17.8 11 21.7 4.3-17.3 16.6 19.3 2.3-42.4 28.4 47.9-13.6-33.3 27.8 46.6-15.9-22.4 24.3 34.6-7.5-1.2 25.7 13.2-14.8-9.8 44z"/><path class="st6" d="M654.9 2388c-2.9-3.9-5.4-7.8-7.6-11.8 0 0 27.5-24.4 46.4-34.4 0 0 5-.4 12.6-.5l-51.4 46.7zM640.5 2361.7c-2.2-5.8-3.9-11.7-5.2-17.6l35.5-3.2-30.3 20.8zM773.4 2358.1c-1.7-1.3-5.7-4-7.6-5.1-30.8 26.2-62.1 75.3-62.1 75.3 3.2 1.7 6.5 3.3 9.9 4.8 0 .1 28.1-39.9 59.8-75zM757.1 2349c-37.9 33.7-63.4 73.7-63.4 73.7-3.8-2.3-7.4-4.7-10.7-7.1 0 0 23.4-36.8 64.1-69.8m10 3.2c-3.2-1.2-6.6-2.3-10-3.2M734.9 2343.3c-4.5-.7-9-1.2-13.2-1.5-23.9 16.8-58.2 56.7-58.2 56.7 2.7 2.9 5.6 5.8 8.8 8.6 0-.1 42-47.1 62.6-63.8zM627 2314.3c0 4.8.2 9.5.8 14.1 0 0 36.6 3.7 57.7.7 0 0 4.3-2.6 10.5-7l-69-7.8zM740.5 2269c-.7 2-2.3 6.6-3.2 8.6-40.3-3.2-94.5-24.7-94.5-24.7 1.6-3.2 3.3-6.4 5.2-9.7.1 0 46.3 15.9 92.5 25.8zM726.5 2294.3c-52.3-2.8-92.8-19-92.8-19 1.3-3.9 2.8-8 4.5-12.1 0 0 44.1 17.6 94.5 22.6m-6.2 8.5c2.2-2.7 4.3-5.5 6.2-8.4M718 2303.5c-3.3 3.2-6.6 6.2-9.8 9-29.2.4-80.3-11.8-80.3-11.8.5-3.9 1.2-8 2.1-12.1 0 0 61.6 13.5 88 14.9zM709.9 2330.1s28.2-22.7 41.8-55.6h18.2s-8.2 30.8-24 42.9c0 0 31.5 3.1 46.5 12.6l-10.1 13.1c-.1 0-30.2-14.5-72.4-13z"/><path class="st6" d="M771.4 2307.8l16.8-30.3 54.2 3-35.4 36.6zM1170.8 2537s-68.8 8.5-96.9-75.9c0 0-49.2 56.7-94.8 30 0 0-45.2-25.9-29.6-100.9 0 0-80.1 97.6-113.6 161.2l78.6-99.9-63.6 112.9 72.8-99.1-48.4 97.2 53.4-73.9-27.4 63.5 38.1-47.9-14.1 34 31.7-32.6-14.4 42.5 25.6-26-21.7 62.4 32-47.5-25.8 80.1 42.9-71.8L965 2636l46.1-81.7-20.9 72.5 40.9-80.5-13.3 60.8 32.2-65.6-3.6 39 18.1-33.7-.5 38.8 14.5-27.7-5.2 64.4 17.5-45.9-5 77.6 19.4-71.7-3.5 93.5 19.9-90.4 1.9 71 15.9-74.9 4.9 49.3 12.9-50.3 5.6 34.2 8.4-21.4"/><path class="st6" d="M958.5 2400.7s12.2-6.5 15.8-18.4l-7.9.8s-2.4 11.1-7.9 17.6zM958.5 2427.3s32.1-13.8 49.6-58.4l-15.9 6.1c.1 0-14 31.8-33.7 52.3zM1024.2 2358.1l17.9-11.1s-24.7 72.7-77.4 109.3c0 0 43.8-56.4 59.5-98.2zM980 2475s52.6-17.3 93.6-148.9l-17.6 9.6s-12.6 67.3-76 139.3z"/><path class="st6" d="M1090.8 2310.9l-9.4 14s-1.9 65-70.6 155.8c0 0 47-20.9 85.3-154.7l-5.3-15.1zM1051.8 2466.5s38.2-62 52.6-129.3l7.9 16.8c0-.1-28.4 80.5-60.5 112.5M1116.7 2358.3l8.6 12s-17.2 72.6-41.9 88.8c0 0 34.3-77.6 33.3-100.8zM1134 2379.4l5.4 11.7s-19.2 73.4-38 98.2c-.1 0 8.7-47.7 32.6-109.9zM1146.3 2398.5l6.1 10.1s-8.8 78.3-26.8 103c0 .1 17.6-96.8 20.7-113.1zM1157.5 2411.2h5.9s-5.9 104.5-10.7 112.7c0 0-4.5-4.8-4.5-29.1l7.6-83.5 1.7-.1z"/><path class="st6" d="M1170.1 2395.6s-54.8-47-78.2-108.9c0 0-56.3 62.7-127.3 84 0 0 58.2-65.1 108.9-153.5l-4.1 45.1 26.6-92.9.1 75.7 21.2-118.9 5.2 128.4 17.6-182 5.4 213.3 12.1-256.5 11.7 174.3M924 2239.6l-.3-137.2 34.8-18.1.2 124.3 84.9.1-19.5 30.7zM1163.7 1857.3s13.3 114.3-93.8 316.3h-15.8s94.6-151.5 109.6-316.3z"/><path class="st6" d="M1011.4 2176.8h18.7s125.8-197.5 121.7-324.4c.1-.1-20.6 134.5-140.4 324.4z"/><path class="st6" d="M991.4 2164.1l-.1-30.6s108.3-130.7 143.2-284.2c0 0 13 106.5-143.1 314.8zM977.9 2029.6h23.3s98-84.4 107.6-204.7c0 0-36.8 132.8-130.9 204.7z"/><path class="st6" d="M991.2 2093.5v-23.7s31.8-23 43.3-40.2h-11.9s72.9-79.6 97.9-194c0 0-9.2 144.2-129.3 257.9zM889 2259.9v-16.4l-27.9 12.7zM889 2228.8v-13.2s-33.8 20.1-70.7 18.5c0 0 20.5 17.9 70.7-5.3zM888.9 2200.7V2185s-39.9 19.2-99.5 23.5c0 0 29.8 19.8 99.5-7.8zM888.9 2171.6v-17.2s-46 26.1-117.7 15.9c-.1 0 22 32.1 117.7 1.3zM888.8 2141.8v-14.9s-69 25.7-128.6 5.2c0 0 40.2 41.2 128.6 9.7zM888.8 2117v-15.4s-72 11-128.6-5c-.1 0 42 37.7 128.6 20.4zM894.9 2073.5s-12-167.2 100.2-237.7c0 0-42.3 45.2-58.7 102.9 0 0 40.4-76.9 84.3-108.3 0 0-51.5 70.1-68.6 115.6 0 0 83.5-116.8 87.7-121 0 0-24.3 73.4-88 142.8 0 0 73.7-55.6 111-153.1 0 0-13.2 97.5-125.4 187.9 0 0 119.2-70.3 148.8-198.8 0 0 6.2 80-75.1 160.8 0 0-32.4 31.4-66 54-.1 0-23.7 16-50.2 54.9zM789.4 2249.5s-181.9 4.4-265.9-175.4c0 0-45-105.2 16.7-211.9l48.4-22.6-9.7-7.1-87.6 39.8 51.3-89.7s24 30.5 63.8 48.8c0 0-117.1 217 121.6 277.8l1.8 18s-118.8-16.5-157.2-129c0 0-20.5-51.4 9.9-141.7 0 0-64.2 125.5 28.5 228.6 0 0 34.8 43.3 121.4 68.9v11.7s-249.1-48.2-169.3-300.7c0 0-67.8 122.5 20.3 228.6 0 0 43.7 65.7 163 93.7l13.8 19.8s-161.3-13.5-215.9-155.6c0 0-36.1-89.3 2.7-179.3 0 0-73.1 132.5 24.9 255.3 0 0 73.5 94.9 206.2 105.8l11.3 16.2z"/><path class="st6" d="M561.5 1762s27.2 54.3 90 78.6c0 0-37.7 84.2-23.4 142.6 0 0 71.1 6.4 127.2-40.8 0 0-14.8 56.6-7.8 106.7 0 0 70 11 138.7-44.2l-2.3-12.6s-61.1 40.6-120.7 40.4c0 0-5.1-57.3 12.8-116.6 0 0-60.6 44.6-127.9 44.7 0 0-4.2-77 26.3-124.9 0 0-73-36.3-85.8-73.9"/><path class="st6" d="M751.6 1761.8s.1 71.3 74.5 74.3c0 0-19.8 51 3.2 79 0 0 29.6 32.6 73.9 8 0 0-11.3 32.1-15.7 58.1 0 0-4.4-13.2-3.9-22.9 0 0-5.8 17.9-31.8 42.1 0 0 11.4-23.7 14.5-37.5 0 0-18.7 26.9-43 46.2l25.1-49-56.5 55.7 41.4-65.3-53.4 51.3 36.3-58.7-39.7 36.8 33.3-51.3-30.5 19.7 25.9-40.8L783 1920l10.1-24.2-40 26.1 25.9-38-60.3 49.8 41.2-55.1-83.2 67.9 69.9-76.8-83 69.5 76.3-84-75.1 56.5 67.4-67.2-61.9 34.3 56-49.3-49.4 22.8 51.4-44.4-60.9 15.7 50.9-27.6s-45.3 11.8-73.9 6.8l57.1-18.2-84.4-5.7 90.5-16.8"/><path class="st6" d="M913.4 1908.1c-5.9 2.8-16 11.5-16 11.5l-3.2-2.3s11.3-11.7 20.2-13l-1 3.8zM872.7 1922.9l-5.6-4.6s33.3-27.8 59.8-38.8l-1.8 7.9s-30 13.8-52.4 35.5zM948.2 1851.7c-54 12.8-98.8 56.5-98.8 56.5l7.1 6.4s41.8-38.7 84.3-51.6l7.4-11.3zM840.3 1897.2l-6.6-8.5s65.7-54.3 138.5-57.7l-14.5 9.2c-.1 0-69.1 16.9-117.4 57zM835.6 1870.5s-4.1-11.7 13.7-21.7c17.8-10 73.6-32.8 109.5-25.4.1 0-54.8 4.9-123.2 47.1zM931.6 1812.2c-38.7 2.4-87.6 24.9-87.6 24.9l-4.9-5.9s52.7-25.3 92.5-19M812.1 1828.2l-10-6s57.3-32 110.8-23c.1 0-62.1 5-100.8 29zM790.4 1813l-7.4-8.7s55-26.9 115.7-16.6c0 .1-79.5 6-108.3 25.3zM777.5 1790.3l-5-15.3s63.4-10.6 111.6-2c0 0-85.9 4.3-106.6 17.3zM893.9 1761.7s56.1 90.7 175.8 35.6c0 0-54.6 8.4-89.2 4.3l73-14.3-90.6-2.7 101.3-10.3-85.8-12.7M1173.1 3058.6l52.5-83.9-17.3-17.8.3 28.2h-6.6l-1.1-39.9-6.5.1.5 47.6-7.6 7.8-.6-63.2-14.2-14.4"/><path class="st6" d="M1172.3 2876.4s64.1 172 242.3 176c0 0-192.2-52.1-93.3-331.9 0 0-43.4 30.9-43.1 183.8 0 0-18.8-67.9 10.7-156.1 0 0-32 36.7-29.7 134 0 0-14.1-61.4-1.1-114.3 0 0-17.5 18.9-19.3 84.6 0 0-12.9-43.5-1.1-94.8 0 0-17.3 16.2-17.2 78.5v6.3s-6.4-6.3-6.3-19.5l.6-78.4-5.8-10.1-5.3 10-3 87.2s-1.7 4-3.8 2.9c-2.1-1.1-2.9-2.8-2.5-6.1.4-3.3-.8-107.2-.8-107.2l-5-10.9-5.3 10.6-3.4 89.7s-.5 21.2-7.9 19.2"/><path class="st6" d="M1171.2 2640.2s28.2 51.8 82.3 83.5c0 0 15.3-3.6 45.5-105.1 0 0 44.7 48.6 101.8 66.2 0 0 14.1-7.7 24-111.8 0 0 52.3 35.9 112.6 34.7l-8.5-17.9s-57.7-.3-120.8-50.4c0 0 4.7 74.9-17.1 119.8 0 0-45.1-5-106.5-78.7 0 0-6.7 79.2-36.3 111.5 0 0-42.8-26.1-77.3-80.9M1578.2 2805s10.2-74-24.1-158.9c0 0-21.8 9.8-34.8 52.8 0 0-43.7-53.2-59.9-42.4-16.2 10.8-17.5 53.1-12.2 75 0 0-44.1-29.8-74.5-11.7 0 0-13.4 46 14.3 78.4 0 0-40.7 9-54.3 35.1 0 0 0 134.6 142.5 116.2 0 0-65.7-9.5-90-38 0 0 36.8 16.9 74.3 16.7 0 0-63.3-30.5-90.7-62 0 0 41.5 31.4 88 39.1 0 0-56.3-39.7-70.2-56.5 0 0 30.7 17.6 70 31.5 0 0-46.7-40.5-54.1-51.1 0 0 32.3 21.2 60.6 27.1 0 0-30-30-38.5-43.7 0 0 28.1 23.1 46.5 29.5 0 0-50.5-53.9-58.7-86 0 0 39.3 54.2 65.8 69.5.4.2.8.5 1.2.7 0 0-19.8-42.3-30.6-56.7 0 0 25.7 12 41.6 45.6 0 0 4.4-15.4-20.3-54.1 0 0 19.6 15.1 33.2 40.7 0 0 4.8-24.9-17.8-79.8 0 0 31.3 46.4 37.3 76.6 0 0 7.9-14.6-3.5-58.9 0 0 14.3 22.1 22.2 56.4 0 0 6.4-16.5-1.2-65.4 0 0 15.9 27.4 18.1 67.5 0 0 4.6-48.6-1.7-76.8 0 .1 14.8 21 21.5 83.6z"/><path class="st6" d="M1573.2 2837.2s-1.8 66.5-66.5 101.4c0 0-42.2-24.5-7.1-83.3 0 0 37.4-56.8 73.6-18.1z"/><path class="st6" d="M1333.3 2915.4s20.6 150 197.3 118.9c0 0 246.6-85.4 148.9-435.6 0 0-58-169.8-227.2-329.1l-13 .1s123.5 119.6 180.9 237.7c0 0 27.1 48 47.5 113.6s20.3 124.7 17.5 168.6c-2.7 43.9-33.6 145-113.7 208.8 0 0 75.9-73.4 94.2-158.7 18.2-85.3 14.6-210.5-66.7-341.8 0 0-87.2-140.8-177-228.1l-17.8.1s108.4 113.6 168.8 215.6c0 0 115.7 184.5 80.1 337.4 0 0-8.2 83.6-97.3 164.3 0 0-89.2 72-170.3-3.9 0 0 77.8 58.4 156.9 3.6 79.1-54.9 110.7-180.9 106.5-227.1-4.2-46.2-16.5-160.1-106.9-290.9 0 0-92-136.4-154.4-198.9l-18 .1s180.7 200.3 226 328.4c45.3 128.1 59.5 208.3-14.8 339.6 0 0-31.4 39.5-55.8 48.3 0 0 48.1-42.7 65.7-80s42.6-101.7 27.2-182.2c-15.4-80.4-44-163.3-125.4-275.4l-137.9-178.6-19.1.1s103.8 133.5 138.2 181.8c34.4 48.3 105 138.8 128.1 273.2 23.1 134.4-41.3 206-61.8 229.1-20.4 23.1-114.8 81.9-206.7-39z"/><path class="st6" d="M1550.9 3051.4s96.9.8 161.7-52.7l26.9 51.3 43.9-58.9s17 22.5 58.9 44.8c0 0-31.6-68.9-31.2-162.2l44.6 38.4-37.4-161.3 36.4 23.7s-33.4-105.8-36.3-156.2l37.3 17.6s-9.8-89.9-73.2-177.3l-30.6.2s18.2 44.1 41.8 68.4c0 0 18.5 16.2 26.9 58.4 0 0-16.5-31.5-35-52.2 0 0-3.5 5.6 4.8 35.6 8.4 30 7.1 59.6 6.2 75.4-.9 15.8 15.2 57 21.4 68.2l-18-19.2s-19.7 96 13.3 142.6c0 0-15.3-6.4-22.7-32.4 0 0-35.2 63.9 5.2 155.9l-29-65.5s-26.6 61.4-40.2 75.2c0 0 27.6-55.7 45.8-147.1 0 0-29.8 37.4-43.5 48.2 0 0 40.7-60.8 53.3-97.7l3.4-92.3s-21.7 32-34.9 39.9c0 0 31.2-52 35.2-68.4l-3.1-81.6s-25.3 32.3-33.3 41.5c0 0 39.3-64 12.4-113.2 0 0-12.4 115.3-45.3 146.6l45.7-20.2s-3.6 62.9-43.9 133.4c0 0 21.9-6.3 38.6-17.6 0 0 2 71.3-72.2 160.6 0 0 15.3 1.4 40.7-9.5.1-.1-32.4 89.3-174.6 159.6zm214.8-129s10.9 26.5 10.6 40.1c-.3 13.6-12.6-23.8-14.6-31.2-1.9-7.5 2.7-12.4 4-8.9zm-11.8 24.3c8.1 8.2 9.6 31.3 9.6 31.3-5.4-5.3-17.7-39.4-9.6-31.3zm-9.9 15.2c6.6 8.1 8.6 28.5 8.6 28.5-5.9-1.5-15.2-36.6-8.6-28.5zm-9.6 19c6.9 4.2 3.6 15.6 3.6 15.6-3.6.9-10.5-19.7-3.6-15.6z"/><path class="st6" d="M1638.4 2445.6s49.4 76.2 57.4 135.8c0 0 50.7-42.2 43.4-134.9 0 0 36.8 8.9 91.7-8.3 0 0-1.8-31.6-35.1-66.5 0 0 30-4.3 51.8-26.9 0 0-8.9-32.6-52.4-54.7 0 0 41.7-11 51.8-33 0 0-6.8-17.8-36.4-31.3 0 0 34.4-42.6 21.5-129.6 0 0-47.3 81.9-128 127.3 68.8 158.6-65.7 222.1-65.7 222.1zm62-16.3l13.4 14.7-1.5-25.7 34.7 7.1-22.6-24 46.8 15.5-33.6-27.5 48 13.2-42.7-28 19.3-2.4-17.4-16.4 21.6-4.5-17.9-10.8 52.5-1.7-51.3-11.1 45.1-4.9-44.7-10.4 29.3-4-30.9-9.2 15.8-3.2-15.4-12.6 18.6-2.7-15.1-10.1 36.9-4.9-35.2-7.9 50.4-8.8-49.5-4.5 28.2-9.1-26.8-.3 30.4-23.2-36.1 12.5 34.7-29.8-50.3 22.3c29.7-17 81.3-69.9 81.3-69.9 1.6 49.2-26.2 80-26.2 80 34.3 18.1 33.1 28.6 33.1 28.6-9.3 13.1-57.9 33.3-57.9 33.3 47.1 23 58.5 52.1 58.5 52.1-19.8 11.4-55.9 21-55.9 21 34.7 36.2 41.5 63.7 41.5 63.7-33.8 13.8-88.2 3.2-88.2 3.2 11.4 89.1-20.4 113.6-20.4 113.6-15.6-40.9-45.5-92.4-45.5-92.4l29 33.7-6.6-28 24.5 39.1-12.1-52.4 20.4 31.2-10.2-44.4z"/><path class="st6" d="M1685.2 2383.3c2.8-3.9 5.3-7.9 7.5-11.9 0 0-27.7-24.2-46.7-34 0 0-5-.4-12.6-.3l51.8 46.2zM1699.3 2356.9c2.2-5.9 3.8-11.8 5-17.7l-35.5-2.9 30.5 20.6zM1566.5 2354.5c1.7-1.3 5.6-4.1 7.6-5.1 31 25.9 62.8 74.8 62.8 74.8-3.1 1.7-6.4 3.3-9.8 4.9-.1-.1-28.7-39.8-60.6-74.6zM1592.6 2342c41 32.6 64.7 69.2 64.7 69.2-3.3 2.5-6.9 4.9-10.7 7.2 0 0-25.8-39.8-64-73.1m10-3.3c-3.4.9-6.7 2-9.9 3.3M1604.8 2339.4c4.5-.8 9-1.3 13.2-1.6 24 16.6 58.7 56.1 58.7 56.1-2.7 2.9-5.6 5.8-8.7 8.6 0 0-42.5-46.6-63.2-63.1zM1712.5 2309.3c.1 4.8-.1 9.5-.6 14.1 0 0-36.5 4-57.7 1.2 0 0-4.3-2.5-10.6-6.9l68.9-8.4zM1598.5 2265.1c.7 2 2.3 6.6 3.3 8.5 40.3-3.6 94.2-25.5 94.2-25.5-1.6-3.2-3.4-6.4-5.3-9.7 0 .1-46.1 16.4-92.2 26.7zM1606.5 2281.9c50.4-5.5 94.3-23.5 94.3-23.5 1.8 4.1 3.3 8.1 4.6 12 0 0-40.4 16.5-92.7 19.8m-6.2-8.3c1.9 2.9 4 5.7 6.3 8.3M1621.3 2299.4c3.3 3.2 6.6 6.2 9.9 8.9 29.2.1 80.2-12.5 80.2-12.5-.5-3.9-1.2-8-2.2-12.1 0 0-61.4 14-87.9 15.7zM1629.7 2325.9s-28.5-22.4-42.3-55.2l-18.2.1s8.4 30.7 24.4 42.6c0 0-31.5 3.4-46.4 13l10.2 13c.2.2 30.1-14.6 72.3-13.5z"/><path class="st6" d="M1568 2304.1l-17-30.1-54.3 3.5 35.8 36.2zM1170.8 2537s68.9 7.9 96.2-76.8c0 0 49.7 56.2 95 29.1 0 0 44.9-26.3 28.7-101.1 0 0 81 96.9 115.1 160.1l-79.5-99.2 64.7 112.3-73.7-98.5 49.3 96.7-54.1-73.4 28 63.3-38.6-47.5 14.4 33.9-32-32.3 14.8 42.3-25.8-25.8 22.2 62.2-32.5-47.2 26.6 79.9-43.5-71.4 31.4 90.4-46.8-81.3 21.6 72.3-41.7-80.2 13.8 60.7-32.8-65.3 3.9 39-18.4-33.5.9 38.8-14.7-27.6 5.8 64.4-17.9-45.7 5.7 77.6-20-71.5 4.3 93.4-20.7-90.3-1.2 71.1-16.6-74.8-4.4 49.3-13.4-50.2-5.3 34.3-8.6-21.3"/><path class="st6" d="M1381.8 2398.8s-12.3-6.4-16-18.2l7.9.7c0-.1 2.5 11 8.1 17.5zM1381.9 2425.3s-32.2-13.5-50.1-57.9l15.9 6s14.4 31.6 34.2 51.9zM1315.7 2356.8l-18-11s25.4 72.5 78.4 108.6c-.1 0-44.4-56-60.4-97.6zM1361 2473.3s-52.8-16.8-95-148l17.7 9.4c-.1 0 13.1 67.2 77.3 138.6z"/><path class="st6" d="M1248.6 2310.2l9.5 13.9s2.5 65 72 155.2c0 0-47.2-20.4-86.8-153.9l5.3-15.2zM1289 2465.4s-38.8-61.6-53.8-128.8l-7.7 16.9c.1-.1 29.2 80.2 61.5 111.9M1223.2 2357.9l-8.5 12.1s17.8 72.4 42.7 88.4c0-.1-35-77.4-34.2-100.5zM1206.1 2379.1l-5.3 11.8s19.9 73.3 38.9 97.8c0 0-9.2-47.6-33.6-109.6zM1194 2398.3l-6 10.2s9.5 78.2 27.8 102.8c-.1 0-18.6-96.7-21.8-113zM1182.9 2411.1h-5.9s6.9 104.4 11.8 112.6c0 0 4.4-4.9 4.2-29.1l-8.3-83.5h-1.8z"/><path class="st6" d="M1170.1 2395.6s54.3-47.5 77.2-109.6c0 0 56.8 62.1 128.1 82.8 0 0-58.8-64.6-110.3-152.5l4.5 45.1-27.4-92.7.5 75.7-22.3-118.7-4 128.5-19.3-181.8-3.4 213.3-14.5-256.4-10.1 174.4M1414.8 2237.4l-1-137.3-34.9-17.7.9 124.3-84.8.9 19.6 30.5zM1171.6 1857.2s-12.3 114.4 96.7 315.5l15.8-.1s-96-150.7-112.5-315.4z"/><path class="st6" d="M1326.8 2175.3l-18.7.1s-127.6-196.3-124.7-323.3c0 .1 21.9 134.4 143.4 323.2z"/><path class="st6" d="M1346.7 2162.4l-.2-30.6s-109.5-129.7-145.8-282.9c0 .1-12 106.7 146 313.5zM1359 2027.9l-23.3.2s-98.7-83.5-109.5-203.7c0-.1 38 132.4 132.8 203.5z"/><path class="st6" d="M1346.2 2091.8l-.2-23.7s-32-22.7-43.6-39.8l11.9-.1s-73.6-79-99.7-193.1c0 0 10.5 144.2 131.6 256.7zM1449.9 2257.4l-.1-16.5 28 12.5zM1449.7 2226.2l-.1-13.2s34 19.8 70.9 17.8c0 .1-20.4 18.2-70.8-4.6zM1449.5 2198.1l-.1-15.7s40.1 18.8 99.8 22.6c-.1.1-29.7 20.2-99.7-6.9zM1449.3 2169.1l-.1-17.2s46.3 25.7 117.9 14.8c-.1 0-21.8 32.3-117.8 2.4zM1449.1 2139.3l-.1-14.9s69.2 25.1 128.7 4c-.1 0-39.9 41.6-128.6 10.9zM1448.9 2114.4l-.1-15.4s72.1 10.3 128.6-6.2c0 0-41.8 38.2-128.5 21.6zM1442.4 2071s10.5-167.3-102.4-236.8c0 0 42.8 44.8 59.6 102.4 0 0-41.1-76.5-85.3-107.6 0 0 52.1 69.6 69.6 114.9 0 0-84.6-116-88.8-120.2 0 0 25 73.2 89.3 141.9 0 0-74.2-54.9-112.3-152.1 0 0 14.1 97.4 127.1 186.8 0 0-119.9-69.2-150.6-197.4 0 0-5.5 80 76.5 160.1 0 0 32.7 31.1 66.5 53.4.2.2 23.9 15.9 50.8 54.6zM1549.4 2246.1s181.9 2.7 264.3-177.8c0 0 44.1-105.6-18.6-211.8l-48.6-22.2 9.6-7.2 88 39-52.1-89.2s-23.7 30.8-63.4 49.4c0 0 119.1 215.9-119 278.9l-1.7 18s118.6-17.6 156-130.5c0 0 20-51.6-11.2-141.6 0 0 65.4 124.9-26.4 228.8 0 0-34.4 43.6-120.8 70l.1 11.7s248.6-50.5 166.5-302.2c0 0 68.9 121.8-18.2 228.7 0 0-43.1 66.1-162.2 95.2l-13.6 20s161.2-14.9 214.5-157.5c0 0 35.3-89.7-4.4-179.2 0 0 74.3 131.8-22.6 255.5 0 0-72.7 95.5-205.3 107.7l-10.9 16.3z"/><path class="st6" d="M1773 1756.5s-26.7 54.5-89.3 79.4c0 0 38.5 83.8 24.7 142.4 0 0-71.1 7-127.6-39.6 0 0 15.3 56.5 8.8 106.6 0 0-69.9 11.6-139.1-43l2.2-12.6s61.5 40.1 121.1 39.3c0 0 4.6-57.4-13.8-116.5 0 0 61 44 128.3 43.5 0 0 3.5-77-27.4-124.7 0 0 72.6-37 85.1-74.7"/><path class="st6" d="M1582.8 1758s.6 71.3-73.8 74.9c0 0 20.2 50.8-2.5 79 0 0-29.3 32.8-73.8 8.7 0 0 11.6 32 16.2 58 0 0 4.2-13.3 3.7-23 0 0 6 17.8 32.2 41.8 0 0-11.6-23.6-14.8-37.4 0 0 18.9 26.7 43.4 45.8l-25.6-48.7 57 55.2-42-64.9 53.9 50.8-36.9-58.4 40 36.4-33.8-51 30.7 19.4-26.3-40.6 22.5 12.3-10.4-24.1 40.2 25.7-26.3-37.8 60.8 49.3-41.7-54.7 83.8 67.2-70.6-76.2 83.6 68.7-77.1-83.3 75.6 55.8-68-66.5 62.2 33.7-56.4-48.8 49.6 22.3-51.8-44 61 15.1-51.2-27.2s45.5 11.4 74 6.1l-57.2-17.7 84.3-6.5-90.6-15.9"/><path class="st6" d="M1422.3 1905.7c5.9 2.8 16.1 11.4 16.1 11.4l3.1-2.3s-11.4-11.6-20.3-12.9l1.1 3.8zM1463.2 1920.2l5.6-4.6s-33.6-27.5-60.2-38.3l1.8 7.9c.1 0 30.2 13.5 52.8 35zM1387 1849.7c54.1 12.4 99.3 55.6 99.3 55.6l-7.1 6.4s-42.2-38.3-84.7-50.9l-7.5-11.1zM1495.4 1894.3l6.6-8.6s-66.1-53.7-139.1-56.4l14.6 9.1c0-.1 69.2 16.2 117.9 55.9zM1499.8 1867.5s4-11.8-13.9-21.6-73.9-32.1-109.8-24.4c0 0 54.9 4.4 123.7 46zM1403.3 1810.1c38.8 2 87.8 24.1 87.8 24.1l4.8-5.9c0-.1-52.9-24.9-92.6-18.2M1522.9 1825l9.9-6.1s-57.6-31.5-111-22c0 0 62.2 4.4 101.1 28.1zM1544.5 1809.6l7.3-8.7s-55.2-26.4-115.8-15.5c0 0 79.5 5.1 108.5 24.2zM1557.2 1786.8l4.8-15.3s-63.5-10-111.6-1c0 0 86 3.4 106.8 16.3zM1440.5 1759.2s-55.2 91.2-175.4 37.2c0 0 54.7 8 89.2 3.5l-73.1-13.6 90.6-3.5-101.4-9.4 85.7-13.5"/></g></g><circle class="st6" cx="1167.2" cy="1758" r="28.4"/><path class="st6" d="M1167.2 1682.6c-41.7 0-75.5 33.8-75.5 75.5s33.8 75.5 75.5 75.5 75.4-33.8 75.4-75.5-33.7-75.5-75.4-75.5zm0 136.1c-33.5 0-60.7-27.2-60.7-60.7s27.2-60.7 60.7-60.7 60.7 27.2 60.7 60.7-27.1 60.7-60.7 60.7z"/></g></svg>