<svg xmlns="http://www.w3.org/2000/svg" viewBox="0 0 139.44933 20.551332" height="20.551" width="139.449"><defs><clipPath id="a"><path d="M0 15.413h104.587V0H0z"/></clipPath><linearGradient id="b" gradientTransform="scale(21.0897 -21.0897) rotate(65 .737 -.262)" gradientUnits="userSpaceOnUse" x2="1"><stop offset="0" stop-color="#ece0c2"/><stop offset=".5" stop-color="#ac8c4e"/><stop offset="1" stop-color="#ac8c4e"/></linearGradient><linearGradient id="c" gradientTransform="scale(17.27246 -17.27246) rotate(65 .838 -.224)" gradientUnits="userSpaceOnUse" x2="1"><stop offset="0" stop-color="#e15d6e"/><stop offset=".5" stop-color="#d2272d"/><stop offset="1" stop-color="#b62a2d"/></linearGradient><clipPath id="d"><path d="M0 15.413h104.587V0H0z"/></clipPath></defs><g clip-path="url(#a)" transform="matrix(1.33333 0 0 -1.33333 0 20.551)"><path d="M34.939 14.496h-2.423l-2.83.01h-3.265l-4.565.01L19.35 2.349h4.039l2.282 10.598h1.99L25.46 2.357l4.05.008 2.197 10.582h2.066L31.535 2.225 35.31.898l2.43 11.7c.106.505.045.889-.185 1.173-.382.469-1.287.72-2.617.725M47.114 9.846h-3.191l.623 3.086h3.19zm-1.23-5.922h-3.256l.955 4.348 3.214-.018zm3.05 10.583h-4.83c-2.281 0-3.53-.675-3.814-2.067l-.482-2.331c-.035-.168-.166-.626.008-.832.224-.262.65-.323.65-.323-.867-.007-1.054-.762-1.121-1.141l-.735-3.544c-.107-.517-.045-.91.188-1.197.38-.465 1.276-.712 2.59-.712h4.967c2.202.006 3.41.656 3.697 1.984l.747 3.578c.034.17.056.413-.041.617-.21.444-.576.415-.576.415s.829.1 1.094 1.312l.486 2.356c.105.503.043.885-.186 1.166-.382.47-1.296.719-2.641.719M61.14 9.846h-3.19l.62 3.086h3.192zm-1.228-5.922h-3.258l.955 4.348 3.215-.018zm3.05 10.583H58.13c-2.281 0-3.53-.675-3.815-2.067l-.482-2.331c-.034-.168-.165-.626.009-.832.224-.262.65-.323.65-.323-.866-.007-1.054-.762-1.12-1.141l-.736-3.544c-.107-.517-.046-.91.19-1.197.379-.465 1.274-.712 2.589-.712h4.966c2.202.006 3.41.656 3.697 1.984l.747 3.578c.034.17.056.413-.041.617-.21.444-.575.415-.575.415s.829.1 1.093 1.312l.486 2.356c.105.503.044.885-.185 1.166-.383.47-1.297.719-2.641.719M72.66 9.123L71.56 3.832c-.207-.995.46-1.492 2.007-1.492h6.261l-.862 1.454-4.326.007L75.745 9.1h4.39l.412 1.539h-5.262c-1.536 0-2.412-.505-2.626-1.516M86.898 3.816h-2.342l1.097 5.277h2.35zM89.09 10.6h-3.924c-1.567 0-2.454-.497-2.657-1.487l-1.096-5.306c-.2-.98.48-1.472 2.036-1.478h3.903c1.575 0 2.473.503 2.688 1.51l1.088 5.268c.209.994-.471 1.493-2.038 1.493M102.512 10.601h-1.55l-1.867.007H97.06l-3.04.01-1.783-8.278 3.084-.006 1.464 6.796.767.006-1.411-6.793 3.103-.007 1.405 6.786.814.014-1.418-6.805h3.103l1.403 6.754c.208 1.005-.472 1.51-2.04 1.516" fill="#f5f6f6"/><path d="M27.331 13.692c-.433 0-1.139.008-1.734 0-.594-.009-1.379-.654-1.74-.946-.362-.293-.363-.456-.509-1.159-.146-.702-.856-4.075-.998-4.748l-.486-2.317c-.076-.363-.595-.644-1.338-1.254-.742-.61-1.175-.919-1.175-.919h4.04l2.281 10.597h1.991l.95.427c-.428.22-.849.32-1.282.32M33.672 13.696c-.57 0-1.78.005-2.14 0-.36-.006-.743-.287-1.38-.744-.636-.457-.59-.756-.735-1.455l-1.414-6.819c-.078-.379-.146-.397-.4-.608-.252-.21-2.144-1.713-2.144-1.713l4.05.008 2.197 10.581h2.066l1.03.376c-.154.121-.56.374-1.13.374M37.742 12.598c.104.505.044.889-.187 1.173a1.117 1.117 0 0 1-.158.157 7.272 7.272 0 0 1-.264-.305 4.49 4.49 0 0 0-1.067-.914c-.347-.204-.366-.357-.446-.741L33.854 3.49l-2.32-1.266L35.311.898zM80.134 9.1l.414 1.539-1.03-.8h-2.824c-1.082 0-1.306-.058-1.874-.304-.567-.246-.68-.82-.785-1.346-.104-.528-.869-4.301-.869-4.301-.368-.336-1.278-.701-1.557-.808.22-.493.871-.74 1.96-.74h6.26l-.862 1.454-.393-.751h-3.652c-.728 0-.913.235-.913.235.311.165.633.523.633.523L75.745 9.1zM83.45 2.33h3.902c1.576 0 2.474.504 2.689 1.51l1.087 5.268c.112.53-.032.919-.427 1.167-.141-.218-.551-.833-.798-1.02-.301-.227-.463-.195-.463-.195.12-.115.082-.253.051-.406-.031-.153-.826-3.992-.903-4.374-.078-.382-.457-.66-.781-.922-.324-.263-.95-.311-1.307-.311-.356 0-.922-.005-1.572 0-.65.006-.796.23-.796.23.088.079.424.539.424.539l1.096 5.277h2.351l.941.38c-.129.087-.764.34-1.134.34-.368 0-1.514.003-2.135 0-.621-.002-1.043-.355-1.359-.656-.314-.302-.313-.513-.372-.804-.058-.291-.87-4.232-.908-4.42-.037-.188-.335-.277-.563-.441a34.546 34.546 0 0 0-.9-.594c.292-.374.917-.563 1.877-.567M97.11 9.848c-.727 0-1.089-.214-1.449-.43-.361-.218-.432-.423-.507-.774l-.922-4.304c-.063-.296-.113-.459-.268-.63-.155-.17-1.727-1.37-1.727-1.37l3.084-.006 1.464 6.796.767.006 1.088.237c-.265.23-.804.475-1.53.475M101.536 9.824c-.91.096-1.335-.072-1.837-.3-.501-.23-.613-.5-.67-.792-.057-.292-.874-4.26-.93-4.522-.053-.262-.143-.418-.282-.531-.14-.112-.477-.383-.848-.691-.371-.307-.827-.644-.827-.644l3.103-.008 1.404 6.787.815.014.729.469s-.331.183-.657.218M103.148 2.33l1.403 6.756c.098.47-.003.83-.295 1.08-.242-.436-.896-.88-1.092-.998-.204-.124-.215-.378-.268-.648-.053-.27-.777-3.757-.855-4.144-.08-.387-.142-.543-.316-.701-.158-.146-1.467-1.173-1.678-1.338l-.001-.006z" fill="#babcbf"/><path d="M43.346 13.201a69.5 69.5 0 0 1-.203 1.257c-1.533-.159-2.447-.73-2.776-1.73.015-.008.027-.017.042-.022l2.02-.619c.108.288.26.502.542.785.129.13.253.235.376.33M41.693 8.61l-1.228.343c-.434-.003-.697-.195-.86-.433l1.735-1.386c.14.602.264 1.138.315 1.364.01.041.025.074.038.111M48.44 8.735s.319.23.442.527a.403.403 0 0 1-.122.017c-.556.007-1.646.567-1.646.567s-.015-.504.01-.625c.02-.09-.11-.17-.181-.206.372-.023.688-.104.914-.158.464-.092.584-.122.584-.122M45.874 3.389c.03-.14-2.264-.275-2.264-.275l.03-.007h2.39c.37 0 .84.258 1.17.469l-1.315.348s-.04-.396-.01-.535M57.363 13.22a84.5 84.5 0 0 1-.202 1.238c-1.53-.158-2.446-.73-2.775-1.73.014-.007.027-.016.041-.021l1.936-.569.141.135c.103.203.242.38.46.6.137.137.27.249.4.347M55.689 8.616l-1.204.338c-.434-.004-.698-.196-.861-.434l1.714-1.368c.138.595.26 1.122.31 1.346.01.044.028.079.04.118M62.434 8.735s.323.235.444.533a.43.43 0 0 1-.1.01c-.555.008-1.645.568-1.645.568s-.015-.504.01-.625c.02-.091-.113-.171-.183-.207.362-.026.669-.104.89-.157.464-.092.584-.122.584-.122M59.893 3.389c.03-.14-2.264-.275-2.264-.275l.028-.007h2.366c.372 0 .848.263 1.177.473l-1.296.344s-.04-.396-.01-.535M74.681 9.457l-.013 1.147c-1.004-.11-1.64-.496-1.91-1.166.298-.114 1.12-.446 1.381-.761.002-.004.005-.005.007-.008.092.316.24.605.535.788M84.645 9.44l-.013.018s-.083.798-.129 1.104c-1.053-.117-1.696-.534-1.93-1.245l1.458-.575c.046.13.125.26.285.414.098.093.208.191.33.283M86.5 3.047c.358 0 .983.048 1.308.311l.148.12-1.058.337h-.088c.04-.139.1-.392.052-.547-.063-.2-1.71-.173-2.274-.19.095-.018.205-.03.34-.03.65-.006 1.217 0 1.573 0" fill="#fff"/><path d="M40.466 8.954l1.19.543s-1.358-.327-1.888-.138a.333.333 0 0 1 .048-.082c.224-.262.65-.323.65-.323" fill="#babcbf"/><path d="M51.576 13.788c-.018.022-.042.041-.063.062-.408-.456-1.472-1.15-1.624-1.256-.163-.113-.197-.238-.271-.59-.074-.355-.611-2.422-.728-2.725-.117-.304-.45-.544-.45-.544.122-.11.333-.485.32-.742-.013-.256-.426-2.264-.567-2.94-.142-.676-.442-1.099-.7-1.28-.26-.182-.957-.667-1.463-.667h-3.144c-.597 0-.794.195-.794.195l.536.623.955 4.347 3.214-.018 1.06.603c-.265.064-.65.17-1.111.17h-2.507c-.64 0-.878.117-.878.117l.562.703.623 3.085h3.19l.718.557s-.347.208-.907.21h-2.863c-.517 0-1.08-.19-1.712-.826-.455-.456-.571-.734-.72-1.426a42.166 42.166 0 0 1-.26-1.39c-.032-.195.059-.726.389-.81 0 0-.576-.099-.725-.748-.148-.649-.894-3.859-.894-3.859-.096-.429-.411-.506-.764-.716-.326-.193-1.235-.47-1.373-.51.04-.126.093-.242.174-.34.38-.467 1.275-.714 2.589-.714h4.967c2.202.006 3.41.657 3.697 1.984l.747 3.58c.034.168.056.411-.041.615a.827.827 0 0 1-.138.207c-.651-.18-1.261-.094-1.261-.094.404.013.823.303.823.303s.829.101 1.094 1.312l.486 2.355c.105.503.043.885-.186 1.167M54.488 8.954l1.19.543s-1.358-.327-1.888-.138a.333.333 0 0 1 .048-.082c.224-.262.65-.323.65-.323" fill="#babcbf"/><path d="M65.598 13.788c-.018.022-.042.041-.063.062-.408-.456-1.472-1.15-1.624-1.256-.163-.113-.197-.238-.271-.59-.074-.355-.611-2.422-.728-2.725-.117-.304-.45-.544-.45-.544.122-.11.333-.485.32-.742-.013-.256-.426-2.264-.567-2.94-.142-.676-.442-1.099-.7-1.28-.26-.182-.957-.667-1.463-.667h-3.144c-.597 0-.794.195-.794.195l.536.623.955 4.347 3.214-.018 1.06.603c-.265.064-.65.17-1.11.17H58.26c-.64 0-.878.117-.878.117l.562.703.623 3.085h3.19l.718.557s-.347.208-.907.21h-2.863c-.517 0-1.08-.19-1.712-.826-.455-.456-.571-.734-.72-1.426a42.166 42.166 0 0 1-.26-1.39c-.031-.195.059-.726.389-.81 0 0-.576-.099-.725-.748-.148-.649-.894-3.859-.894-3.859-.096-.429-.411-.506-.764-.716-.326-.193-1.235-.47-1.373-.51.04-.126.093-.242.174-.34.38-.467 1.275-.714 2.589-.714h4.967c2.202.006 3.41.657 3.697 1.984l.747 3.58c.034.168.056.411-.041.615a.827.827 0 0 1-.138.207c-.651-.18-1.261-.094-1.261-.094.404.013.823.303.823.303s.829.101 1.094 1.312l.486 2.355c.105.503.043.885-.186 1.167" fill="#babcbf"/><path d="M89.44 9.06s-.272.253-.496.414l-.94-.381-.028-.13h1.526a.239.239 0 0 1-.062.097M27.663 12.946l-.028-.135h1.76s-.39.312-.789.56zM33.788 12.953l-.017-.01-.03-.138h1.756s-.34.273-.711.51zM41.986 9.954a58.148 58.148 0 0 0-2.141-.617c.571-.137 1.811.16 1.811.16l-1.19-.542 1.328-.13a.977.977 0 0 0 .587.422c-.284.072-.39.47-.395.707M47.81 8.83l-1.013-.577s.843-.053 1.223-.006c.312.04.505.105.62.192a1.1 1.1 0 0 1-.194.29c-.152.023-.414.063-.635.101M48.439 13.497a.433.433 0 0 1 .015-.008l-.719-.558-.02-.1 1.455.127s-.332.377-.731.539M50.275 14.4c.13-.116.15-.18.139-.253-.014-.08-.267-1.377-.267-1.377.383.26 1.06.737 1.366 1.08.02-.02.045-.04.063-.062-.237.292-.68.498-1.301.612M56.013 10.018a32.135 32.135 0 0 0-2.144-.68c.572-.139 1.812.158 1.812.158l-1.19-.542 1.339-.109a.972.972 0 0 0 .575.401c-.312.08-.41.557-.392.772M62.498 8.761l-.019.01-.045-.037s-.118.03-.56.118l-1.053-.599h.003s.842-.053 1.223-.006c.31.038.502.103.618.19a1.098 1.098 0 0 1-.2.297l.033.027M62.453 13.502a.338.338 0 0 1 .025-.013l-.719-.557h.004l-.02-.1 1.454.126s-.339.385-.744.544M64.302 14.4c.13-.116.15-.18.138-.253-.013-.079-.263-1.36-.266-1.376.383.262 1.057.737 1.362 1.08.021-.022.046-.04.063-.063.01-.012.016-.024.025-.035-.008.011-.013.024-.02.035-.238.292-.68.498-1.302.612M56.649 3.921l-.533-.62s.11-.11.417-.165c.064.235.23.692.227.787h-.106zM42.632 3.921l-.534-.62s.11-.11.418-.165c.064.235.229.692.226.787h-.105zM71.616 3.082c.167.064.541.215.898.395-.309-.02-.774-.046-.985-.057a.996.996 0 0 1 .087-.338M74.01 3.278s.117-.143.515-.206c.235.362.117.729.117.729s-.321-.358-.632-.523M89.44 9.06l.13.016c.078.022.19.07.333.18.245.185.653.795.796 1.016-.234.147-.553.247-.965.294-.038-.387-.132-1.081-.294-1.506M81.58 2.902c.18.116.704.455.893.59.112.08.239.142.345.206-.002 0-1.153-.236-1.437-.23a.926.926 0 0 1 .199-.566M98.638 9.373l-1.086-.236-.008-.037h1.243s-.042.166-.149.273M102.19 9.604l-.727-.467-.008-.037h1.243s-.317.388-.509.504M36.067 12.709a4.51 4.51 0 0 1 1.067.914c.08.1.174.206.264.305.059-.05.113-.102.158-.157-.19.233-.51.412-.945.534-.135-.735-.794-1.784-.816-1.82a.885.885 0 0 0 .272.224M38.625 3.412c.137.041 1.046.318 1.373.511.202.12.39.198.533.322-.302-.09-.979-.258-1.965-.308a1.39 1.39 0 0 1 .06-.525M52.648 3.412c.137.041 1.046.318 1.373.511.201.12.39.198.533.322-.303-.09-.979-.258-1.966-.308-.013-.198.01-.37.06-.525M103.083 9.1a.385.385 0 0 0 .08.067c.197.12.85.562 1.093 1a.929.929 0 0 0 .1-.098c-.142.161-.347.287-.62.375a49.123 49.123 0 0 0-.655-1.344z" fill="#d9dbdd"/><path d="M16.652 12.289l.015-.006-.015.006" fill="#79787d"/><path d="M67.76 5.293a1.466 1.466 0 1 1-.002-2.933 1.466 1.466 0 0 1 .001 2.933" fill="#e13348"/><path d="M67.76 2.36c.81 0 1.465.656 1.465 1.467 0 .363-.137.691-.356.947-.34-.244-.8-.737-.976-.84-.098-.056-.096-.087-.197-.174-.09-.08-.949-.678-1.118-.797a1.463 1.463 0 0 1 1.181-.604" fill="#bb2933"/><path d="M67.613 5.278a1.46 1.46 0 0 1-1.197-.867l1.316-.616.008.011z" fill="#e1465b"/><path d="M67.672 3.791l-1.377.013c.005-.315.115-.6.29-.836.178.124 1.02.712 1.111.792a.216.216 0 0 1 .034.033c-.032-.003-.058-.002-.058-.002M68.127 5.24a72.074 72.074 0 0 1-.253-1.315l.02.01c.18.092.634.596.974.839-.19.224-.448.39-.74.467" fill="#e12439"/></g><path d="M0 0h16.848v15.413H0z" fill="url(#b)" transform="matrix(1.33333 0 0 -1.33333 0 20.551)"/><path d="M1.125 1.129h14.598v13.158H1.125z" fill="url(#c)" transform="matrix(1.33333 0 0 -1.33333 0 20.551)"/><g clip-path="url(#d)" transform="matrix(1.33333 0 0 -1.33333 0 20.551)"><path d="M10.57 7.564h-.54c-.157 0-.228-.113-.228-.33V4.309c0-.573.242-.843.768-.886zm0 3.357c0 .03-.013.044-.056.044a.346.346 0 0 1-.157-.057l-.327-.2c-.185-.114-.243-.172-.243-.258V9.02c0-.098.128-.17.229-.17h.554zM6.569 8.894h1.667v1.57c0 .3-1.068 1.115-1.424 1.115-.157 0-.243-.1-.243-.286zm-.255 2.285c0 .286-.029.386-.086.386-.129 0-.584-.286-.584-.386V7.222c0-1.957-.228-2.157-.74-2.7-.228-.244-.285-.301-.456-.5.299-.414 1.296-.6 1.866-.573zm.255-3.642V2.35c0-.115-.028-.185-.128-.185-.099 0-.142.07-.142.185v.686h-.256c-.242 0-1.196-.801-1.424-.956a7.636 7.636 0 0 1-1.31.613c-.213-.2-.37-.343-.469-.443-.1-.1-.143-.157-.185-.157-.071 0-.157.087-.157.157 0 .072.157.244.882.987.499.513.699 1.127.699 2.07 0 1.557-.67 2.887-1.439 2.887-.256 0-.384-.101-.427-.358-.014-.128-.071-.171-.128-.171-.114 0-.171.185-.171.5 0 .714.498 1.286 1.111 1.286.527 0 .74-.43 1.054-.386v1.043a.85.85 0 0 1-.3.67c-.171.143-1.053.744-1.38.744-.115 0-.172-.043-.243-.043-.042 0-.057.014-.057.043 0 .043.028.07.114.17l1.125 1.116c.057.042.085.07.142.07.385 0 1.922-1.227 2.107-1.227.3 0 1.866 1.199 2.278 1.199.114 0 .228-.1 1.097-.8.142-.114.427-.37.683-.528.228-.143.242-.171.242-.443.143.029.3.143 1.196.87.257.216 1.011.83 1.068.83.071 0 .698-.257 1.624-.643.27-.114.312-.143.312-.314V4.436c0-.243.029-.33.128-.414.428-.372.684-.515.826-.515.043 0 .1.015.143.057.071.1.085.115.128.115s.085-.057.085-.115c0-.085-.641-.884-1.295-1.4-.399.144-1.082.615-1.467 1.014-.128.144-.156.172-.156.415v5.286c0 .614.199 1.029.911 1.986.37.486.398.628.327.628-.057 0-.925-.628-1.096-.728-.769.442-.997.586-1.41.586-.228 0-.384-.115-.384-.258V2.308c0-.114-.057-.2-.143-.2-.07 0-.114.072-.114.185v.657c-.612-.1-1.11-.813-1.253-.813-.156 0-1.081 1.113-1.081 1.199v4.2z" fill="#962a2c"/><path d="M10.338 7.793h-.54c-.158 0-.229-.115-.229-.33V4.535c0-.57.242-.843.77-.885zm0 3.357c0 .028-.014.043-.057.043a.358.358 0 0 1-.156-.057l-.328-.2c-.184-.114-.242-.172-.242-.258V9.25c0-.1.13-.172.228-.172h.555zm-4-2.029h1.665v1.571c0 .301-1.068 1.115-1.423 1.115-.158 0-.243-.1-.243-.287zm-.257 2.286c0 .286-.029.385-.085.385-.127 0-.584-.285-.584-.385V7.45c0-1.958-.228-2.157-.74-2.7-.228-.243-.284-.3-.456-.5.3-.415 1.296-.6 1.865-.572zm.256-3.642V2.578c0-.114-.028-.185-.128-.185s-.142.071-.142.185v.685h-.256c-.242 0-1.196-.799-1.423-.957a7.655 7.655 0 0 1-1.31.615c-.215-.2-.37-.343-.47-.443-.1-.099-.143-.157-.185-.157-.072 0-.158.085-.158.157s.158.243.884.987c.498.513.697 1.128.697 2.07 0 1.557-.669 2.887-1.438 2.887-.256 0-.385-.1-.427-.358-.014-.129-.07-.17-.128-.17-.114 0-.172.185-.172.498 0 .715.5 1.287 1.112 1.287.526 0 .74-.429 1.053-.387v1.043c0 .272-.1.5-.299.671-.17.144-1.054.743-1.38.743-.115 0-.172-.042-.243-.042-.043 0-.057.014-.057.042 0 .043.028.072.114.172l1.125 1.114c.057.043.085.072.142.072.385 0 1.922-1.229 2.107-1.229.3 0 1.865 1.2 2.28 1.2.112 0 .226-.099 1.094-.8.143-.114.427-.372.684-.529.227-.142.242-.17.242-.442.142.028.3.143 1.196.871.256.214 1.011.83 1.068.83.071 0 .698-.258 1.623-.644.271-.114.313-.142.313-.314V4.664c0-.243.03-.329.128-.414.428-.372.683-.515.826-.515.043 0 .1.015.142.058.071.1.086.114.128.114.043 0 .086-.057.086-.114 0-.087-.64-.886-1.296-1.4-.398.143-1.082.613-1.466 1.013-.128.144-.156.172-.156.415v5.286c0 .614.198 1.028.91 1.986.37.485.4.628.328.628-.057 0-.926-.628-1.097-.728-.768.441-.997.585-1.409.585-.227 0-.385-.114-.385-.257V2.536c0-.115-.056-.2-.142-.2-.07 0-.114.07-.114.185v.657c-.612-.1-1.11-.814-1.253-.814-.156 0-1.082 1.114-1.082 1.2v4.201z" fill="#fff"/><path d="M1.004 14.399V1.015l.132.127v13.13h14.576l.132.127z" fill="#992d2c"/><path d="M15.712 14.271V1.143H1.135l-.131-.128h14.84v13.383z" fill="#f3e1c4"/></g></svg>