<?xml version="1.0" standalone="no"?>
<!DOCTYPE svg PUBLIC "-//W3C//DTD SVG 20010904//EN"
 "http://www.w3.org/TR/2001/REC-SVG-20010904/DTD/svg10.dtd">
<svg version="1.0" xmlns="http://www.w3.org/2000/svg"
 width="75.000000pt" height="75.000000pt" viewBox="0 0 75.000000 75.000000"
 preserveAspectRatio="xMidYMid meet">
<metadata>
Created by potrace 1.11, written by Peter Selinger 2001-2013
</metadata>
<g transform="translate(0.000000,75.000000) scale(0.100000,-0.100000)"
fill="#000000" stroke="none">
<path d="M0 375 l0 -345 375 0 375 0 0 345 0 345 -375 0 -375 0 0 -345z m197
209 l43 -25 49 27 49 26 48 -36 c26 -20 50 -36 54 -36 4 0 26 15 50 34 42 33
43 33 81 18 l39 -15 0 -173 0 -173 26 -20 c26 -21 26 -22 9 -41 -23 -25 -36
-25 -69 1 l-27 22 3 142 c3 132 5 146 26 175 26 35 22 51 -9 32 -14 -9 -25 -9
-39 -2 -22 12 -60 13 -60 2 0 -4 -10 -12 -22 -17 -18 -8 -23 -18 -23 -50 0
-35 3 -40 23 -39 18 0 22 -5 22 -28 0 -18 -4 -27 -10 -23 -25 15 -40 -17 -40
-85 0 -81 6 -100 31 -100 29 0 22 -13 -18 -33 -37 -18 -37 -18 -55 5 -14 18
-18 42 -18 116 l0 92 -45 0 c-43 0 -45 1 -45 30 0 29 2 30 45 30 l45 0 0 37
c0 48 -32 83 -75 83 -51 0 -55 -12 -55 -151 0 -111 -2 -129 -20 -152 -11 -14
-20 -30 -20 -35 0 -13 57 -33 75 -26 8 4 15 1 15 -5 0 -6 -7 -11 -15 -11 -9 0
-26 -7 -40 -16 -18 -12 -31 -13 -58 -6 -25 7 -39 6 -48 -2 -8 -6 -1 3 14 20
36 40 47 89 36 150 -11 58 -35 87 -66 81 -27 -5 -31 14 -7 37 18 18 50 21 59
6 10 -17 25 -1 25 26 0 29 -50 84 -76 84 -14 0 -13 4 7 24 31 31 34 31 86 0z"/>
</g>
</svg>
